<?xml version="1.0" encoding="utf-8"?>
<svg id="master-artboard" viewBox="0 0 1400 1400" version="1.1" xmlns="http://www.w3.org/2000/svg" x="0px" y="0px" style="enable-background:new 0 0 1400 1400;" width="1400px" height="1400px"><rect id="ee-background" x="0" y="0" width="1400" height="1400" style="fill: white; fill-opacity: 0; pointer-events: none;"/>

<path d="M -0.3 0 H 1399.7 V 1400 H -0.3 V 0 Z" class="st0" style="fill: rgb(18, 18, 18);"/>
<g>
	<g>
		<path class="st1" d="M55.16,1002.16h1289.58c0,0,6.42-43.51-81.27-49.49c-87.68-5.97-28.38-240.52-154.21-335.42&#10;&#9;&#9;&#9;c-125.83-94.9-112.02-434.04-368.13-391.27S525.04,449.57,348.21,492.83c-176.83,43.26-208.11,126.89-149,239.06&#10;&#9;&#9;&#9;C258.32,844.05,61.57,858.73,55.16,1002.16z" style="fill: rgb(51, 51, 51);"/>
		<path class="st2" d="M1005.51,756.15h200.98c0,0-5.28-38.31-39.55-36.84c0,0-9.97-51.46-60.93-49.94s-56.01,55.45-56.01,55.45&#10;&#9;&#9;&#9;S1009.92,721.95,1005.51,756.15z" style="fill: rgb(255, 255, 255);"/>
		<g>
			<g>
				<g>
					<path class="st3" d="M980.52,916.93H409.59c-15.94,0-28.86-12.92-28.86-28.86v-370.5c0-15.94,12.92-28.86,28.86-28.86h570.93&#10;&#9;&#9;&#9;&#9;&#9;&#9;c15.94,0,28.86,12.92,28.86,28.86v370.5C1009.38,904.01,996.46,916.93,980.52,916.93z" style="fill: rgb(47, 137, 252);"/>
				<path d="M 1566.600830078125 798.1279907226562" style="fill: rgb(82, 74, 183); fill-opacity: 1; stroke: rgb(0, 0, 0); stroke-opacity: 1; stroke-width: 0; paint-order: fill;"/><path d="M 1085.0555419921875 910.8075561523438" style="fill: rgb(47, 137, 252); fill-opacity: 1; stroke: rgb(0, 0, 0); stroke-opacity: 1; stroke-width: 0; paint-order: fill;"/></g>
			</g>
			<g>
				<g>
					<path class="st4" d="M380.73,866.97v31.44c0,10.23,8.29,18.52,18.52,18.52l591.61,0c10.23,0,18.52-8.29,18.52-18.52v-31.44&#10;&#9;&#9;&#9;&#9;&#9;&#9;H380.73z" style="fill: rgb(9, 76, 130);"/>
				<path d="M 935.0947875976562 996.7020263671875 L 935.0947875976562 996.7020263671875" style="fill: rgb(9, 76, 130); fill-opacity: 1; stroke: rgb(0, 0, 0); stroke-opacity: 1; stroke-width: 0; paint-order: fill;"/><path d="M -413.30059814453125 847.1441040039062" style="fill: rgb(9, 76, 130); fill-opacity: 1; stroke: rgb(0, 0, 0); stroke-opacity: 1; stroke-width: 0; paint-order: fill;"/></g>
			</g>
			<g>
				<g>
					<path class="st5" d="M791.68,988.43L791.68,988.43c-22.06,0-39.94-17.88-39.94-39.94v-31.56H638.37v31.56&#10;&#9;&#9;&#9;&#9;&#9;&#9;c0,22.06-17.88,39.94-39.94,39.94l0,0H791.68z" style="fill: rgb(47, 137, 252);"/>
				<path d="M 810.6555786132812 945.03369140625" style="fill: rgb(47, 137, 252); fill-opacity: 1; stroke: rgb(0, 0, 0); stroke-opacity: 1; stroke-width: 0; paint-order: fill;"/></g>
			</g>
			<g>
				<g>
					<path d="M 409.940002 522.369995 H 980.179993 V 839.369995 H 409.940002 V 522.369995 Z" class="st6" style="fill: rgb(226, 244, 244);"/>
				</g>
			</g>
			<g>
				<g>
					<path class="st2" d="M409.94,630.91c184.91-1.89,253.37-74.41,275.4-108.55h-275.4V630.91z" style="fill: rgb(255, 255, 255);"/>
				</g>
			</g>
			<g>
				<g>
					<path d="M 597.799988 988.559998 H 791.259995 V 1002.159998 H 597.799988 V 988.559998 Z" class="st4" style="fill: rgb(9, 76, 130);"/>
				<path d="M -365.8218994140625 894.622802734375" style="fill: rgb(9, 76, 130); fill-opacity: 1; stroke: rgb(0, 0, 0); stroke-opacity: 1; stroke-width: 0; paint-order: fill;"/><path d="M 1490.595703125 880.3792114257812" style="fill: rgb(9, 76, 130); fill-opacity: 1; stroke: rgb(0, 0, 0); stroke-opacity: 1; stroke-width: 0; paint-order: fill;"/></g>
			</g>
			<g>
				<g>
					<path class="st7" d="M1071.04,630.37H894.48c-5.24,0-9.52-4.28-9.52-9.52V402.6c0-5.24,4.29-9.52,9.52-9.52h176.56&#10;&#9;&#9;&#9;&#9;&#9;&#9;c5.24,0,9.52,4.29,9.52,9.52v218.24C1080.56,626.08,1076.28,630.37,1071.04,630.37z" style="fill: rgb(243, 172, 30);"/>
				</g>
			</g>
			<g>
				<g>
					<g>
						<g>
							<path d="M 912.219971 423.279999 H 1053.309967 V 427.809999 H 912.219971 V 423.279999 Z" class="st2" style="fill: rgb(255, 255, 255);"/>
						</g>
					</g>
					<g>
						<g>
							<path d="M 912.219971 435.299988 H 1021.239967 V 439.829988 H 912.219971 V 435.299988 Z" class="st8" style="fill: rgb(244, 204, 33);"/>
						</g>
					</g>
					<g>
						<g>
							<path d="M 912.219971 448.130005 H 1042.089966 V 452.660005 H 912.219971 V 448.130005 Z" class="st8" style="fill: rgb(244, 204, 33);"/>
						</g>
					</g>
					<g>
						<g>
							<path d="M 912.219971 460.959991 H 1021.239967 V 465.489992 H 912.219971 V 460.959991 Z" class="st8" style="fill: rgb(244, 204, 33);"/>
						</g>
					</g>
				</g>
				<g>
					<g>
						<g>
							<path d="M 912.219971 490.619995 H 1053.309967 V 495.149995 H 912.219971 V 490.619995 Z" class="st2" style="fill: rgb(255, 255, 255);"/>
						</g>
					</g>
					<g>
						<g>
							<path d="M 912.219971 502.640015 H 1021.239967 V 507.170015 H 912.219971 V 502.640015 Z" class="st8" style="fill: rgb(244, 204, 33);"/>
						</g>
					</g>
					<g>
						<g>
							<path d="M 912.219971 515.469971 H 1042.089966 V 519.999971 H 912.219971 V 515.469971 Z" class="st8" style="fill: rgb(244, 204, 33);"/>
						</g>
					</g>
					<g>
						<g>
							<path d="M 912.219971 528.299988 H 1021.239967 V 532.829988 H 912.219971 V 528.299988 Z" class="st8" style="fill: rgb(244, 204, 33);"/>
						</g>
					</g>
				</g>
				<g>
					<g>
						<g>
							<path d="M 912.219971 557.960022 H 1053.309967 V 562.490022 H 912.219971 V 557.960022 Z" class="st2" style="fill: rgb(255, 255, 255);"/>
						</g>
					</g>
					<g>
						<g>
							<path d="M 912.219971 569.97998 H 1021.239967 V 574.509981 H 912.219971 V 569.97998 Z" class="st8" style="fill: rgb(244, 204, 33);"/>
						</g>
					</g>
					<g>
						<g>
							<path d="M 912.219971 582.809998 H 1042.089966 V 587.339998 H 912.219971 V 582.809998 Z" class="st8" style="fill: rgb(244, 204, 33);"/>
						</g>
					</g>
					<g>
						<g>
							<path d="M 912.219971 595.630005 H 1021.239967 V 600.160005 H 912.219971 V 595.630005 Z" class="st8" style="fill: rgb(244, 204, 33);"/>
						</g>
					</g>
				</g>
			</g>
			<g>
				<g>
					<path class="st9" d="M853.84,461.09H672.75c-5.48,0-9.96-4.48-9.96-9.96v-78.31c0-5.48,4.48-9.96,9.96-9.96h181.09&#10;&#9;&#9;&#9;&#9;&#9;&#9;c5.48,0,9.96,4.48,9.96,9.96v78.31C863.8,456.61,859.32,461.09,853.84,461.09z" style="fill: rgb(221, 62, 23);"/>
				</g>
			</g>
			<g>
				<g>
					<g>
						<path class="st2" d="M746.51,435.65l-31.74-21.16c-0.83-0.55-1.33-1.47-1.35-2.47c-0.02-0.99,0.46-1.93,1.26-2.51l31.74-22.67&#10;&#9;&#9;&#9;&#9;&#9;&#9;&#9;l3.51,4.92l-28.17,20.13l28.09,18.73L746.51,435.65z" style="fill: rgb(255, 255, 255);"/>
					</g>
				</g>
				<g>
					<g>
						<path class="st2" d="M780.09,435.65l-3.35-5.03l28.09-18.73l-28.17-20.13l3.51-4.92l31.74,22.67&#10;&#9;&#9;&#9;&#9;&#9;&#9;&#9;c0.81,0.58,1.28,1.52,1.27,2.51c-0.02,0.99-0.52,1.92-1.35,2.47L780.09,435.65z" style="fill: rgb(255, 255, 255);"/>
					</g>
				</g>
				<g>
					<g>
						
							<path d="M 730.01001 407.630005 H 795.520012 V 413.670005 H 730.01001 V 407.630005 Z" transform="matrix(0.1961 -0.9806 0.9806 0.1961 210.5217 1078.0905)" class="st2" style="fill: rgb(255, 255, 255);"/>
					</g>
				</g>
			</g>
			<g>
				<g>
					<g>
						<path class="st10" d="M531.57,654.91h-86.79c-3.97,0-7.19-3.22-7.19-7.19v-72.12c0-3.97,3.22-7.19,7.19-7.19h86.79&#10;&#9;&#9;&#9;&#9;&#9;&#9;&#9;c3.97,0,7.19,3.22,7.19,7.19v72.12C538.77,651.69,535.55,654.91,531.57,654.91z" style="fill: rgb(145, 226, 220);"/>
					</g>
				</g>
				<g>
					<g>
						<path class="st7" d="M656.21,654.91h-86.79c-3.97,0-7.19-3.22-7.19-7.19v-72.12c0-3.97,3.22-7.19,7.19-7.19h86.79&#10;&#9;&#9;&#9;&#9;&#9;&#9;&#9;c3.97,0,7.19,3.22,7.19,7.19v72.12C663.4,651.69,660.18,654.91,656.21,654.91z" style="fill: rgb(243, 172, 30);"/>
					</g>
				</g>
				<g>
					<g>
						<path class="st3" d="M780.92,656.42h-6.13c-0.84,0-1.51-0.68-1.51-1.51c0-0.83,0.68-1.51,1.51-1.51h6.05&#10;&#9;&#9;&#9;&#9;&#9;&#9;&#9;c0.84,0,1.55,0.68,1.55,1.51C782.39,655.74,781.76,656.42,780.92,656.42z M768.74,656.42h-6.05c-0.84,0-1.51-0.68-1.51-1.51&#10;&#9;&#9;&#9;&#9;&#9;&#9;&#9;c0-0.83,0.68-1.51,1.51-1.51h6.05c0.84,0,1.51,0.68,1.51,1.51C770.25,655.74,769.57,656.42,768.74,656.42z M756.64,656.42&#10;&#9;&#9;&#9;&#9;&#9;&#9;&#9;h-6.05c-0.84,0-1.51-0.68-1.51-1.51c0-0.83,0.68-1.51,1.51-1.51h6.05c0.84,0,1.51,0.68,1.51,1.51&#10;&#9;&#9;&#9;&#9;&#9;&#9;&#9;C758.15,655.74,757.48,656.42,756.64,656.42z M744.54,656.42h-6.05c-0.84,0-1.51-0.68-1.51-1.51c0-0.83,0.68-1.51,1.51-1.51&#10;&#9;&#9;&#9;&#9;&#9;&#9;&#9;h6.05c0.84,0,1.51,0.68,1.51,1.51C746.05,655.74,745.38,656.42,744.54,656.42z M732.44,656.42h-6.05&#10;&#9;&#9;&#9;&#9;&#9;&#9;&#9;c-0.83,0-1.51-0.68-1.51-1.51c0-0.83,0.68-1.51,1.51-1.51h6.05c0.84,0,1.51,0.68,1.51,1.51&#10;&#9;&#9;&#9;&#9;&#9;&#9;&#9;C733.96,655.74,733.28,656.42,732.44,656.42z M720.35,656.42h-6.05c-0.83,0-1.51-0.68-1.51-1.51c0-0.83,0.68-1.51,1.51-1.51&#10;&#9;&#9;&#9;&#9;&#9;&#9;&#9;h6.05c0.83,0,1.51,0.68,1.51,1.51C721.86,655.74,721.18,656.42,720.35,656.42z M708.25,656.42h-6.05&#10;&#9;&#9;&#9;&#9;&#9;&#9;&#9;c-0.83,0-1.51-0.68-1.51-1.51c0-0.83,0.68-1.51,1.51-1.51h6.05c0.83,0,1.51,0.68,1.51,1.51&#10;&#9;&#9;&#9;&#9;&#9;&#9;&#9;C709.76,655.74,709.08,656.42,708.25,656.42z M696.15,656.42h-2.1c-1.61,0-3.18-0.44-4.54-1.28c-0.71-0.44-0.93-1.37-0.5-2.08&#10;&#9;&#9;&#9;&#9;&#9;&#9;&#9;c0.44-0.71,1.37-0.93,2.08-0.5c0.89,0.55,1.92,0.83,2.97,0.83h2.1c0.83,0,1.51,0.68,1.51,1.51&#10;&#9;&#9;&#9;&#9;&#9;&#9;&#9;C697.66,655.74,696.98,656.42,696.15,656.42z M786.25,653.96c-0.35,0-0.71-0.12-0.99-0.37c-0.63-0.55-0.69-1.5-0.14-2.13&#10;&#9;&#9;&#9;&#9;&#9;&#9;&#9;c0.91-1.04,1.41-2.36,1.41-3.74v-0.88c0-0.83,0.68-1.51,1.51-1.51s1.51,0.68,1.51,1.51v0.88c0,2.11-0.76,4.14-2.15,5.73&#10;&#9;&#9;&#9;&#9;&#9;&#9;&#9;C787.09,653.79,786.67,653.96,786.25,653.96z M686.97,650.52c-0.72,0-1.35-0.51-1.49-1.24c-0.09-0.51-0.14-1.04-0.14-1.56&#10;&#9;&#9;&#9;&#9;&#9;&#9;&#9;v-4.75c0-0.83,0.68-1.51,1.51-1.51s1.51,0.68,1.51,1.51v4.75c0,0.34,0.03,0.69,0.09,1.03c0.15,0.82-0.4,1.61-1.22,1.76&#10;&#9;&#9;&#9;&#9;&#9;&#9;&#9;C687.15,650.52,687.06,650.52,686.97,650.52z M788.03,642.3c-0.84,0-1.51-0.68-1.51-1.51v-6.05c0-0.83,0.68-1.51,1.51-1.51&#10;&#9;&#9;&#9;&#9;&#9;&#9;&#9;s1.51,0.68,1.51,1.51v6.05C789.54,641.62,788.87,642.3,788.03,642.3z M686.86,638.43c-0.83,0-1.51-0.68-1.51-1.51v-6.05&#10;&#9;&#9;&#9;&#9;&#9;&#9;&#9;c0-0.83,0.68-1.51,1.51-1.51s1.51,0.68,1.51,1.51v6.05C688.37,637.76,687.69,638.43,686.86,638.43z M788.03,630.2&#10;&#9;&#9;&#9;&#9;&#9;&#9;&#9;c-0.84,0-1.51-0.68-1.51-1.51v-6.05c0-0.83,0.68-1.51,1.51-1.51s1.51,0.68,1.51,1.51v6.05&#10;&#9;&#9;&#9;&#9;&#9;&#9;&#9;C789.54,629.53,788.87,630.2,788.03,630.2z M686.86,626.33c-0.83,0-1.51-0.68-1.51-1.51v-6.05c0-0.83,0.68-1.51,1.51-1.51&#10;&#9;&#9;&#9;&#9;&#9;&#9;&#9;s1.51,0.68,1.51,1.51v6.05C688.37,625.66,687.69,626.33,686.86,626.33z M788.03,618.1c-0.84,0-1.51-0.68-1.51-1.51v-6.05&#10;&#9;&#9;&#9;&#9;&#9;&#9;&#9;c0-0.83,0.68-1.51,1.51-1.51s1.51,0.68,1.51,1.51v6.05C789.54,617.43,788.87,618.1,788.03,618.1z M686.86,614.24&#10;&#9;&#9;&#9;&#9;&#9;&#9;&#9;c-0.83,0-1.51-0.68-1.51-1.51v-6.05c0-0.83,0.68-1.51,1.51-1.51s1.51,0.68,1.51,1.51v6.05&#10;&#9;&#9;&#9;&#9;&#9;&#9;&#9;C688.37,613.56,687.69,614.24,686.86,614.24z M788.03,606.01c-0.84,0-1.51-0.68-1.51-1.51v-6.05c0-0.83,0.68-1.51,1.51-1.51&#10;&#9;&#9;&#9;&#9;&#9;&#9;&#9;s1.51,0.68,1.51,1.51v6.05C789.54,605.33,788.87,606.01,788.03,606.01z M686.86,602.14c-0.83,0-1.51-0.68-1.51-1.51v-6.05&#10;&#9;&#9;&#9;&#9;&#9;&#9;&#9;c0-0.83,0.68-1.51,1.51-1.51s1.51,0.68,1.51,1.51v6.05C688.37,601.46,687.69,602.14,686.86,602.14z M788.03,593.91&#10;&#9;&#9;&#9;&#9;&#9;&#9;&#9;c-0.84,0-1.51-0.68-1.51-1.51v-6.05c0-0.83,0.68-1.51,1.51-1.51s1.51,0.68,1.51,1.51v6.05&#10;&#9;&#9;&#9;&#9;&#9;&#9;&#9;C789.54,593.23,788.87,593.91,788.03,593.91z M686.86,590.04c-0.83,0-1.51-0.68-1.51-1.51v-6.05c0-0.83,0.68-1.51,1.51-1.51&#10;&#9;&#9;&#9;&#9;&#9;&#9;&#9;s1.51,0.68,1.51,1.51v6.05C688.37,589.36,687.69,590.04,686.86,590.04z M788.03,581.81c-0.84,0-1.51-0.68-1.51-1.51v-4.7&#10;&#9;&#9;&#9;&#9;&#9;&#9;&#9;c0-0.36-0.03-0.71-0.1-1.06c-0.15-0.82,0.39-1.61,1.21-1.76c0.83-0.16,1.61,0.39,1.76,1.21c0.1,0.53,0.15,1.08,0.15,1.62v4.7&#10;&#9;&#9;&#9;&#9;&#9;&#9;&#9;C789.54,581.13,788.87,581.81,788.03,581.81z M686.86,577.94c-0.83,0-1.51-0.68-1.51-1.51v-0.84c0-2.13,0.78-4.18,2.19-5.77&#10;&#9;&#9;&#9;&#9;&#9;&#9;&#9;c0.55-0.63,1.51-0.68,2.13-0.13c0.63,0.55,0.68,1.51,0.13,2.13c-0.92,1.04-1.43,2.38-1.43,3.77v0.84&#10;&#9;&#9;&#9;&#9;&#9;&#9;&#9;C688.37,577.26,687.69,577.94,686.86,577.94z M784.56,570.95c-0.27,0-0.54-0.07-0.78-0.22c-0.88-0.53-1.9-0.82-2.94-0.82&#10;&#9;&#9;&#9;&#9;&#9;&#9;&#9;h-2.14c-0.84,0-1.51-0.68-1.51-1.51c0-0.83,0.68-1.51,1.51-1.51h2.14c1.59,0,3.15,0.43,4.5,1.25&#10;&#9;&#9;&#9;&#9;&#9;&#9;&#9;c0.71,0.43,0.94,1.36,0.51,2.08C785.56,570.69,785.07,570.95,784.56,570.95z M772.65,569.91h-6.05&#10;&#9;&#9;&#9;&#9;&#9;&#9;&#9;c-0.84,0-1.51-0.68-1.51-1.51c0-0.83,0.68-1.51,1.51-1.51h6.05c0.84,0,1.51,0.68,1.51,1.51&#10;&#9;&#9;&#9;&#9;&#9;&#9;&#9;C774.16,569.23,773.48,569.91,772.65,569.91z M760.55,569.91h-6.05c-0.84,0-1.51-0.68-1.51-1.51c0-0.83,0.68-1.51,1.51-1.51&#10;&#9;&#9;&#9;&#9;&#9;&#9;&#9;h6.05c0.84,0,1.51,0.68,1.51,1.51C762.06,569.23,761.39,569.91,760.55,569.91z M748.45,569.91h-6.05&#10;&#9;&#9;&#9;&#9;&#9;&#9;&#9;c-0.84,0-1.51-0.68-1.51-1.51c0-0.83,0.68-1.51,1.51-1.51h6.05c0.84,0,1.51,0.68,1.51,1.51&#10;&#9;&#9;&#9;&#9;&#9;&#9;&#9;C749.96,569.23,749.29,569.91,748.45,569.91z M736.36,569.91h-6.05c-0.83,0-1.51-0.68-1.51-1.51c0-0.83,0.68-1.51,1.51-1.51&#10;&#9;&#9;&#9;&#9;&#9;&#9;&#9;h6.05c0.84,0,1.51,0.68,1.51,1.51C737.87,569.23,737.19,569.91,736.36,569.91z M724.26,569.91h-6.05&#10;&#9;&#9;&#9;&#9;&#9;&#9;&#9;c-0.83,0-1.51-0.68-1.51-1.51c0-0.83,0.68-1.51,1.51-1.51h6.05c0.83,0,1.51,0.68,1.51,1.51&#10;&#9;&#9;&#9;&#9;&#9;&#9;&#9;C725.77,569.23,725.09,569.91,724.26,569.91z M712.16,569.91h-6.05c-0.83,0-1.51-0.68-1.51-1.51c0-0.83,0.68-1.51,1.51-1.51&#10;&#9;&#9;&#9;&#9;&#9;&#9;&#9;h6.05c0.83,0,1.51,0.68,1.51,1.51C713.67,569.23,712.99,569.91,712.16,569.91z M700.06,569.91h-6.01&#10;&#9;&#9;&#9;&#9;&#9;&#9;&#9;c-0.83,0-1.53-0.68-1.53-1.51c0-0.83,0.66-1.51,1.49-1.51v1.51l0.01-1.51l6.04,0c0.83,0,1.51,0.68,1.51,1.51&#10;&#9;&#9;&#9;&#9;&#9;&#9;&#9;C701.57,569.23,700.89,569.91,700.06,569.91z" style="fill: rgb(82, 74, 183);"/>
					</g>
				</g>
				<g>
					<g>
						<g>
							<path d="M 438.329987 680.47998 H 514.579987 V 686.529981 H 438.329987 V 680.47998 Z" class="st2" style="fill: rgb(255, 255, 255);"/>
						</g>
					</g>
				</g>
				<g>
					<g>
						<g>
							<path d="M 438.329987 696.609985 H 612.809982 V 702.659986 H 438.329987 V 696.609985 Z" class="st10" style="fill: rgb(145, 226, 220);"/>
						</g>
					</g>
				</g>
				<g>
					<g>
						<g>
							<path d="M 438.329987 712.73999 H 637.73999 V 718.78999 H 438.329987 V 712.73999 Z" class="st10" style="fill: rgb(145, 226, 220);"/>
						</g>
					</g>
				</g>
				<g>
					<g>
						<g>
							<path d="M 438.329987 728.869995 H 585.689987 V 734.919995 H 438.329987 V 728.869995 Z" class="st10" style="fill: rgb(145, 226, 220);"/>
						</g>
					</g>
				</g>
				<g>
					<g>
						<g>
							<path d="M 438.329987 762.590027 H 514.579987 V 768.640027 H 438.329987 V 762.590027 Z" class="st2" style="fill: rgb(255, 255, 255);"/>
						</g>
					</g>
				</g>
				<g>
					<g>
						<g>
							<path d="M 438.329987 778.719971 H 612.809982 V 784.759971 H 438.329987 V 778.719971 Z" class="st10" style="fill: rgb(145, 226, 220);"/>
						</g>
					</g>
				</g>
				<g>
					<g>
						<g>
							<path d="M 438.329987 794.849976 H 637.73999 V 800.899976 H 438.329987 V 794.849976 Z" class="st10" style="fill: rgb(145, 226, 220);"/>
						</g>
					</g>
				</g>
				<g>
					<g>
						<g>
							<path d="M 438.329987 810.97998 H 585.689987 V 817.029981 H 438.329987 V 810.97998 Z" class="st10" style="fill: rgb(145, 226, 220);"/>
						</g>
					</g>
				</g>
				<g>
					<g>
						<path d="M 437.589996 538.169983 H 476.889996 V 544.219983 H 437.589996 V 538.169983 Z" class="st10" style="fill: rgb(145, 226, 220);"/>
					</g>
				</g>
				<g>
					<g>
						<path d="M 623.48999 538.169983 H 662.789989 V 544.219983 H 623.48999 V 538.169983 Z" class="st10" style="fill: rgb(145, 226, 220);"/>
					</g>
				</g>
				<g>
					<g>
						<path d="M 499.559998 538.169983 H 597.799995 V 544.219983 H 499.559998 V 538.169983 Z" class="st10" style="fill: rgb(145, 226, 220);"/>
					</g>
				</g>
			</g>
			<g>
				<g>
					<path class="st2" d="M980.17,839.36V668.63c-42.25,6.98-153.77,37.78-202.25,170.73H980.17z" style="fill: rgb(255, 255, 255);"/>
				</g>
			</g>
		</g>
		<g>
			<g>
				<g>
					
						<path d="M 954.329994 753.539978 A 68.769997 68.769997 0 0 1 885.559998 822.309975 A 68.769997 68.769997 0 0 1 816.790001 753.539978 A 68.769997 68.769997 0 0 1 885.559998 684.769981 A 68.769997 68.769997 0 0 1 954.329994 753.539978 Z" transform="matrix(0.7071 -0.7071 0.7071 0.7071 -273.4608 846.8947)" class="st11" style="fill: rgb(83, 212, 241);"/>
				</g>
			</g>
			<g>
				<g>
					<path class="st2" d="M914.86,760.8l-40.16,23.18c-5.59,3.23-12.57-0.81-12.57-7.26v-46.37c0-6.45,6.98-10.48,12.57-7.26&#10;&#9;&#9;&#9;&#9;&#9;&#9;l40.16,23.18C920.45,749.51,920.45,757.58,914.86,760.8z" style="fill: rgb(255, 255, 255);"/>
				</g>
			</g>
		</g>
		<g>
			<g>
				<path class="st12" d="M326.81,662.11H186.25c-9.98,0-18.14-8.16-18.14-18.14V492.83c0-9.98,8.16-18.14,18.14-18.14h140.56&#10;&#9;&#9;&#9;&#9;&#9;c9.98,0,18.14,8.16,18.14,18.14v151.14C344.95,653.94,336.79,662.11,326.81,662.11z" style="fill: rgb(254, 254, 254);"/>
			</g>
		</g>
		<g>
			<g>
				<g>
					<path d="M 195.949997 568.400024 H 210.039997 V 636.060028 H 195.949997 V 568.400024 Z" class="st7" style="fill: rgb(243, 172, 30);"/>
				</g>
				<g>
					<path d="M 222.720001 542.710022 H 236.810001 V 636.06002 H 222.720001 V 542.710022 Z" class="st4" style="fill: rgb(110, 107, 249);"/>
				</g>
				<g>
					<path d="M 249.490005 558.380005 H 263.580006 V 636.060005 H 249.490005 V 558.380005 Z" class="st13" style="fill: rgb(253, 137, 202);"/>
				</g>
				<g>
					<path d="M 276.26001 530.320007 H 290.35001 V 636.060005 H 276.26001 V 530.320007 Z" class="st9" style="fill: rgb(221, 62, 23);"/>
				</g>
				<g>
					<g>
						<path d="M 303.029999 500.73999 H 317.119999 V 636.059998 H 303.029999 V 500.73999 Z" class="st14" style="fill: rgb(107, 203, 225);"/>
					</g>
				</g>
			</g>
		</g>
		<path class="st2" d="M310.07,449.03h238.61c0,0-6.27-45.48-46.96-43.74c0,0-11.83-61.09-72.34-59.3&#10;&#9;&#9;&#9;c-60.51,1.8-66.5,65.83-66.5,65.83S315.31,408.44,310.07,449.03z" style="fill: rgb(255, 255, 255);"/>
		<path class="st2" d="M261.43,950.87h238.61c0,0-6.27-45.48-46.96-43.74c0,0-11.83-61.09-72.34-59.3&#10;&#9;&#9;&#9;c-60.51,1.8-66.5,65.83-66.5,65.83S266.67,910.28,261.43,950.87z" style="fill: rgb(255, 255, 255);"/>
		<path class="st15" d="M55.16,1002.16c0,0,9.04,38.64,167.56,47.19s302.64,126.18,462.62,128.32&#10;&#9;&#9;&#9;c159.98,2.14,196.33-75,395.23-87.76s264.18-87.76,264.18-87.76H55.16z" style="fill: rgb(32, 37, 41);"/>
		<path class="st2" d="M345.82,770.72c-30.41-10.48-35.46,24.53-35.46,24.53s-7.59-32.76-35.46-24.53&#10;&#9;&#9;&#9;c-30.85,9.11-12.24,68.74,35.46,82.47C358.05,839.46,375.4,780.92,345.82,770.72z" style="fill: rgb(255, 255, 255);"/>
		<g>
			<path class="st16" d="M1174.64,780.21c-5.69,49.2-47.52,87.41-98.26,87.41" style="fill: none; stroke: rgb(47, 137, 252); stroke-width: 7; stroke-linecap: round; stroke-miterlimit: 10;"/>
			<path class="st16" d="M1076.38,669.74c50.74,0,92.57,38.19,98.26,87.41" style="fill: none; stroke: rgb(47, 137, 252); stroke-width: 7; stroke-linecap: round; stroke-miterlimit: 10;"/>
			
				<path d="M 1053.310059 658.200012 H 1076.380058 V 681.270012 H 1053.310059 V 658.200012 Z" transform="matrix(-1.836970e-16 1 -1 -1.836970e-16 1734.5778 -395.1053)" class="st17" style="fill: none; stroke: rgb(47, 137, 252); stroke-width: 7; stroke-linecap: round; stroke-linejoin: round; stroke-miterlimit: 10;"/>
			
				<path d="M 1163.780029 757.140015 H 1186.850029 V 780.210014 H 1163.780029 V 757.140015 Z" transform="matrix(-1.836970e-16 1 -1 -1.836970e-16 1943.9867 -406.64)" class="st17" style="fill: none; stroke: rgb(47, 137, 252); stroke-width: 7; stroke-linecap: round; stroke-linejoin: round; stroke-miterlimit: 10;"/>
			
				<path d="M 1053.310059 856.25 H 1076.380058 V 879.32 H 1053.310059 V 856.25 Z" transform="matrix(-1.836970e-16 1 -1 -1.836970e-16 1932.6295 -197.0536)" class="st17" style="fill: none; stroke: rgb(47, 137, 252); stroke-width: 7; stroke-linecap: round; stroke-linejoin: round; stroke-miterlimit: 10;"/>
			<path d="M 1175.310059 757.140015 L 1175.310059 639.369995" class="st17" style="fill: none; stroke: rgb(47, 137, 252); stroke-width: 7; stroke-linecap: round; stroke-linejoin: round; stroke-miterlimit: 10;"/>
			<path class="st3" d="M1175.31,645.74c-3.51,0-6.36-2.85-6.36-6.36c0-3.51,2.85-6.36,6.36-6.36c3.51,0,6.36,2.85,6.36,6.36&#10;&#9;&#9;&#9;&#9;C1181.68,642.89,1178.83,645.74,1175.31,645.74z" style="fill: rgb(47, 137, 252);"/>
			<path d="M 1175.310059 780.210022 L 1175.310059 892.969971" class="st17" style="fill: none; stroke: rgb(47, 137, 252); stroke-width: 7; stroke-linecap: round; stroke-linejoin: round; stroke-miterlimit: 10;"/>
			<path class="st3" d="M1175.31,886.61c-3.51,0-6.36,2.85-6.36,6.36s2.85,6.36,6.36,6.36c3.51,0,6.36-2.85,6.36-6.36&#10;&#9;&#9;&#9;&#9;S1178.83,886.61,1175.31,886.61z" style="fill: rgb(47, 137, 252);"/>
		<path d="M -221.01181030273438 1096.4073486328125" style="fill: rgb(47, 137, 252); fill-opacity: 1; stroke: rgb(47, 137, 252); stroke-opacity: 1; stroke-width: 7; paint-order: stroke;"/><path d="M -342.08251953125 1082.1636962890625" style="fill: rgb(47, 137, 252); fill-opacity: 1; stroke: rgb(47, 137, 252); stroke-opacity: 1; stroke-width: 7; paint-order: stroke;"/><path d="M 1473.35888671875 747.0199584960938" style="fill: rgb(47, 137, 252); fill-opacity: 1; stroke: rgb(0, 0, 0); stroke-opacity: 1; stroke-width: 0; paint-order: fill;"/><path d="M 1488.717041015625 843.7761840820312" style="fill: rgb(47, 137, 252); fill-opacity: 1; stroke: rgb(47, 137, 252); stroke-opacity: 1; stroke-width: 7; paint-order: stroke;"/><path d="M 1454.1612548828125 705.552978515625" style="fill: rgb(47, 137, 252); fill-opacity: 1; stroke: rgb(47, 137, 252); stroke-opacity: 1; stroke-width: 7; paint-order: stroke;"/><path d="M 1502.539306640625 744.7162475585938" style="fill: rgb(47, 137, 252); fill-opacity: 1; stroke: rgb(0, 0, 0); stroke-opacity: 1; stroke-width: 0; paint-order: fill;"/><path d="M 1456.4649658203125 767.75341796875" style="fill: rgb(47, 137, 252); fill-opacity: 1; stroke: rgb(47, 137, 252); stroke-opacity: 1; stroke-width: 7; paint-order: stroke;"/><path d="M 1460.304443359375 784.6473999023438 L 1460.304443359375 784.6473999023438" style="fill: rgb(47, 137, 252); fill-opacity: 1; stroke: rgb(47, 137, 252); stroke-opacity: 1; stroke-width: 7; paint-order: stroke;"/><path d="M 1503.3072509765625 753.1632080078125" style="fill: rgb(47, 137, 252); fill-opacity: 1; stroke: rgb(47, 137, 252); stroke-opacity: 1; stroke-width: 7; paint-order: stroke;"/><path d="M 1417.3017578125 808.4525146484375" style="fill: rgb(47, 137, 252); fill-opacity: 1; stroke: rgb(47, 137, 252); stroke-opacity: 1; stroke-width: 7; paint-order: stroke;"/></g>
	<path d="M -38.91625213623047 1041.6748046875" style="fill: rgb(32, 37, 41); fill-opacity: 1; stroke: rgb(0, 0, 0); stroke-opacity: 1; stroke-width: 0; paint-order: fill;"/><path d="M -27.093599319458008 1013.3003540039062" style="fill: rgb(51, 51, 51); fill-opacity: 1; stroke: rgb(0, 0, 0); stroke-opacity: 1; stroke-width: 0; paint-order: fill;"/><path d="M 1727.3890380859375 975.4678344726562" style="fill: rgb(51, 51, 51); fill-opacity: 1; stroke: rgb(0, 0, 0); stroke-opacity: 1; stroke-width: 0; paint-order: fill;"/></g>
	<g>
		<path class="st3" d="M236,748.34v210.71c0,1.75-1.42,3.16-3.16,3.16H212.6c-1.75,0-3.16-1.42-3.16-3.16V748.34H236z" style="fill: rgb(47, 137, 252);"/>
		<path d="M 209.44000244140625 748.3400268554688 L 222.72000122070312 716.52001953125 L 236 748.3400268554688 Z" class="st7" style="fill: rgb(243, 172, 30);"/>
		<path d="M 225.13999938964844 722.3300170898438 L 222.72000122070312 716.52001953125 L 220.2899932861328 722.3300170898438 Z" class="st3" style="fill: rgb(82, 74, 183);"/>
	<path d="M -422.79632568359375 859.0137329101562" style="fill: rgb(47, 137, 252); fill-opacity: 1; stroke: rgb(0, 0, 0); stroke-opacity: 1; stroke-width: 0; paint-order: fill;"/></g>
</g>
</svg>