<?xml version="1.0" encoding="utf-8"?>
<svg id="master-artboard" viewBox="0 0 1400 1400" version="1.1" xmlns="http://www.w3.org/2000/svg" x="0px" y="0px" style="enable-background:new 0 0 1400 980;" width="1400px" height="1400px"><rect id="ee-background" x="0" y="0" width="1400" height="1400" style="fill: white; fill-opacity: 0; pointer-events: none;"/>

<path d="M 1291.699982 722.400024 A 169.600006 169.600006 0 0 1 1122.099976 892.000031 A 169.600006 169.600006 0 0 1 952.499969 722.400024 A 169.600006 169.600006 0 0 1 1122.099976 552.800018 A 169.600006 169.600006 0 0 1 1291.699982 722.400024 Z" class="st0" style="fill: rgb(1, 127, 229);" transform="matrix(1, 0, 0, 1, 0, 218)"/>
<path d="M 869.600006 722.400024 A 169.600006 169.600006 0 0 1 700 892.000031 A 169.600006 169.600006 0 0 1 530.399994 722.400024 A 169.600006 169.600006 0 0 1 700 552.800018 A 169.600006 169.600006 0 0 1 869.600006 722.400024 Z" class="st0" style="fill: rgb(1, 127, 229);" transform="matrix(1, 0, 0, 1, 0, 218)"/>
<path d="M 447.5 722.400024 A 169.600006 169.600006 0 0 1 277.899994 892.000031 A 169.600006 169.600006 0 0 1 108.299988 722.400024 A 169.600006 169.600006 0 0 1 277.899994 552.800018 A 169.600006 169.600006 0 0 1 447.5 722.400024 Z" class="st0" style="fill: rgb(1, 127, 229);" transform="matrix(1, 0, 0, 1, 0, 218)"/>
<path d="M 1291.699982 257.600006 A 169.600006 169.600006 0 0 1 1122.099976 427.200012 A 169.600006 169.600006 0 0 1 952.499969 257.600006 A 169.600006 169.600006 0 0 1 1122.099976 88 A 169.600006 169.600006 0 0 1 1291.699982 257.600006 Z" class="st0" style="fill: rgb(1, 127, 229);" transform="matrix(1, 0, 0, 1, 0, 218)"/>
<path d="M 869.600006 257.600006 A 169.600006 169.600006 0 0 1 700 427.200012 A 169.600006 169.600006 0 0 1 530.399994 257.600006 A 169.600006 169.600006 0 0 1 700 88 A 169.600006 169.600006 0 0 1 869.600006 257.600006 Z" class="st0" style="fill: rgb(1, 127, 229);" transform="matrix(1, 0, 0, 1, 0, 218)"/>
<path d="M 447.5 257.600006 A 169.600006 169.600006 0 0 1 277.899994 427.200012 A 169.600006 169.600006 0 0 1 108.299988 257.600006 A 169.600006 169.600006 0 0 1 277.899994 88 A 169.600006 169.600006 0 0 1 447.5 257.600006 Z" class="st0" style="fill: rgb(1, 127, 229);" transform="matrix(1, 0, 0, 1, 0, 218)"/>
<g transform="matrix(1, 0, 0, 1, 0, 218)">
	<g>
		<path class="st1" d="M700,179.3c0.7,0.7,1.6,1.2,2.7,1.2c2,0,3.7-1.6,3.7-3.7c0-0.1,0-0.4,0.2-0.6l13.4-12.2&#10;&#9;&#9;&#9;c0.7-0.7,0.8-1.8,0.1-2.5c-0.7-0.7-1.8-0.8-2.5-0.1l-13.1,11.9c-0.2,0.2-0.3,0.1-0.4,0.1c-0.4-0.2-0.9-0.3-1.4-0.3&#10;&#9;&#9;&#9;c-0.8,0-1.6,0.3-2.2,0.7c-0.1,0.1-0.3,0.2-0.5,0.1l-9.2-3.7c-1.2-0.5-2.6,0-3.2,1.3c-0.5,1.2,0,2.6,1.3,3.2l10.8,4.4&#10;&#9;&#9;&#9;C699.9,179.1,700,179.3,700,179.3z" style="fill-rule: evenodd; clip-rule: evenodd; fill: rgb(255, 255, 255);"/>
		<path class="st1" d="M702.7,144.6c-17.7,0-32.1,14.4-32.1,32.1c0,17.7,14.4,32.1,32.1,32.1c17.7,0,32.1-14.3,32.1-32.1&#10;&#9;&#9;&#9;C734.8,159,720.4,144.6,702.7,144.6z M677.4,180.2h1.2c1.9,0,3.5-1.6,3.5-3.5c0-1.9-1.6-3.5-3.5-3.5h-1.2&#10;&#9;&#9;&#9;c1.5-11.3,10.5-20.3,21.8-21.8v1.2c0,1.9,1.6,3.5,3.5,3.5s3.5-1.6,3.5-3.5v-1.2c11.3,1.5,20.3,10.5,21.8,21.8h-1.2&#10;&#9;&#9;&#9;c-1.9,0-3.5,1.6-3.5,3.5c0,1.9,1.6,3.5,3.5,3.5l1.2,0c-1.6,11.3-10.5,20.2-21.8,21.8v-1.2c0-1.9-1.6-3.5-3.5-3.5&#10;&#9;&#9;&#9;c-1.9,0-3.5,1.6-3.5,3.5v1.2C687.9,200.4,679,191.5,677.4,180.2z" style="fill-rule: evenodd; clip-rule: evenodd; fill: rgb(255, 255, 255);"/>
	</g>
	<path class="st2" d="M828.1,231.9c-1.3-0.4-2.6,0.3-3,1.6c-0.4,1.3,0.3,2.6,1.6,3c0.2,0.1,17.5,5.8,17.5,21.2&#10;&#9;&#9;c0,7.3-1.8,12.4-5.1,15c-0.4-9.2-5.3-18.1-11.4-20.6c-3.9-1.6-7.9-0.6-11.3,2.9c-4.1,4.2-4.7,9.5-1.8,14.6&#10;&#9;&#9;c3.3,5.6,11.2,10.5,18.9,10.1c-1,3.3-3.3,6.7-7.9,8.6c-5.2,2.1-9.8,2.2-13.8,0.3c-3.6-1.8-6.1-5-7.9-8c0.1-1.1,0.1-2.3,0.2-3.4&#10;&#9;&#9;c-0.1,0.2-0.2,0.5-0.2,0.7c0.6-16.6-5.9-30-12-38.9c-0.1-0.2-0.2-0.4-0.4-0.5c-0.3-0.5-0.7-0.9-1-1.4c-4.7-6.4-8.9-9.9-8.9-10&#10;&#9;&#9;c-13.4-12.8-31.9-22.4-53.1-26.9c-2.6,2.9-5.7,5.3-9.2,7.2c-0.6,0.4-1.2,0.8-1.8,1.1c4.2,0.4,8.3,0.9,12.4,1.5l-0.6,3.8&#10;&#9;&#9;c-15-2.9-39.6-2.8-56.3,0l-0.6-3.8c4.9-0.8,9.8-1.3,14.7-1.7c-1.2-0.7-2.3-1.5-3.4-2.3c-2.8-1.8-5.3-4-7.4-6.5&#10;&#9;&#9;c-13.9,2.5-26.7,7.2-37.8,13.5c-6.3,3.6-13.6,5-20.7,4.1c-5-0.6-10.8-1-17.4-1l9.1,22.7c-6.1,8.6-10.1,18.1-11.7,28.3&#10;&#9;&#9;c-0.8,5.3-5.3,9.2-10.7,9.2v31.4c10.5,0,20.5,4.6,27.5,12.5c4,4.5,8.5,8.7,13.6,12.4c3.7,2.8,5.4,7.6,4.1,12l-4.8,17.5&#10;&#9;&#9;c-1.2,4.3,2.1,8.6,6.6,8.6h13.4c3.1,0,5.8-2.1,6.6-5l1.7-6.2c1.6-5.9,7.6-9.5,13.6-8.1c9.9,2.4,20.4,3.7,31.3,3.7&#10;&#9;&#9;c10.9,0,21.5-1.3,31.4-3.7c6-1.4,12,2.2,13.6,8.1l1.6,6.1c0.8,3,3.5,5.1,6.6,5.1h13.4c4.5,0,7.7-4.2,6.6-8.6l-4.7-17.7&#10;&#9;&#9;c-1.2-4.5,0.5-9.2,4.1-12c8.2-6.1,15.1-13.3,20.2-21.3c0,0,0,0,0,0c4.7-7.3,8-15.2,9.6-23.6c1.8,2.1,4,3.9,6.6,5.3&#10;&#9;&#9;c2.6,1.3,5.3,1.9,8.2,1.9c3,0,6.2-0.7,9.5-2.1c6.1-2.5,10.1-7.6,11.3-14.2c4.5-1.9,10.3-7,10.3-20.8&#10;&#9;&#9;C849,238.8,829,232.2,828.1,231.9z M625.1,264.6c-2,0-3.7-1.7-3.7-3.7s1.7-3.7,3.7-3.7c2,0,3.7,1.7,3.7,3.7&#10;&#9;&#9;S627.2,264.6,625.1,264.6z M834.3,274.7c-6,0.8-12.9-3.1-15.5-7.6c-1.9-3.2-1.5-6.2,1.1-8.8c1.4-1.4,2.8-2.1,4.2-2.1&#10;&#9;&#9;c0.6,0,1.2,0.1,1.8,0.4c4.6,1.9,8.5,9.8,8.5,17.4C834.3,274.1,834.3,274.4,834.3,274.7z" style="fill: rgb(255, 255, 255);"/>
</g>
<g transform="matrix(1, 0, 0, 1, 0, 218)">
	<path class="st1" d="M268.1,730.2c2,2.1,4.8,3.4,7.9,3.4c5.9,0,10.8-4.8,10.8-10.8c0-0.4,0-1.2,0.5-1.6l39.2-35.6&#10;&#9;&#9;c2.1-1.9,2.3-5.3,0.4-7.4c-1.9-2.1-5.3-2.3-7.4-0.4l-38.3,34.7c-0.7,0.6-1,0.3-1.2,0.3c-1.2-0.5-2.6-0.8-4-0.8&#10;&#9;&#9;c-2.4,0-4.6,0.8-6.4,2.1c-0.3,0.2-0.9,0.7-1.5,0.3l-27-10.9c-3.6-1.5-7.7,0.1-9.3,3.7c-1.5,3.6,0.1,7.7,3.7,9.3l31.6,12.7&#10;&#9;&#9;C267.6,729.5,267.9,730,268.1,730.2z" style="fill-rule: evenodd; clip-rule: evenodd; fill: rgb(255, 255, 255);"/>
	<g>
		<path class="st1" d="M280.4,783.7c-1.3-0.7-2.8-1-4.4-1c-5.6,0-10.2,4.6-10.2,10.2v3.5c-33.1-4.5-59.2-30.7-63.7-63.7h3.5&#10;&#9;&#9;&#9;c5.6,0,10.2-4.6,10.2-10.2c0-5.6-4.6-10.2-10.2-10.2h-3.5c4.5-33.1,30.7-59.2,63.7-63.7v3.5c0,5.6,4.6,10.2,10.2,10.2&#10;&#9;&#9;&#9;c5.6,0,10.2-4.6,10.2-10.2v-3.5c33.1,4.5,59.2,30.7,63.7,63.7h-3.5c-5.6,0-10.2,4.6-10.2,10.2c0,0.1,0,0.2,0,0.3h32.5&#10;&#9;&#9;&#9;c0.3,0,0.6,0,1,0c0-0.1,0-0.2,0-0.4c0-51.7-41.9-93.7-93.7-93.7c-51.7,0-93.7,41.9-93.7,93.7c0,51.7,41.9,93.7,93.7,93.7&#10;&#9;&#9;&#9;c6.7,0,13.3-0.7,19.6-2.1C286.7,806.8,280.8,795.9,280.4,783.7z" style="fill-rule: evenodd; clip-rule: evenodd; fill: rgb(255, 255, 255);"/>
		<path class="st1" d="M303.8,791.7c-0.2,0.1-0.3,0.1-0.5,0.2c0.2,0.3,0.4,0.7,0.6,1C303.9,792.5,303.8,792.1,303.8,791.7z" style="fill-rule: evenodd; clip-rule: evenodd; fill: rgb(255, 255, 255);"/>
	</g>
	<g>
		<path class="st1" d="M368.7,753.7h-22.4c3.1,2.8,5.7,6,7.8,9.6h14.7c2.6,0,4.8-2.1,4.8-4.8C373.5,755.9,371.4,753.7,368.7,753.7z" style="fill-rule: evenodd; clip-rule: evenodd; fill: rgb(255, 255, 255);"/>
		<path class="st1" d="M368.7,765.8h-13.4c1.4,3,2.5,6.2,3.1,9.6h10.2c2.6,0,4.8-2.1,4.8-4.8C373.5,768,371.4,765.8,368.7,765.8z" style="fill-rule: evenodd; clip-rule: evenodd; fill: rgb(255, 255, 255);"/>
		<path class="st1" d="M368.7,741.6h-35.5c-2.1,0-3.8,1.3-4.5,3.1c5.3,1.1,10.2,3.4,14.4,6.5h25.5c2.6,0,4.8-2.2,4.8-4.8&#10;&#9;&#9;&#9;C373.5,743.8,371.4,741.6,368.7,741.6z" style="fill-rule: evenodd; clip-rule: evenodd; fill: rgb(255, 255, 255);"/>
		<path class="st1" d="M333.2,739.1h35.5c2.6,0,4.8-2.1,4.8-4.8c0-2.6-2.1-4.8-4.8-4.8h-35.5c-2.6,0-4.8,2.1-4.8,4.8&#10;&#9;&#9;&#9;C328.4,737,330.6,739.1,333.2,739.1z" style="fill-rule: evenodd; clip-rule: evenodd; fill: rgb(255, 255, 255);"/>
		<path class="st1" d="M368.7,777.9h-9.9c0.2,1.4,0.3,2.9,0.3,4.4c0,1.8-0.2,3.5-0.4,5.2h10c2.6,0,4.8-2.1,4.8-4.8&#10;&#9;&#9;&#9;C373.5,780,371.4,777.9,368.7,777.9z" style="fill-rule: evenodd; clip-rule: evenodd; fill: rgb(255, 255, 255);"/>
		<path class="st1" d="M368.7,790h-10.4c-0.7,3.4-1.9,6.6-3.4,9.6h13.7c2.6,0,4.8-2.1,4.8-4.8C373.5,792.1,371.4,790,368.7,790z" style="fill-rule: evenodd; clip-rule: evenodd; fill: rgb(255, 255, 255);"/>
		<path class="st1" d="M368.7,802.1h-15.1c-2.2,3.6-4.9,6.9-8.2,9.6h23.3c2.6,0,4.8-2.1,4.8-4.8&#10;&#9;&#9;&#9;C373.5,804.2,371.4,802.1,368.7,802.1z" style="fill-rule: evenodd; clip-rule: evenodd; fill: rgb(255, 255, 255);"/>
		<g>
			<path class="st1" d="M321.8,779.7c-4.2-1.3-5.1-1.9-5.1-3.7c0-1.8,2.8-2.2,4.5-2.2c1.6,0,3.5,0.5,4.6,1.2c0.5,0.3,1,0.2,1.3-0.3&#10;&#9;&#9;&#9;&#9;l2.1-3.3c0.3-0.5,0.2-1.1-0.3-1.3c-1.6-1-3.6-1.7-5.7-2v-2c0-0.5-0.4-1-1-1h-3.9c-0.5,0-1,0.4-1,1v2.3c-4.1,1.1-6.6,3.9-6.6,7.6&#10;&#9;&#9;&#9;&#9;c0,6.5,5.5,8.1,9.2,9.3c4,1.2,4.7,1.7,4.7,3.2c0,1.6-2.7,2.1-4.3,2.1c-2,0-4.2-0.9-5.4-2.2c-0.2-0.2-0.4-0.3-0.7-0.3&#10;&#9;&#9;&#9;&#9;c-0.3,0-0.5,0.1-0.7,0.3l-2.8,2.7c-0.4,0.4-0.4,1,0,1.4c1.7,1.7,4,3,6.6,3.6v2.2c0,0.5,0.4,1,1,1h3.9c0.5,0,1-0.4,1-1v-2.1&#10;&#9;&#9;&#9;&#9;c4.5-0.8,7.4-3.8,7.4-7.7C330.8,782.5,325.4,780.8,321.8,779.7z" style="fill-rule: evenodd; clip-rule: evenodd; fill: rgb(255, 255, 255);"/>
			<path class="st1" d="M320.9,748.7c-18.6,0-33.7,15.1-33.7,33.7s15.1,33.7,33.7,33.7c18.6,0,33.7-15.1,33.7-33.7&#10;&#9;&#9;&#9;&#9;S339.5,748.7,320.9,748.7z M320.9,809.2c-14.8,0-26.8-12-26.8-26.8c0-14.8,12-26.8,26.8-26.8c14.8,0,26.8,12,26.8,26.8&#10;&#9;&#9;&#9;&#9;C347.8,797.2,335.7,809.2,320.9,809.2z" style="fill-rule: evenodd; clip-rule: evenodd; fill: rgb(255, 255, 255);"/>
		</g>
	</g>
</g>
<g transform="matrix(1, 0, 0, 1, 0, 214)">
	<path class="st1" d="M692.8,718.6c-1.2,2.6-1.4,5.7-0.2,8.5c2.2,5.5,8.5,8.1,13.9,5.8c0.3-0.1,1.1-0.4,1.7-0.1l47.4,22.7&#10;&#9;&#9;c2.6,1.2,5.7,0.1,6.9-2.5c1.2-2.6,0.1-5.7-2.4-6.9L713.9,724c-0.8-0.4-0.7-0.8-0.7-1c0-1.3-0.2-2.7-0.8-4c-0.9-2.2-2.5-4-4.4-5.1&#10;&#9;&#9;c-0.3-0.2-1-0.5-0.8-1.3l-0.2-28.9c0.1-3.9-3-7.1-6.9-7.1c-3.9-0.1-7.1,3-7.1,6.9l0.2,33.8C693.3,717.8,692.9,718.3,692.8,718.6z" style="fill-rule: evenodd; clip-rule: evenodd; fill: rgb(255, 255, 255);"/>
	<path class="st1" d="M702.5,629.5c-39.8,0-73.8,25.1-87,60.3c4.4,0,8.8,0,13.3,0c-0.1-0.8-0.1-1.5-0.1-2.3&#10;&#9;&#9;c0-12.7,10.3-22.9,22.9-22.9c1.5,0,2.9,0.2,4.3,0.4c10.3-8.3,22.8-14,36.5-15.9v3.5c0,5.6,4.5,10.1,10.1,10.1&#10;&#9;&#9;c5.6,0,10.1-4.5,10.1-10.1v-3.5c32.8,4.5,58.7,30.4,63.2,63.2h-3.5c-5.6,0-10.1,4.5-10.1,10.1c0,5.6,4.5,10.1,10.1,10.1l3.5,0&#10;&#9;&#9;c-4.5,32.8-30.4,58.7-63.2,63.2v-3.5c0-5.6-4.5-10.1-10.1-10.1c-5.6,0-10.1,4.5-10.1,10.1v3.5c-14-1.9-26.7-7.8-37.1-16.4&#10;&#9;&#9;c0.2,7.7,0.2,15.4,0.1,23.1c13.8,8.1,29.9,12.8,47.1,12.8c51.3,0,92.9-41.6,92.9-92.9C795.4,671.1,753.8,629.5,702.5,629.5z" style="fill-rule: evenodd; clip-rule: evenodd; fill: rgb(255, 255, 255);"/>
	<path class="st1" d="M668.4,687.5c0,9.3-7.5,16.8-16.8,16.8c-9.3,0-16.8-7.5-16.8-16.8c0-9.3,7.5-16.8,16.8-16.8&#10;&#9;&#9;C660.8,670.7,668.4,678.2,668.4,687.5z" style="fill-rule: evenodd; clip-rule: evenodd; fill: rgb(255, 255, 255);"/>
	<path class="st1" d="M685,732c-5,0-19.2-0.1-26,0c-2.6,0.1-3.6-2.1-3.6-4.3c-0.1-5.7-0.2-11.4-0.4-17.2c0-0.5,0-0.9-0.1-1.4&#10;&#9;&#9;c-1.1,0.2-2.2,0.3-3.4,0.3c-9.1,0-16.9-5.5-20.2-13.4c-0.3-0.1-0.6-0.1-1-0.1c-9.3-0.1-18.6,0.1-27.9,0.1c-3.4,0-6.1,1.1-8.2,4&#10;&#9;&#9;c-5.4,7.3-11,14.4-16.4,21.6c-3.3,4.4-3,8.6,0.7,11.2c3.5,2.5,7.4,1.6,10.6-2.6c4.4-5.7,8.6-11.5,13.1-17.1c1-1.2,2.9-2.3,4.5-2.4&#10;&#9;&#9;c5.4-0.3,10.8-0.1,16.9-0.1c-2.3,3.1-4.1,5.7-6,8.2c-6.3,8.4-12.8,16.6-18.8,25.3c-1.8,2.6-2.9,6.3-3,9.6c-0.3,8,0,16,0.5,23.9&#10;&#9;&#9;c0.2,3.7-1.3,4.6-4.5,4.6c-9.1,0-18.1,0.2-27.1,0.3c-5.1,0.1-7.8,2.2-8,6.3c-0.2,4.3,3.1,7.4,8,7.5c12.1,0.3,24.2,0.5,36.3,0.6&#10;&#9;&#9;c6.5,0.1,9.5-3,9.5-9.5c0.1-8.1,0-16.2,0-24.8c1.2,0.6,2.3,1,3.2,1.6c6,3.7,11.9,7.5,18,11.1c2.3,1.4,3.3,2.9,3.3,5.7&#10;&#9;&#9;c0,9,0.2,18.1,0.3,27.1c0.1,4.9,2,7,6.5,7.2c4.5,0.2,7.4-2.1,7.5-6.9c0.2-11.4,0.3-22.9-0.2-34.3c-0.1-2.6-2.4-5.7-4.6-7.4&#10;&#9;&#9;c-4.5-3.5-9.6-6.2-14.4-9.3c-1.3-0.8-2.6-1.7-4.2-2.8c5.2-6.8,10.2-13.3,15.6-20.3c1.7,9.9,1.7,9.9,12.2,10.8&#10;&#9;&#9;c1,0.1,6.6,0.4,8.8,0.3c6.6-0.3,13.3-0.3,19.9-0.3C691.2,745.1,688.9,732,685,732z" style="fill-rule: evenodd; clip-rule: evenodd; fill: rgb(255, 255, 255);"/>
</g>
<g transform="matrix(1, 0, 0, 1, 0, 218)">
	<path class="st1" d="M1126.3,715.5c-11.5-3.5-14-5.3-14-10.1c0-4.9,7.8-6.2,12.5-6.2c4.4,0,9.6,1.4,12.7,3.4&#10;&#9;&#9;c1.2,0.8,2.9,0.4,3.7-0.8l5.8-9c0.8-1.2,0.5-2.9-0.8-3.7c-4.3-2.8-10-4.8-15.8-5.6V678c0-1.5-1.2-2.7-2.7-2.7H1117&#10;&#9;&#9;c-1.5,0-2.7,1.2-2.7,2.7v6.4c-11.2,3-18.1,10.9-18.1,21c0,17.8,15.3,22.4,25.4,25.5c10.9,3.3,13.1,4.8,13,8.9&#10;&#9;&#9;c0,4.5-7.5,5.7-11.9,5.7c-5.4,0-11.5-2.4-14.8-5.9c-0.5-0.5-1.2-0.8-1.9-0.8c-0.7,0-1.4,0.2-1.9,0.7l-7.8,7.4&#10;&#9;&#9;c-1.1,1-1.1,2.7-0.1,3.8c4.5,4.8,11.1,8.4,18.1,10v6.1c0,1.5,1.2,2.7,2.7,2.7h10.7c1.5,0,2.7-1.2,2.7-2.7V761&#10;&#9;&#9;c12.4-2.3,20.3-10.4,20.3-21.1C1150.9,723,1136.1,718.5,1126.3,715.5z" style="fill-rule: evenodd; clip-rule: evenodd; fill: rgb(255, 255, 255);"/>
	<path class="st1" d="M1212,776.8h-13.7c11.1-15.3,17.6-34.1,17.6-54.4c0-51.2-41.5-92.8-92.8-92.8s-92.8,41.5-92.8,92.8&#10;&#9;&#9;c0,51.2,41.5,92.8,92.8,92.8c16.7,0,32.3-4.4,45.9-12.1h-0.4c-5.4,0-9.8-4.4-9.8-9.8v-6c-7.7,4.3-16.3,7.2-25.5,8.4v-3.5&#10;&#9;&#9;c0-5.6-4.5-10.1-10.1-10.1c-5.6,0-10.1,4.5-10.1,10.1v3.5c-32.7-4.5-58.6-30.4-63.1-63.1h3.5c5.6,0,10.1-4.5,10.1-10.1&#10;&#9;&#9;c0-5.6-4.5-10.1-10.1-10.1h-3.5c4.5-32.7,30.4-58.6,63.1-63.1v3.5c0,5.6,4.5,10.1,10.1,10.1c5.6,0,10.1-4.5,10.1-10.1v-3.5&#10;&#9;&#9;c32.7,4.5,58.6,30.4,63.1,63.1h-3.5c-5.6,0-10.1,4.5-10.1,10.1c0,5.6,4.5,10.1,10.1,10.1l3.5,0c-1.6,11.5-5.8,22.1-12.1,31.3v-14.8&#10;&#9;&#9;c0-5.4-4.4-9.8-9.8-9.8s-9.8,4.4-9.8,9.8v37.5c0,5.4,4.4,9.8,9.8,9.8h37.5c5.4,0,9.8-4.4,9.8-9.8&#10;&#9;&#9;C1221.8,781.2,1217.4,776.8,1212,776.8z" style="fill-rule: evenodd; clip-rule: evenodd; fill: rgb(255, 255, 255);"/>
</g>
<g transform="matrix(1, 0, 0, 1, 0, 218)">
	<g>
		<path class="st2" d="M308.6,237.9h34.7c2.9,0,5.3-2.4,5.3-5.3c0-2.9-2.4-5.3-5.3-5.3h-26.5C314.5,231.1,311.8,234.7,308.6,237.9z" style="fill: rgb(255, 255, 255);"/>
		<path class="st2" d="M335.7,252.4h-60.4c-0.7,0-1.4,0.1-2,0.1s-1.4,0-2-0.1h-53.5c-4,0-7.3-3.2-7.3-7.3c0-4,3.2-7.3,7.3-7.3h20.2&#10;&#9;&#9;&#9;c-3.2-3.2-5.9-6.8-8.2-10.7h-1.1h-13.3c-9.7,0-17.5,7.8-17.5,17.5v94.7c0,9.7,7.8,17.5,17.5,17.5h115.7c13.8,0,17.5-4.2,17.5-17.5&#10;&#9;&#9;&#9;v-4.7h-42.2c-9.7,0-17.6-7.9-17.6-17.6v-14.1c0-9.7,7.9-17.6,17.6-17.6h42.2v-22.7c0,0,0-5.6-2.4-8.1&#10;&#9;&#9;&#9;C343.7,251.9,335.7,252.4,335.7,252.4z" style="fill: rgb(255, 255, 255);"/>
	</g>
	<path class="st2" d="M351,292.1h-44.5c-6.1,0-11,4.9-11,11v14.1c0,6.1,4.9,11,11,11H351c6.1,0,11-4.9,11-11v-14.1&#10;&#9;&#9;C362,297,357,292.1,351,292.1z M311,317.1c-3.8,0-7-3.1-7-7c0-3.8,3.1-7,7-7c3.8,0,7,3.1,7,7C318,314,314.9,317.1,311,317.1z" style="fill: rgb(255, 255, 255);"/>
	<g>
		<path class="st1" d="M269.5,206c0.9,1,2.2,1.6,3.7,1.6c2.8,0,5.1-2.3,5.1-5.1c0-0.2,0-0.5,0.3-0.8L297,185c1-0.9,1.1-2.5,0.2-3.5&#10;&#9;&#9;&#9;c-0.9-1-2.5-1.1-3.5-0.2l-18,16.3c-0.3,0.3-0.5,0.2-0.6,0.1c-0.6-0.2-1.2-0.4-1.9-0.4c-1.1,0-2.2,0.4-3,1&#10;&#9;&#9;&#9;c-0.1,0.1-0.4,0.3-0.7,0.1l-12.7-5.1c-1.7-0.7-3.6,0.1-4.4,1.7c-0.7,1.7,0.1,3.6,1.7,4.4l14.9,6&#10;&#9;&#9;&#9;C269.3,205.6,269.5,205.9,269.5,206z" style="fill-rule: evenodd; clip-rule: evenodd; fill: rgb(255, 255, 255);"/>
		<path class="st1" d="M273.2,158.2c-24.3,0-44.1,19.7-44.1,44.1c0,24.3,19.7,44.1,44.1,44.1c24.3,0,44.1-19.7,44.1-44.1&#10;&#9;&#9;&#9;C317.3,178,297.6,158.2,273.2,158.2z M238.5,207.1h1.6c2.7,0,4.8-2.2,4.8-4.8c0-2.7-2.2-4.8-4.8-4.8h-1.6&#10;&#9;&#9;&#9;c2.1-15.6,14.4-27.9,30-30v1.7c0,2.7,2.1,4.8,4.8,4.8c2.7,0,4.8-2.2,4.8-4.8v-1.7c15.6,2.1,27.9,14.4,30,30h-1.7&#10;&#9;&#9;&#9;c-2.7,0-4.8,2.1-4.8,4.8c0,2.7,2.2,4.8,4.8,4.8l1.7,0c-2.1,15.5-14.4,27.8-30,30v-1.6c0-2.7-2.2-4.8-4.8-4.8&#10;&#9;&#9;&#9;c-2.7,0-4.8,2.2-4.8,4.8v1.6C252.9,234.9,240.6,222.6,238.5,207.1z" style="fill-rule: evenodd; clip-rule: evenodd; fill: rgb(255, 255, 255);"/>
	</g>
</g>
<g transform="matrix(1, 0, 0, 1, 0, 218)">
	<path class="st2" d="M1099.9,196.7c-0.8,1.8,0.1,3.9,1.9,4.7l15.9,6.4c0.3,0.1,0.4,0.3,0.5,0.4c1,1.1,2.4,1.7,3.9,1.7&#10;&#9;&#9;c3,0,5.4-2.4,5.4-5.4c0-0.2,0-0.6,0.3-0.8l19.7-17.8c1.1-1,1.2-2.6,0.2-3.7c-1-1.1-2.6-1.2-3.7-0.2l-19.2,17.4&#10;&#9;&#9;c-0.4,0.3-0.5,0.2-0.6,0.1c-0.6-0.3-1.3-0.4-2-0.4c-1.2,0-2.3,0.4-3.2,1.1c-0.1,0.1-0.4,0.3-0.8,0.1l-13.5-5.4&#10;&#9;&#9;C1102.8,194.1,1100.7,194.9,1099.9,196.7z" style="fill: rgb(255, 255, 255);"/>
	<path class="st2" d="M1122.1,251.2c25.9,0,47-21,47-47c0-25.9-21-47-47-47s-47,21-47,47C1075.1,230.2,1096.2,251.2,1122.1,251.2z&#10;&#9;&#9; M1122.1,174c2.8,0,5.1-2.3,5.1-5.1v-1.8c16.6,2.3,29.7,15.4,32,31.9h-1.8c-2.8,0-5.1,2.3-5.1,5.1c0,2.8,2.3,5.1,5.1,5.1l1.8,0&#10;&#9;&#9;c-2.3,16.6-15.4,29.7-32,31.9v-1.7c0-2.8-2.3-5.1-5.1-5.1c-2.8,0-5.1,2.3-5.1,5.1v1.7c-16.6-2.3-29.7-15.4-32-32h1.8&#10;&#9;&#9;c2.8,0,5.1-2.3,5.1-5.1c0-2.8-2.3-5.1-5.1-5.1h-1.8c2.3-16.6,15.4-29.7,32-31.9v1.8C1117,171.7,1119.3,174,1122.1,174z" style="fill: rgb(255, 255, 255);"/>
	<path class="st2" d="M1220.1,267.4l-17.3-28.9c-0.7-1.5-1.5-2.8-2.5-4.1l0,0h0c-4.8-6.5-12.5-10.8-21.2-10.8h-7.8&#10;&#9;&#9;c-5.2,13.2-15.6,23.9-28.7,29.4h32.9c1.1,0,2.1,0.9,2.1,2.1c0,1.1-0.9,2.1-2.1,2.1h-106.6c-1.1,0-2.1-0.9-2.1-2.1&#10;&#9;&#9;c0-1.1,0.9-2.1,2.1-2.1h33c-13.1-5.5-23.5-16.1-28.7-29.4h-7.9c-10.5,0-19.5,6.1-23.7,15l-17.3,28.8c-3.4,4.4-5.4,10-5.4,16v48.3&#10;&#9;&#9;c0,14.5,11.8,26.3,26.3,26.3h154.1c14.5,0,26.3-11.8,26.3-26.3v-48.3C1225.5,277.3,1223.4,271.8,1220.1,267.4z" style="fill: rgb(255, 255, 255);"/>
</g>
</svg>