<?xml version="1.0" encoding="utf-8"?>
<svg id="master-artboard" viewBox="0 0 1400 980" version="1.1" xmlns="http://www.w3.org/2000/svg" x="0px" y="0px" width="1400px" height="980px" enable-background="new 0 0 1400 980">
<g transform="matrix(1, 0, 0, 1, 0, 0)">
		<path d="M1056.752,321.228H912.976c-2.312,0-4.384-1.427-5.202-3.59L868.38,213.907c-0.648-1.71-0.416-3.629,0.623-5.133&#10;&#9;&#9;&#9;c1.04-1.507,2.75-2.405,4.579-2.405h222.563c1.829,0,3.539,0.898,4.579,2.405c1.039,1.503,1.271,3.423,0.623,5.133&#10;&#9;&#9;&#9;l-39.394,103.731C1061.135,319.8,1059.063,321.228,1056.752,321.228z M916.812,310.1h136.104l35.162-92.603h-206.43L916.812,310.1&#10;&#9;&#9;&#9;z" style="fill: rgb(1, 127, 229);"/>
		<path d="M1020.521,321.228H949.21c-2.677,0-4.974-1.905-5.47-4.535l-19.535-103.731c-0.305-1.626,0.13-3.307,1.185-4.579&#10;&#9;&#9;&#9;c1.058-1.275,2.63-2.014,4.285-2.014h110.382c1.655,0,3.224,0.739,4.281,2.014c1.058,1.271,1.492,2.952,1.185,4.579&#10;&#9;&#9;&#9;l-19.535,103.731C1025.49,319.322,1023.194,321.228,1020.521,321.228z M953.821,310.1h62.085l17.438-92.603h-96.96L953.821,310.1z&#10;&#9;&#9;&#9;" style="fill: rgb(1, 127, 229);"/>
		<path d="M1096.146,217.497c-0.641,0-1.293-0.109-1.931-0.344c-2.883-1.068-4.354-4.267-3.289-7.15l9.632-26.045&#10;&#9;&#9;&#9;c0.808-2.184,2.888-3.633,5.217-3.633h64.442c3.075,0,5.563,2.493,5.563,5.564s-2.488,5.564-5.563,5.564h-60.566l-8.288,22.412&#10;&#9;&#9;&#9;C1100.532,216.109,1098.406,217.497,1096.146,217.497z" style="fill: rgb(1, 127, 229);"/>
		<path d="M984.865,321.228c-3.075,0-5.563-2.492-5.563-5.564V211.933c0-3.072,2.488-5.564,5.563-5.564&#10;&#9;&#9;&#9;c3.072,0,5.564,2.492,5.564,5.564v103.731C990.43,318.735,987.938,321.228,984.865,321.228z" style="fill: rgb(1, 127, 229);"/>
		<path d="M1081.138,257.017H888.59c-3.076,0-5.564-2.492-5.564-5.564s2.488-5.564,5.564-5.564h192.548&#10;&#9;&#9;&#9;c3.072,0,5.564,2.493,5.564,5.564S1084.21,257.017,1081.138,257.017z" style="fill: rgb(1, 127, 229);"/>
		<path d="M1068.401,290.561H901.326c-3.072,0-5.564-2.492-5.564-5.564c0-3.071,2.492-5.564,5.564-5.564h167.075&#10;&#9;&#9;&#9;c3.076,0,5.564,2.493,5.564,5.564C1073.966,288.068,1071.478,290.561,1068.401,290.561z" style="fill: rgb(1, 127, 229);"/>
		<path d="M937.879,380.972c-10.309,0-18.694-8.389-18.694-18.699c0-10.306,8.386-18.688,18.694-18.688&#10;&#9;&#9;&#9;c10.31,0,18.695,8.382,18.695,18.688C956.574,372.583,948.188,380.972,937.879,380.972z M937.879,354.713&#10;&#9;&#9;&#9;c-4.173,0-7.566,3.391-7.566,7.56c0,4.173,3.394,7.571,7.566,7.571c4.174,0,7.567-3.398,7.567-7.571&#10;&#9;&#9;&#9;C945.446,358.104,942.053,354.713,937.879,354.713z" style="fill: rgb(1, 127, 229);"/>
		<path d="M1026.926,380.972c-10.307,0-18.692-8.389-18.692-18.699c0-10.306,8.386-18.688,18.692-18.688&#10;&#9;&#9;&#9;c10.309,0,18.694,8.382,18.694,18.688C1045.62,372.583,1037.234,380.972,1026.926,380.972z M1026.926,354.713&#10;&#9;&#9;&#9;c-4.174,0-7.564,3.391-7.564,7.56c0,4.173,3.391,7.571,7.564,7.571c4.173,0,7.566-3.398,7.566-7.571&#10;&#9;&#9;&#9;C1034.492,358.104,1031.099,354.713,1026.926,354.713z" style="fill: rgb(1, 127, 229);"/>
	</g><g transform="matrix(1, 0, 0, 1, 0, 0)">
			<path d="M633.565,335.243c-0.648,0-1.297-0.112-1.92-0.34c-1.384-0.511-2.511-1.547-3.13-2.887l-42.842-92.636&#10;&#9;&#9;&#9;&#9;c-1.29-2.789-0.072-6.096,2.713-7.386l158.081-73.111c1.345-0.616,2.869-0.685,4.257-0.174c1.384,0.511,2.51,1.547,3.13,2.887&#10;&#9;&#9;&#9;&#9;l42.838,92.632c1.29,2.79,0.076,6.097-2.713,7.386l-158.078,73.115C635.163,335.069,634.366,335.243,633.565,335.243z&#10;&#9;&#9;&#9;&#9; M598.109,239.756l38.173,82.536l147.975-68.441l-38.169-82.533L598.109,239.756z" style="fill: rgb(1, 127, 229);"/>
			<path d="M691.205,287.021c-15.627,0-29.961-9.161-36.518-23.336c-9.302-20.122-0.503-44.066,19.615-53.376&#10;&#9;&#9;&#9;&#9;c5.343-2.47,11.016-3.724,16.858-3.724c15.627,0,29.961,9.161,36.518,23.339c4.51,9.751,4.952,20.669,1.246,30.751&#10;&#9;&#9;&#9;&#9;c-3.706,10.081-11.113,18.115-20.861,22.622C702.724,285.768,697.051,287.021,691.205,287.021z M691.161,217.714&#10;&#9;&#9;&#9;&#9;c-4.22,0-8.32,0.909-12.186,2.695c-14.551,6.734-20.916,24.053-14.189,38.604c4.742,10.255,15.113,16.88,26.418,16.88&#10;&#9;&#9;&#9;&#9;c4.22,0,8.32-0.905,12.186-2.695c7.053-3.26,12.41-9.07,15.091-16.362c2.681-7.289,2.358-15.189-0.902-22.238&#10;&#9;&#9;&#9;&#9;C712.838,224.343,702.467,217.714,691.161,217.714z" style="fill: rgb(1, 127, 229);"/>
			<g>
				<path d="M697.382,263.638l-1.888-4.08c-2.385,1.054-5.132,1.432-7.032,1.073l-0.285-3.188c1.862,0.279,4.361,0.113,6.645-0.943&#10;&#9;&#9;&#9;&#9;&#9;c2.897-1.34,4.082-3.918,3.007-6.244c-1.038-2.243-3.271-2.894-6.856-2.723c-4.917,0.292-8.374-0.436-10.016-3.986&#10;&#9;&#9;&#9;&#9;&#9;c-1.566-3.386-0.347-7.069,3.083-9.399l-1.887-4.08l2.57-1.188l1.831,3.957c2.445-1.031,4.42-1.152,5.964-1.024l0.226,3.164&#10;&#9;&#9;&#9;&#9;&#9;c-1.083-0.093-3.19-0.258-5.801,0.95c-3.141,1.453-3.457,3.877-2.683,5.55c0.962,2.08,2.962,2.443,7.21,2.311&#10;&#9;&#9;&#9;&#9;&#9;c4.994-0.229,8.078,0.871,9.758,4.501c1.51,3.265,0.662,7.321-3.238,9.917l1.963,4.244L697.382,263.638z" style="fill: rgb(1, 127, 229);"/>
			</g>
		<path d="M 790.640380859375 258.029541015625 L 790.640380859375 258.029541015625" style="fill: rgb(0, 0, 0); fill-opacity: 1; stroke: rgb(0, 0, 0); stroke-opacity: 1; stroke-width: 0; paint-order: fill;"/></g><path d="M630.939,348.834c-1.224,0-2.42-0.402-3.398-1.156c-1.166-0.902-1.931-2.228-2.119-3.691l-3.474-26.788&#10;&#9;&#9;&#9;c-0.398-3.05,1.753-5.839,4.8-6.234c3.032-0.427,5.839,1.75,6.234,4.8l2.757,21.271l161.682-20.974l-11.696-90.18l-9.535,1.239&#10;&#9;&#9;&#9;c-3.046,0.406-5.839-1.753-6.233-4.799c-0.396-3.046,1.753-5.839,4.8-6.234l15.055-1.956c1.452-0.207,2.938,0.207,4.111,1.108&#10;&#9;&#9;&#9;c1.17,0.902,1.934,2.228,2.122,3.691l13.128,101.217c0.398,3.05-1.753,5.839-4.8,6.234l-172.72,22.404&#10;&#9;&#9;&#9;C631.414,348.819,631.174,348.834,630.939,348.834z" transform="matrix(1, 0, 0, 1, 0, 0)" style="fill: rgb(1, 127, 229);"/><path d="M710.795,321.666c-10.824,0-21.376-4.397-28.983-12.262c-2.137-2.21-2.076-5.731,0.13-7.868&#10;&#9;&#9;&#9;c2.206-2.13,5.73-2.076,7.868,0.13c6.462,6.676,15.457,9.828,24.666,8.636c15.702-2.039,26.772-15.967,25.197-31.71&#10;&#9;&#9;&#9;c-0.305-3.057,1.927-5.785,4.984-6.089c3.035-0.333,5.785,1.927,6.089,4.98c2.177,21.774-13.127,41.038-34.84,43.853&#10;&#9;&#9;&#9;C714.203,321.557,712.494,321.666,710.795,321.666z" transform="matrix(1, 0, 0, 1, 0, 0)" style="fill: rgb(1, 127, 229);"/><path d="M522.847,321.691H353.804c-3.072,0-5.564-2.492-5.564-5.564V190.339c0-3.072,2.492-5.564,5.564-5.564h169.043&#10;&#9;&#9;&#9;c3.072,0,5.564,2.492,5.564,5.564v125.788C528.411,319.199,525.918,321.691,522.847,321.691z M359.368,310.563h157.915v-114.66&#10;&#9;&#9;&#9;H359.368V310.563z" transform="matrix(1, 0, 0, 1, 0, 0)" style="fill: rgb(1, 127, 229);"/><path d="M530.801,342.328H334.413c-3.076,0-5.564-2.492-5.564-5.564V189.926l-57.477-14.833c-2.974-0.768-4.763-3.8-3.995-6.777&#10;&#9;&#9;&#9;c0.768-2.974,3.792-4.76,6.777-3.996l61.649,15.91c2.456,0.634,4.173,2.851,4.173,5.386V331.2h190.824&#10;&#9;&#9;&#9;c3.072,0,5.564,2.492,5.564,5.564S533.873,342.328,530.801,342.328z" transform="matrix(1, 0, 0, 1, 0, 0)" style="fill: rgb(1, 127, 229);"/><path d="M491.824,303.322h-31.435c-3.076,0-5.564-2.492-5.564-5.564v-54.002H443.35c-2.25,0-4.278-1.355-5.141-3.434&#10;&#9;&#9;&#9;c-0.862-2.079-0.384-4.474,1.207-6.064l32.757-32.765c2.086-2.086,5.781-2.086,7.868,0l32.761,32.765&#10;&#9;&#9;&#9;c1.59,1.59,2.068,3.985,1.206,6.064s-2.891,3.434-5.14,3.434h-11.479v54.002C497.388,300.83,494.896,303.322,491.824,303.322z&#10;&#9;&#9;&#9; M465.953,292.194h20.307v-54.002c0-3.072,2.489-5.564,5.564-5.564h3.612l-19.329-19.333l-19.326,19.333h3.608&#10;&#9;&#9;&#9;c3.072,0,5.564,2.492,5.564,5.564V292.194z" transform="matrix(1, 0, 0, 1, 0, 0)" style="fill: rgb(1, 127, 229);"/><path d="M375.958,383.098c-10.193,0-18.488-8.295-18.488-18.489c0-10.197,8.295-18.496,18.488-18.496&#10;&#9;&#9;&#9;c10.197,0,18.493,8.299,18.493,18.496C394.451,374.803,386.155,383.098,375.958,383.098z M375.958,357.242&#10;&#9;&#9;&#9;c-4.057,0-7.36,3.303-7.36,7.368c0,4.057,3.304,7.361,7.36,7.361c4.061,0,7.365-3.304,7.365-7.361&#10;&#9;&#9;&#9;C383.323,360.545,380.019,357.242,375.958,357.242z" transform="matrix(1, 0, 0, 1, 0, 0)" style="fill: rgb(1, 127, 229);"/><path d="M508.868,383.098c-10.197,0-18.492-8.295-18.492-18.489c0-10.197,8.295-18.496,18.492-18.496&#10;&#9;&#9;&#9;c10.193,0,18.489,8.299,18.489,18.496C527.356,374.803,519.061,383.098,508.868,383.098z M508.868,357.242&#10;&#9;&#9;&#9;c-4.061,0-7.364,3.303-7.364,7.368c0,4.057,3.304,7.361,7.364,7.361c4.057,0,7.361-3.304,7.361-7.361&#10;&#9;&#9;&#9;C516.229,360.545,512.925,357.242,508.868,357.242z" transform="matrix(1, 0, 0, 1, 0, 0)" style="fill: rgb(1, 127, 229);"/><path d="M283.413,527.275c-25.523,0-46.287-25.879-46.287-57.692c0-36.123,17.304-57.69,46.287-57.69&#10;&#9;&#9;&#9;c28.117,0,46.287,22.644,46.287,57.69C329.7,501.396,308.937,527.275,283.413,527.275z M283.413,423.021&#10;&#9;&#9;&#9;c-30.591,0-35.159,29.171-35.159,46.563c0,25.678,15.772,46.564,35.159,46.564s35.159-20.887,35.159-46.564&#10;&#9;&#9;&#9;C318.572,447.073,309.335,423.021,283.413,423.021z" transform="matrix(1, 0, 0, 1, 0, 0)" style="fill: rgb(1, 127, 229);"/><path d="M337.514,465.149c-1.923,0-3.55-1.485-3.695-3.434c-2.586-34.569-21.43-55.209-50.406-55.209&#10;&#9;&#9;&#9;c-39.708,0-48.54,33.177-50.268,52.956c-0.177,2.04-1.974,3.572-4.017,3.373c-2.043-0.178-3.554-1.978-3.373-4.017&#10;&#9;&#9;&#9;c3.318-37.959,24.332-59.73,57.658-59.73c32.79,0,54.941,23.785,57.803,62.077c0.156,2.043-1.376,3.822-3.419,3.974&#10;&#9;&#9;&#9;C337.702,465.146,337.608,465.149,337.514,465.149z" transform="matrix(1, 0, 0, 1, 0, 0)" style="fill: rgb(1, 127, 229);"/><path d="M362.722,607.743H203.771c-1.598,0-3.119-0.688-4.173-1.884c-1.058-1.202-1.547-2.797-1.348-4.376&#10;&#9;&#9;&#9;c6.952-55.031,37.195-85.336,85.163-85.336c46.946,0,76.273,29.457,84.808,85.184c0.247,1.608-0.221,3.239-1.279,4.471&#10;&#9;&#9;&#9;C365.884,607.033,364.345,607.743,362.722,607.743z M210.208,596.615h145.914c-8.784-46.026-33.225-69.34-72.709-69.34&#10;&#9;&#9;&#9;C233.239,527.275,215.743,563.607,210.208,596.615z" transform="matrix(1, 0, 0, 1, 0, 0)" style="fill: rgb(1, 127, 229);"/><path d="M310.635,502.853c-7.567,0-14.185-0.702-16.812-1.028c-2.036-0.246-3.481-2.094-3.235-4.13&#10;&#9;&#9;&#9;c0.25-2.028,2.09-3.514,4.133-3.23c14.649,1.782,37.709,1.333,40.658-5.313c3.558-8.038,3.286-18.753,2.873-24.002h-14.116&#10;&#9;&#9;&#9;c-2.05,0-3.709-1.659-3.709-3.709s1.659-3.709,3.709-3.709h17.456c1.84,0,3.402,1.348,3.67,3.166&#10;&#9;&#9;&#9;c0.112,0.743,2.63,18.315-3.097,31.258C338.278,500.926,323.162,502.853,310.635,502.853z" transform="matrix(1, 0, 0, 1, 0, 0)" style="fill: rgb(1, 127, 229);"/><path d="M509.44,554.255c-20.409,0-39.593-7.947-54.021-22.372c-14.432-14.432-22.379-33.616-22.379-54.026&#10;&#9;&#9;&#9;c0-20.405,7.947-39.589,22.379-54.021s33.62-22.379,54.032-22.379c20.402,0,39.586,7.944,54.014,22.368&#10;&#9;&#9;&#9;c29.787,29.791,29.787,78.267,0,108.058C549.033,546.308,529.849,554.255,509.44,554.255z M509.451,412.584&#10;&#9;&#9;&#9;c-17.438,0-33.833,6.789-46.164,19.119c-12.327,12.331-19.119,28.722-19.119,46.157c0,17.429,6.789,33.824,19.119,46.154&#10;&#9;&#9;&#9;c12.327,12.323,28.718,19.112,46.153,19.112s33.83-6.789,46.157-19.112c25.447-25.45,25.447-66.867,0-92.322&#10;&#9;&#9;&#9;C543.27,419.369,526.882,412.584,509.451,412.584z" transform="matrix(1, 0, 0, 1, 0, 0)" style="fill: rgb(1, 127, 229);"/><path d="M509.437,534.867c-15.225,0-29.541-5.926-40.31-16.699c-22.224-22.227-22.224-58.395,0-80.625&#10;&#9;&#9;&#9;c10.773-10.77,25.088-16.699,40.317-16.699c15.232,0,29.544,5.93,40.31,16.699c22.227,22.23,22.227,58.398-0.004,80.625&#10;&#9;&#9;&#9;C538.984,528.941,524.668,534.867,509.437,534.867z M509.444,431.972c-12.255,0-23.778,4.771-32.446,13.439&#10;&#9;&#9;&#9;c-17.888,17.891-17.888,47-0.004,64.89c8.668,8.664,20.188,13.438,32.442,13.438c12.258,0,23.781-4.774,32.446-13.438&#10;&#9;&#9;&#9;c17.891-17.89,17.891-46.999,0.003-64.89C533.221,436.742,521.702,431.972,509.444,431.972z" transform="matrix(1, 0, 0, 1, 0, 0)" style="fill: rgb(1, 127, 229);"/><path d="M609.806,603.52c-1.423,0-2.847-0.543-3.934-1.63l-45.794-45.787c-1.043-1.044-1.63-2.456-1.63-3.935&#10;&#9;&#9;&#9;c0-1.471,0.587-2.891,1.63-3.934l19.746-19.742c2.173-2.174,5.694-2.174,7.868,0l45.794,45.795c1.043,1.043,1.63,2.463,1.63,3.934&#10;&#9;&#9;&#9;c0,1.478-0.587,2.891-1.63,3.934L613.74,601.89C612.653,602.977,611.229,603.52,609.806,603.52z M571.879,552.168l37.926,37.92&#10;&#9;&#9;&#9;l11.875-11.867l-37.923-37.927L571.879,552.168z" transform="matrix(1, 0, 0, 1, 0, 0)" style="fill: rgb(1, 127, 229);"/><path d="M573.879,547.865c-1.424,0-2.847-0.544-3.934-1.631l-14.348-14.352c-2.173-2.174-2.173-5.694,0-7.868&#10;&#9;&#9;&#9;c2.173-2.173,5.698-2.173,7.872,0l14.348,14.353c2.17,2.173,2.17,5.694-0.003,7.867&#10;&#9;&#9;&#9;C576.726,547.321,575.303,547.865,573.879,547.865z" transform="matrix(1, 0, 0, 1, 0, 0)" style="fill: rgb(1, 127, 229);"/><path d="M829.117,551.813h-30.302c-3.071,0-5.563-2.492-5.563-5.564v-10.056c-2.062-0.725-4.076-1.558-6.028-2.484l-7.107,7.1&#10;&#9;&#9;&#9;c-2.173,2.173-5.694,2.173-7.867,0l-21.423-21.416c-2.174-2.173-2.174-5.694-0.004-7.867l7.11-7.115&#10;&#9;&#9;&#9;c-0.931-1.948-1.76-3.963-2.488-6.027h-10.063c-3.072,0-5.564-2.492-5.564-5.565V462.52c0-3.072,2.492-5.564,5.564-5.564h10.07&#10;&#9;&#9;&#9;c0.724-2.057,1.554-4.068,2.48-6.02l-7.106-7.111c-2.174-2.173-2.174-5.694-0.004-7.868l21.423-21.43&#10;&#9;&#9;&#9;c2.083-2.087,5.777-2.09,7.868,0l7.114,7.11c1.952-0.923,3.963-1.753,6.024-2.481v-10.07c0-3.072,2.492-5.564,5.563-5.564h30.302&#10;&#9;&#9;&#9;c3.071,0,5.563,2.492,5.563,5.564v10.074c2.062,0.725,4.071,1.554,6.024,2.481l7.11-7.114c2.087-2.087,5.781-2.087,7.872,0&#10;&#9;&#9;&#9;l21.423,21.43c2.173,2.174,2.173,5.695,0,7.868l-7.111,7.111c0.928,1.949,1.757,3.959,2.481,6.02h10.07&#10;&#9;&#9;&#9;c3.072,0,5.564,2.492,5.564,5.564v30.298c0,3.073-2.492,5.565-5.564,5.565h-10.066c-0.725,2.058-1.554,4.071-2.485,6.027&#10;&#9;&#9;&#9;l7.111,7.115c2.17,2.173,2.17,5.694-0.004,7.867l-21.423,21.416c-2.174,2.173-5.694,2.173-7.868,0l-7.106-7.1&#10;&#9;&#9;&#9;c-1.957,0.927-3.971,1.76-6.028,2.484v10.056C834.681,549.321,832.188,551.813,829.117,551.813z M804.38,540.686h19.173v-8.571&#10;&#9;&#9;&#9;c0-2.499,1.663-4.687,4.071-5.36c4.014-1.116,7.851-2.703,11.4-4.702c2.173-1.231,4.9-0.862,6.672,0.905l6.054,6.05l13.555-13.548&#10;&#9;&#9;&#9;l-6.053-6.064c-1.768-1.768-2.138-4.499-0.909-6.672c1.999-3.535,3.582-7.368,4.701-11.398c0.671-2.405,2.865-4.071,5.361-4.071&#10;&#9;&#9;&#9;h8.582v-19.169h-8.582c-2.499,0-4.69-1.663-5.361-4.072c-1.123-4.028-2.706-7.86-4.701-11.389&#10;&#9;&#9;&#9;c-1.235-2.177-0.862-4.909,0.905-6.676l6.061-6.057l-13.556-13.559l-6.057,6.06c-1.768,1.771-4.506,2.145-6.68,0.906&#10;&#9;&#9;&#9;c-3.528-2-7.36-3.579-11.385-4.695c-2.413-0.667-4.079-2.861-4.079-5.361v-8.592H804.38v8.582c0,2.496-1.663,4.687-4.064,5.357&#10;&#9;&#9;&#9;c-4.036,1.13-7.875,2.713-11.407,4.706c-2.181,1.231-4.908,0.858-6.669-0.909l-6.057-6.057l-13.555,13.562l6.053,6.057&#10;&#9;&#9;&#9;c1.771,1.768,2.141,4.499,0.909,6.676c-1.999,3.532-3.582,7.364-4.698,11.385c-0.67,2.409-2.861,4.075-5.361,4.075h-8.585v19.169&#10;&#9;&#9;&#9;h8.578c2.499,0,4.69,1.667,5.361,4.071c1.123,4.037,2.706,7.87,4.701,11.391c1.235,2.181,0.866,4.912-0.901,6.68l-6.057,6.064&#10;&#9;&#9;&#9;l13.555,13.548l6.053-6.05c1.765-1.768,4.503-2.137,6.673-0.905c3.532,1.999,7.368,3.579,11.399,4.702&#10;&#9;&#9;&#9;c2.409,0.674,4.072,2.861,4.072,5.36V540.686z" transform="matrix(1, 0, 0, 1, 0, 0)" style="fill: rgb(1, 127, 229);"/><path d="M813.965,501.969c-13.396,0-24.296-10.897-24.296-24.293c0-13.399,10.899-24.299,24.296-24.299&#10;&#9;&#9;&#9;c13.398,0,24.299,10.9,24.299,24.299C838.264,491.071,827.363,501.969,813.965,501.969z M813.965,464.504&#10;&#9;&#9;&#9;c-7.26,0-13.168,5.908-13.168,13.171c0,7.259,5.908,13.167,13.168,13.167c7.263,0,13.171-5.908,13.171-13.167&#10;&#9;&#9;&#9;C827.136,470.413,821.228,464.504,813.965,464.504z" transform="matrix(1, 0, 0, 1, 0, 0)" style="fill: rgb(1, 127, 229);"/><path d="M926.049,601.462c-2.003,0-3.938-1.087-4.934-2.978l-3.21-6.114c-2.198,0.138-4.224,0.079-6.396-0.131l-3.449,5.984&#10;&#9;&#9;&#9;&#9;c-0.735,1.282-1.952,2.217-3.376,2.594c-1.427,0.391-2.945,0.181-4.224-0.551l-23.987-13.823c-2.663-1.536-3.579-4.94-2.043-7.6&#10;&#9;&#9;&#9;&#9;l3.448-5.984c-1.594-2.261-2.981-4.666-4.151-7.201h-6.915c-3.071,0-5.563-2.492-5.563-5.564v-27.689&#10;&#9;&#9;&#9;&#9;c0-3.071,2.492-5.563,5.563-5.563h6.919c1.424-3.072,3.173-5.956,5.234-8.644l-3.221-6.136c-1.427-2.717-0.38-6.086,2.34-7.514&#10;&#9;&#9;&#9;&#9;l24.517-12.868c1.312-0.685,2.833-0.819,4.242-0.388c1.405,0.442,2.583,1.42,3.271,2.729l3.203,6.101&#10;&#9;&#9;&#9;&#9;c2.191-0.131,4.224-0.08,6.407,0.13l3.445-5.97c1.532-2.66,4.934-3.577,7.596-2.045l23.988,13.825&#10;&#9;&#9;&#9;&#9;c1.278,0.739,2.213,1.949,2.597,3.376c0.381,1.427,0.182,2.941-0.554,4.224l-3.445,5.977c1.594,2.261,2.978,4.674,4.147,7.202&#10;&#9;&#9;&#9;&#9;h6.915c3.076,0,5.564,2.492,5.564,5.563v27.689c0,3.072-2.488,5.564-5.564,5.564h-6.918c-1.421,3.064-3.17,5.962-5.234,8.65&#10;&#9;&#9;&#9;&#9;l3.224,6.136c0.688,1.305,0.826,2.833,0.388,4.238c-0.438,1.413-1.42,2.587-2.728,3.275l-24.517,12.866&#10;&#9;&#9;&#9;&#9;C927.802,601.259,926.918,601.462,926.049,601.462z M921.093,580.908c2.047,0,3.956,1.131,4.927,2.978l2.362,4.499l14.663-7.693&#10;&#9;&#9;&#9;&#9;l-2.365-4.507c-1.091-2.071-0.765-4.601,0.812-6.332c3.115-3.419,5.484-7.339,7.053-11.656c0.797-2.203,2.887-3.666,5.23-3.666&#10;&#9;&#9;&#9;&#9;h5.075v-16.562h-5.075c-2.344,0-4.434-1.464-5.23-3.666c-1.424-3.92-3.485-7.498-6.126-10.636&#10;&#9;&#9;&#9;&#9;c-1.51-1.797-1.734-4.34-0.564-6.368l2.521-4.376l-14.345-8.266l-2.531,4.39c-1.167,2.029-3.489,3.115-5.778,2.703&#10;&#9;&#9;&#9;&#9;c-3.804-0.667-6.567-0.775-10.842-0.211c-2.329,0.312-4.586-0.854-5.673-2.927l-2.357-4.491l-14.664,7.693l2.362,4.507&#10;&#9;&#9;&#9;&#9;c1.09,2.071,0.764,4.601-0.815,6.332c-3.104,3.404-5.477,7.331-7.053,11.656c-0.801,2.195-2.887,3.659-5.228,3.659h-5.074v16.562&#10;&#9;&#9;&#9;&#9;h5.074c2.341,0,4.431,1.463,5.228,3.658c1.431,3.935,3.492,7.513,6.129,10.636c1.511,1.797,1.739,4.34,0.568,6.368l-2.524,4.383&#10;&#9;&#9;&#9;&#9;l14.345,8.273l2.536-4.404c1.17-2.021,3.488-3.115,5.781-2.702c3.785,0.666,6.517,0.797,10.845,0.21&#10;&#9;&#9;&#9;&#9;C920.604,580.923,920.851,580.908,921.093,580.908z" transform="matrix(1, 0, 0, 1, 0, 0)" style="fill: rgb(1, 127, 229);"/><path d="M915.612,565.325c-10.516,0-19.075-8.557-19.075-19.076s8.56-19.075,19.075-19.075c10.52,0,19.076,8.556,19.076,19.075&#10;&#9;&#9;&#9;&#9;S926.132,565.325,915.612,565.325z M915.612,538.302c-4.383,0-7.947,3.564-7.947,7.947c0,4.384,3.564,7.948,7.947,7.948&#10;&#9;&#9;&#9;&#9;c4.384,0,7.948-3.564,7.948-7.948C923.561,541.866,919.996,538.302,915.612,538.302z" transform="matrix(1, 0, 0, 1, 0, 0)" style="fill: rgb(1, 127, 229);"/><path d="M1121.046,608.156c-22.803,0-80.743-87.054-80.743-130.589c0-44.523,36.224-80.744,80.743-80.744&#10;&#9;&#9;&#9;c44.526,0,80.747,36.221,80.747,80.744C1201.793,519.06,1146.703,608.156,1121.046,608.156z M1121.046,407.952&#10;&#9;&#9;&#9;c-38.387,0-69.615,31.229-69.615,69.615c0,41.058,56.578,119.461,69.615,119.461c14.103,0,69.619-77.788,69.619-119.461&#10;&#9;&#9;&#9;C1190.665,439.18,1159.437,407.952,1121.046,407.952z" transform="matrix(1, 0, 0, 1, 0, 0)" style="fill: rgb(1, 127, 229);"/><path d="M1121.046,524.544c-25.9,0-46.968-21.075-46.968-46.977c0-25.904,21.067-46.976,46.968-46.976&#10;&#9;&#9;&#9;s46.972,21.072,46.972,46.976C1168.018,503.469,1146.946,524.544,1121.046,524.544z M1121.046,441.72&#10;&#9;&#9;&#9;c-19.764,0-35.84,16.08-35.84,35.847c0,19.765,16.076,35.849,35.84,35.849s35.844-16.084,35.844-35.849&#10;&#9;&#9;&#9;C1156.89,457.799,1140.81,441.72,1121.046,441.72z" transform="matrix(1, 0, 0, 1, 0, 0)" style="fill: rgb(1, 127, 229);"/><path d="M830.088,806.243H633.945c-3.075,0-5.564-2.492-5.564-5.563V665.89c0-3.071,2.489-5.563,5.564-5.563h196.143&#10;&#9;&#9;&#9;c3.075,0,5.563,2.492,5.563,5.563v134.79C835.651,803.751,833.163,806.243,830.088,806.243z M639.51,795.115h185.014V671.454&#10;&#9;&#9;&#9;H639.51V795.115z" transform="matrix(1, 0, 0, 1, 0, 0)" style="fill: rgb(1, 127, 229);"/><path d="M732.019,745.749c-1.181,0-2.365-0.376-3.358-1.13l-98.076-74.295c-1.905-1.442-2.673-3.941-1.913-6.209&#10;&#9;&#9;&#9;s2.883-3.789,5.274-3.789h196.143c2.391,0,4.514,1.521,5.274,3.789s-0.008,4.767-1.913,6.209l-98.069,74.295&#10;&#9;&#9;&#9;C734.388,745.373,733.203,745.749,732.019,745.749z M650.503,671.454l81.515,61.755l81.511-61.755H650.503z" transform="matrix(1, 0, 0, 1, 0, 0)" style="fill: rgb(1, 127, 229);"/><path d="M830.088,806.236H633.945c-2.274,0-4.321-1.384-5.165-3.492c-0.848-2.115-0.319-4.528,1.326-6.1l77.987-74.296&#10;&#9;&#9;&#9;c2.22-2.115,5.741-2.036,7.864,0.195c2.119,2.225,2.035,5.745-0.188,7.861l-67.917,64.703h168.33l-67.913-64.703&#10;&#9;&#9;&#9;c-2.225-2.123-2.312-5.645-0.192-7.868c2.123-2.225,5.641-2.312,7.868-0.188l77.983,74.296c1.645,1.571,2.173,3.984,1.325,6.1&#10;&#9;&#9;&#9;C834.409,804.853,832.362,806.236,830.088,806.236z" transform="matrix(1, 0, 0, 1, 0, 0)" style="fill: rgb(1, 127, 229);"/><path d="M367.71,787.153c-1.435,0-2.851-0.558-3.916-1.608c-1.681-1.666-2.126-4.209-1.112-6.347l9.929-20.901&#10;&#9;&#9;&#9;c-22.923-13.286-37.456-38.18-37.456-64.884c0-41.31,33.605-74.919,74.915-74.919h51.076c41.31,0,74.918,33.609,74.918,74.919&#10;&#9;&#9;&#9;c0,41.303-33.608,74.911-74.918,74.911H410.07c-0.8,0-1.601-0.015-2.398-0.036l-37.524,18.3&#10;&#9;&#9;&#9;C369.369,786.965,368.536,787.153,367.71,787.153z M410.07,629.622c-35.173,0-63.787,28.617-63.787,63.791&#10;&#9;&#9;&#9;c0,24.313,14.152,46.874,36.057,57.458c2.753,1.333,3.916,4.637,2.604,7.397l-5.39,11.353l24.505-11.954&#10;&#9;&#9;&#9;c0.852-0.413,1.808-0.579,2.746-0.558c1.08,0.065,2.17,0.087,3.264,0.087h51.076c35.174,0,63.791-28.617,63.791-63.783&#10;&#9;&#9;&#9;c0-35.174-28.617-63.791-63.791-63.791H410.07z" transform="matrix(1, 0, 0, 1, 0, 0)" style="fill: rgb(1, 127, 229);"/><path d="M543.933,821.632c-0.826,0-1.659-0.182-2.438-0.559l-32.272-15.743c-0.638,0.022-1.275,0.029-1.913,0.029h-44.161&#10;&#9;&#9;&#9;c-26.632,0-50.413-15.909-60.581-40.527c-1.174-2.84,0.178-6.093,3.018-7.267c2.836-1.166,6.093,0.182,7.267,3.021&#10;&#9;&#9;&#9;c8.444,20.438,28.186,33.645,50.297,33.645h44.161c0.927,0,1.851-0.021,2.768-0.079c0.953-0.037,1.902,0.137,2.756,0.558&#10;&#9;&#9;&#9;l19.253,9.389l-3.742-7.867c-1.311-2.761-0.148-6.064,2.604-7.397c18.681-9.034,30.754-28.27,30.754-49.004&#10;&#9;&#9;&#9;c0-22.234-13.305-42.02-33.891-50.395c-2.847-1.159-4.217-4.405-3.058-7.252c1.159-2.848,4.409-4.217,7.252-3.058&#10;&#9;&#9;&#9;c24.799,10.092,40.824,33.928,40.824,60.704c0,23.126-12.461,44.693-32.163,56.401l8.292,17.452&#10;&#9;&#9;&#9;c1.014,2.13,0.569,4.673-1.112,6.34C546.783,821.081,545.367,821.632,543.933,821.632z" transform="matrix(1, 0, 0, 1, 0, 0)" style="fill: rgb(1, 127, 229);"/><path d="M1004.397,820.719c-52.024,0-94.349-42.324-94.349-94.342c0-52.025,42.324-94.35,94.349-94.35&#10;&#9;&#9;&#9;c52.025,0,94.349,42.324,94.349,94.35C1098.746,778.395,1056.423,820.719,1004.397,820.719z M1004.397,643.155&#10;&#9;&#9;&#9;c-45.889,0-83.221,37.333-83.221,83.222c0,45.881,37.332,83.214,83.221,83.214s83.221-37.333,83.221-83.214&#10;&#9;&#9;&#9;C1087.618,680.488,1050.286,643.155,1004.397,643.155z" transform="matrix(1, 0, 0, 1, 0, 0)" style="fill: rgb(1, 127, 229);"/><path d="M1027.624,795.412h-46.45c-3.075,0-5.563-2.492-5.563-5.563v-16.396c0-3.071,2.488-5.563,5.563-5.563h4.452v-39.876&#10;&#9;&#9;&#9;&#9;h-4.452c-3.075,0-5.563-2.492-5.563-5.563v-13.664c0-3.071,2.488-5.563,5.563-5.563h36.431c3.072,0,5.564,2.492,5.564,5.563&#10;&#9;&#9;&#9;&#9;v59.104h4.455c3.072,0,5.564,2.492,5.564,5.563v16.396C1033.188,792.92,1030.696,795.412,1027.624,795.412z M986.738,784.284&#10;&#9;&#9;&#9;&#9;h35.322v-5.267h-4.456c-3.075,0-5.563-2.492-5.563-5.564v-59.103h-25.303v2.535h4.452c3.075,0,5.563,2.492,5.563,5.564v51.003&#10;&#9;&#9;&#9;&#9;c0,3.072-2.488,5.564-5.563,5.564h-4.452V784.284z" transform="matrix(1, 0, 0, 1, 0, 0)" style="fill: rgb(1, 127, 229);"/><path d="M1004.397,701.252c-12.106,0-21.955-9.854-21.955-21.959c0-12.106,9.849-21.959,21.955-21.959&#10;&#9;&#9;&#9;&#9;c12.109,0,21.959,9.853,21.959,21.959C1026.356,691.398,1016.507,701.252,1004.397,701.252z M1004.397,668.462&#10;&#9;&#9;&#9;&#9;c-5.97,0-10.827,4.861-10.827,10.831s4.857,10.831,10.827,10.831c5.974,0,10.831-4.861,10.831-10.831&#10;&#9;&#9;&#9;&#9;S1010.371,668.462,1004.397,668.462z" transform="matrix(1, 0, 0, 1, 0, 0)" style="fill: rgb(1, 127, 229);"/>
<path d="M 160.88668823242188 427.1921081542969" style="fill: rgb(1, 127, 229); fill-opacity: 1; stroke: rgb(0, 0, 0); stroke-opacity: 1; stroke-width: 0; paint-order: fill;"/><path d="M 507.4198913574219 612.7539672851562" style="fill: rgb(1, 127, 229); fill-opacity: 1; stroke: rgb(0, 0, 0); stroke-opacity: 1; stroke-width: 0; paint-order: fill;"/></svg>