<?xml version="1.0" encoding="UTF-8" standalone="no"?>
<svg
   xmlns:dc="http://purl.org/dc/elements/1.1/"
   xmlns:cc="http://creativecommons.org/ns#"
   xmlns:rdf="http://www.w3.org/1999/02/22-rdf-syntax-ns#"
   xmlns:svg="http://www.w3.org/2000/svg"
   xmlns="http://www.w3.org/2000/svg"
   viewBox="0 0 447.98666 313.58667"
   height="313.58667"
   width="447.98666"
   xml:space="preserve"
   id="svg2"
   version="1.1"><metadata
     id="metadata8"><rdf:RDF><cc:Work
         rdf:about=""><dc:format>image/svg+xml</dc:format><dc:type
           rdf:resource="http://purl.org/dc/dcmitype/StillImage" /></cc:Work></rdf:RDF></metadata><defs
     id="defs6" /><g
     transform="matrix(1.3333333,0,0,-1.3333333,0,313.58667)"
     id="g10"><g
       transform="scale(0.1)"
       id="g12"><path
         id="path14"
         style="fill:#0c546f;fill-opacity:1;fill-rule:nonzero;stroke:none"
         d="M 0,0 H 3359.86 V 2351.9 H 0 Z" /><path
         id="path16"
         style="fill:#117599;fill-opacity:1;fill-rule:nonzero;stroke:none"
         d="m 2885.95,1940.82 -102.8,82.99 c -10.82,8.73 -26.79,7.01 -35.56,-3.81 l -280.69,-347.53 -109.86,99.82 c -10.36,9.48 -26.39,8.59 -35.75,-1.63 l -88.88,-97.77 c -9.3,-10.32 -8.59,-26.4 1.75,-35.76 l 234.92,-213.68 c 10.35,-9.27 25.86,-8.08 34.64,2.77 l 82.85,103.24 0.29,0.65 302.9,375.03 c 8.78,10.85 7.01,26.88 -3.81,35.68" /><path
         id="path18"
         style="fill:#117599;fill-opacity:1;fill-rule:nonzero;stroke:none"
         d="m 1493.82,516.719 h -270.15 c -20.62,0 -37.47,-16.848 -37.47,-37.438 v -160.84 c 0,-20.562 16.85,-37.461 37.47,-37.461 h 76.75 v -93.359 l 93.33,93.359 h 100.07 c 20.58,0 37.44,16.899 37.44,37.461 v 160.84 c 0,20.59 -16.86,37.438 -37.44,37.438" /><path
         id="path20"
         style="fill:#117599;fill-opacity:1;fill-rule:nonzero;stroke:none"
         d="m 2481.9,543.738 c -43.88,0 -79.39,35.582 -79.39,79.434 0,43.93 35.51,79.406 79.39,79.406 43.95,0 79.49,-35.476 79.49,-79.406 0,-43.852 -35.54,-79.434 -79.49,-79.434 m 302,123 h -43.83 c -10.16,0 -20.83,8.012 -23.68,17.723 l -25.29,61.289 c -4.79,8.828 -2.91,22.012 4.22,29.219 l 31.01,30.929 c 7.13,7.153 7.13,18.813 0,26 l -35.62,35.614 c -7.19,7.199 -18.94,7.199 -26.08,0 l -30.99,-30.922 c -7.13,-7.211 -20.25,-9.141 -29.16,-4.219 l -61.3,25.231 c -9.69,2.847 -17.62,13.578 -17.62,23.66 v 43.898 c 0,10.16 -8.34,18.36 -18.44,18.36 h -50.33 c -10.16,0 -18.42,-8.2 -18.42,-18.36 v -43.898 c 0,-10.082 -8.01,-20.813 -17.7,-23.66 l -61.29,-25.231 c -8.86,-4.922 -22.03,-2.992 -29.17,4.219 l -30.98,30.922 c -7.13,7.199 -18.83,7.199 -26.02,0 l -35.61,-35.614 c -7.13,-7.187 -7.13,-18.847 0,-26 l 30.98,-30.929 c 7.13,-7.207 8.97,-20.391 4.12,-29.219 l -25.23,-61.289 c -2.85,-9.711 -13.52,-17.723 -23.68,-17.723 h -43.84 c -10.1,0 -18.36,-8.297 -18.36,-18.488 v -50.262 c 0,-10.109 8.26,-18.449 18.36,-18.449 h 43.84 c 10.16,0 20.83,-7.91 23.68,-17.68 l 25.23,-61.289 c 4.9,-8.832 3.01,-21.992 -4.12,-29.101 l -30.98,-30.981 c -7.13,-7.16 -7.13,-18.918 0,-26.066 l 35.61,-35.652 c 7.19,-7.122 18.89,-7.122 26.02,0 l 30.98,31 c 7.14,7.128 20.31,9.101 29.22,4.179 l 61.24,-25.23 c 9.69,-2.86 17.7,-13.5 17.7,-23.641 v -43.859 c 0,-10.117 8.26,-18.457 18.42,-18.457 h 50.33 c 10.1,0 18.44,8.34 18.44,18.457 v 43.859 c 0,10.141 7.93,20.781 17.62,23.641 l 61.3,25.23 c 8.85,4.922 22.03,2.949 29.16,-4.179 l 30.99,-31 c 7.14,-7.161 18.89,-7.161 26.08,0 l 35.62,35.652 c 7.13,7.148 7.13,18.906 0,26.066 l -31.06,30.981 c -7.13,7.109 -8.96,20.312 -4.17,29.101 l 25.29,61.289 c 2.85,9.77 13.52,17.68 23.68,17.68 h 43.83 c 10.09,0 18.43,8.34 18.43,18.449 v 50.262 c 0,10.191 -8.34,18.488 -18.43,18.488" /><path
         id="path22"
         style="fill:#117599;fill-opacity:1;fill-rule:nonzero;stroke:none"
         d="m 419.742,728.871 c 0,-30.801 21.488,-42.832 47.754,-26.793 l 248.996,152.07 c 26.262,15.993 26.262,42.262 0,58.301 L 467.496,1064.54 c -26.266,15.99 -47.754,3.94 -47.754,-26.86 V 728.871" /><path
         id="path24"
         style="fill:#117599;fill-opacity:1;fill-rule:nonzero;stroke:none"
         d="M 927.09,1316.85 H 740.309 c -14.215,0 -25.922,-11.39 -25.922,-25.29 0,-13.99 11.707,-25.39 25.922,-25.39 H 927.09 c 14.277,0 25.973,11.4 25.973,25.39 0,13.9 -11.696,25.29 -25.973,25.29" /><path
         id="path26"
         style="fill:#117599;fill-opacity:1;fill-rule:nonzero;stroke:none"
         d="M 894.688,1231.36 H 772.777 c -14.261,0 -25.968,-11.34 -25.968,-25.29 0,-13.98 11.707,-25.39 25.968,-25.39 h 121.911 c 14.191,0 25.832,11.41 25.832,25.39 0,13.95 -11.641,25.29 -25.832,25.29" /><path
         id="path28"
         style="fill:#117599;fill-opacity:1;fill-rule:nonzero;stroke:none"
         d="M 986.023,1610.86 H 941.23 c 1.336,6.87 2.153,13.91 2.153,21.21 0,60.17 -46.918,109.16 -106.016,113.46 v 44.73 c 83.531,-4.42 150.27,-73.55 150.27,-158.19 0,-7.18 -0.68,-14.22 -1.614,-21.21 z m -152.347,242.38 c -117.68,0 -213.129,-95.45 -213.129,-213.14 0,-67.39 47.644,-126.14 47.644,-126.14 17.907,-22.18 32.661,-63.67 32.661,-92.22 v -16.53 c 0,-28.53 23.328,-51.87 51.875,-51.87 h 157.836 c 28.519,0 51.917,23.34 51.917,51.87 v 13.5 c 0,28.51 15.059,69.72 33.383,91.56 0,0 50.917,60.59 50.917,129.83 0,117.69 -95.385,213.14 -213.104,213.14" /><path
         id="path30"
         style="fill:#ffffff;fill-opacity:1;fill-rule:evenodd;stroke:none"
         d="m 3160.44,1438.39 c 0,-23.7 -19.22,-42.9 -42.91,-42.9 -23.69,0 -42.9,19.2 -42.9,42.9 0,23.7 19.21,42.9 42.9,42.9 23.69,0 42.91,-19.2 42.91,-42.9" /><path
         id="path32"
         style="fill:#ffffff;fill-opacity:1;fill-rule:evenodd;stroke:none"
         d="m 2988.85,2096.83 c 0,-23.7 -19.21,-42.9 -42.9,-42.9 -23.7,0 -42.91,19.2 -42.91,42.9 0,23.69 19.21,42.89 42.91,42.89 23.69,0 42.9,-19.2 42.9,-42.89" /><path
         id="path34"
         style="fill:#ffffff;fill-opacity:1;fill-rule:evenodd;stroke:none"
         d="m 1881.32,352.168 c 0,-23.688 -19.22,-42.887 -42.91,-42.887 -23.69,0 -42.9,19.199 -42.9,42.887 0,23.691 19.21,42.891 42.9,42.891 23.69,0 42.91,-19.2 42.91,-42.891" /><path
         id="path36"
         style="fill:#ffffff;fill-opacity:1;fill-rule:evenodd;stroke:none"
         d="m 914.234,197.41 c 0,-23.691 -19.214,-42.89 -42.906,-42.89 -23.699,0 -42.906,19.199 -42.906,42.89 0,23.692 19.207,42.891 42.906,42.891 23.692,0 42.906,-19.199 42.906,-42.891" /><path
         id="path38"
         style="fill:#ffffff;fill-opacity:1;fill-rule:evenodd;stroke:none"
         d="m 292.523,687.391 c 0,-23.692 -19.21,-42.891 -42.906,-42.891 -23.695,0 -42.902,19.199 -42.902,42.891 0,23.687 19.207,42.89 42.902,42.89 23.696,0 42.906,-19.203 42.906,-42.89" /><path
         id="path40"
         style="fill:#ffffff;fill-opacity:1;fill-rule:evenodd;stroke:none"
         d="m 413.105,2081.36 c 0,-23.7 -19.214,-42.9 -42.906,-42.9 -23.695,0 -42.902,19.2 -42.902,42.9 0,23.69 19.207,42.89 42.902,42.89 23.692,0 42.906,-19.2 42.906,-42.89" /><path
         id="path42"
         style="fill:#ffffff;fill-opacity:1;fill-rule:evenodd;stroke:none"
         d="m 3225.22,1361.15 c 0,-14.6 -11.82,-26.42 -26.41,-26.42 -14.59,0 -26.42,11.82 -26.42,26.42 0,14.59 11.83,26.41 26.42,26.41 14.59,0 26.41,-11.82 26.41,-26.41" /><path
         id="path44"
         style="fill:#ffffff;fill-opacity:1;fill-rule:evenodd;stroke:none"
         d="m 495.688,1949.16 c 0,-14.61 -11.833,-26.42 -26.418,-26.42 -14.59,0 -26.422,11.81 -26.422,26.42 0,14.59 11.832,26.41 26.422,26.41 14.585,0 26.418,-11.82 26.418,-26.41" /><path
         id="path46"
         style="fill:#ffffff;fill-opacity:1;fill-rule:evenodd;stroke:none"
         d="m 211.086,1516.96 c 0,-14.6 -11.832,-26.42 -26.422,-26.42 -14.59,0 -26.426,11.82 -26.426,26.42 0,14.59 11.836,26.42 26.426,26.42 14.59,0 26.422,-11.83 26.422,-26.42" /><path
         id="path48"
         style="fill:#ffffff;fill-opacity:1;fill-rule:evenodd;stroke:none"
         d="m 713.492,1069.91 c 0,-14.59 -11.832,-26.41 -26.422,-26.41 -14.59,0 -26.422,11.82 -26.422,26.41 0,14.59 11.832,26.42 26.422,26.42 14.59,0 26.422,-11.83 26.422,-26.42" /><path
         id="path50"
         style="fill:#ffffff;fill-opacity:1;fill-rule:evenodd;stroke:none"
         d="m 152.484,556.941 c 0,-14.613 -11.832,-26.429 -26.421,-26.429 -14.586,0 -26.4185,11.816 -26.4185,26.429 0,14.59 11.8325,26.411 26.4185,26.411 14.589,0 26.421,-11.821 26.421,-26.411" /><path
         id="path52"
         style="fill:#ffffff;fill-opacity:1;fill-rule:evenodd;stroke:none"
         d="m 646.969,209.359 c 0,-14.609 -11.832,-26.418 -26.422,-26.418 -14.59,0 -26.422,11.809 -26.422,26.418 0,14.59 11.832,26.411 26.422,26.411 14.59,0 26.422,-11.821 26.422,-26.411" /><path
         id="path54"
         style="fill:#ffffff;fill-opacity:1;fill-rule:evenodd;stroke:none"
         d="m 2375.33,187.621 c 0,-14.59 -11.82,-26.402 -26.41,-26.402 -14.6,0 -26.43,11.812 -26.43,26.402 0,14.59 11.83,26.43 26.43,26.43 14.59,0 26.41,-11.84 26.41,-26.43" /><path
         id="path56"
         style="fill:#ffffff;fill-opacity:1;fill-rule:evenodd;stroke:none"
         d="m 3186.87,309.281 c 0,-14.59 -11.84,-26.402 -26.43,-26.402 -14.59,0 -26.43,11.812 -26.43,26.402 0,14.59 11.84,26.43 26.43,26.43 14.59,0 26.43,-11.84 26.43,-26.43" /><path
         id="path58"
         style="fill:#ffffff;fill-opacity:1;fill-rule:evenodd;stroke:none"
         d="m 2929.46,770.711 c 0,-14.609 -11.83,-26.43 -26.42,-26.43 -14.59,0 -26.43,11.821 -26.43,26.43 0,14.59 11.84,26.398 26.43,26.398 14.59,0 26.42,-11.808 26.42,-26.398" /><path
         id="path60"
         style="fill:#ffffff;fill-opacity:1;fill-rule:evenodd;stroke:none"
         d="m 2587.04,2003.12 c 0,-14.6 -11.83,-26.42 -26.42,-26.42 -14.59,0 -26.42,11.82 -26.42,26.42 0,14.59 11.83,26.42 26.42,26.42 14.59,0 26.42,-11.83 26.42,-26.42" /><path
         id="path62"
         style="fill:#ffffff;fill-opacity:1;fill-rule:nonzero;stroke:none"
         d="m 1145.72,1921.34 h 3.86 v -26.69 h 12.79 v -3.24 h -16.65 v 29.93" /><path
         id="path64"
         style="fill:#ffffff;fill-opacity:1;fill-rule:nonzero;stroke:none"
         d="m 1168.3,1902.11 c 0,-4.7 2.71,-8.26 6.52,-8.26 3.73,0 6.53,3.51 6.53,8.35 0,3.64 -1.82,8.26 -6.44,8.26 -4.62,0 -6.61,-4.26 -6.61,-8.35 z m 17.05,0.23 c 0,-7.95 -5.51,-11.42 -10.71,-11.42 -5.81,0 -10.29,4.27 -10.29,11.06 0,7.2 4.7,11.41 10.65,11.41 6.17,0 10.35,-4.48 10.35,-11.05" /><path
         id="path66"
         style="fill:#ffffff;fill-opacity:1;fill-rule:nonzero;stroke:none"
         d="m 1190.24,1906.2 c 0,2.53 -0.04,4.7 -0.18,6.7 h 3.43 l 0.13,-4.22 h 0.17 c 0.98,2.89 3.33,4.71 5.96,4.71 l 1.1,-0.13 v -3.69 l -1.33,0.14 c -2.75,0 -4.71,-2.09 -5.24,-5.02 l -0.17,-1.82 v -11.46 h -3.87 v 14.79" /><path
         id="path68"
         style="fill:#ffffff;fill-opacity:1;fill-rule:nonzero;stroke:none"
         d="m 1217.93,1904.24 c 0.05,2.49 -1.02,6.35 -5.42,6.35 -3.95,0 -5.68,-3.64 -5.99,-6.35 z m -11.46,-2.79 c 0.1,-5.29 3.47,-7.47 7.38,-7.47 2.8,0 4.48,0.49 5.95,1.12 l 0.66,-2.8 c -1.37,-0.62 -3.73,-1.33 -7.14,-1.33 -6.62,0 -10.57,4.35 -10.57,10.83 0,6.49 3.82,11.59 10.08,11.59 7.01,0 8.88,-6.17 8.88,-10.12 l -0.14,-1.82 h -15.1" /><path
         id="path70"
         style="fill:#ffffff;fill-opacity:1;fill-rule:nonzero;stroke:none"
         d="m 1226.52,1907.09 c 0,2.22 -0.05,4.04 -0.18,5.81 h 3.42 l 0.18,-3.46 h 0.13 c 1.2,2.04 3.2,3.95 6.75,3.95 2.93,0 5.15,-1.77 6.08,-4.31 h 0.09 c 0.67,1.21 1.51,2.13 2.4,2.8 1.28,0.98 2.71,1.51 4.75,1.51 2.84,0 7.06,-1.87 7.06,-9.32 v -12.66 h -3.82 v 12.17 c 0,4.13 -1.51,6.62 -4.66,6.62 -2.22,0 -3.95,-1.65 -4.62,-3.56 l -0.31,-1.95 v -13.28 h -3.82 v 12.88 c 0,3.42 -1.51,5.91 -4.48,5.91 -2.44,0 -4.22,-1.96 -4.84,-3.91 l -0.31,-1.91 v -12.97 h -3.82 v 15.68" /><path
         id="path72"
         style="fill:#ffffff;fill-opacity:1;fill-rule:nonzero;stroke:none"
         d="m 1274.5,1891.41 v 21.49 h 3.9 v -21.49 z m 4.35,27.53 c 0.04,-1.33 -0.93,-2.4 -2.49,-2.4 -1.37,0 -2.35,1.07 -2.35,2.4 0,1.38 1.02,2.44 2.44,2.44 1.47,0 2.4,-1.06 2.4,-2.44" /><path
         id="path74"
         style="fill:#ffffff;fill-opacity:1;fill-rule:nonzero;stroke:none"
         d="m 1288.74,1900.16 0.17,-1.6 c 0.71,-2.71 3.07,-4.58 5.87,-4.58 4.12,0 6.52,3.38 6.52,8.31 0,4.31 -2.26,8 -6.39,8 -2.67,0 -5.15,-1.91 -5.91,-4.84 l -0.26,-1.61 z m -3.87,5.73 c 0,2.75 -0.08,4.97 -0.18,7.01 h 3.51 l 0.18,-3.68 h 0.09 c 1.6,2.62 4.13,4.17 7.64,4.17 5.19,0 9.1,-4.39 9.1,-10.93 0,-7.72 -4.71,-11.54 -9.77,-11.54 -2.84,0 -5.33,1.25 -6.62,3.38 h -0.08 v -11.68 h -3.87 v 23.27" /><path
         id="path76"
         style="fill:#ffffff;fill-opacity:1;fill-rule:nonzero;stroke:none"
         d="m 1309.58,1895.41 c 1.15,-0.76 3.19,-1.56 5.15,-1.56 2.84,0 4.17,1.42 4.17,3.2 0,1.87 -1.11,2.89 -4,3.95 -3.86,1.38 -5.68,3.51 -5.68,6.09 0,3.46 2.8,6.3 7.42,6.3 2.17,0 4.08,-0.62 5.28,-1.33 l -0.98,-2.84 c -0.84,0.53 -2.4,1.24 -4.4,1.24 -2.3,0 -3.59,-1.33 -3.59,-2.93 0,-1.78 1.29,-2.57 4.08,-3.64 3.73,-1.43 5.64,-3.29 5.64,-6.48 0,-3.78 -2.93,-6.44 -8.04,-6.44 -2.35,0 -4.52,0.57 -6.03,1.46 l 0.98,2.98" /><path
         id="path78"
         style="fill:#ffffff;fill-opacity:1;fill-rule:nonzero;stroke:none"
         d="m 1345.65,1897.27 c 0,-2.22 0.05,-4.17 0.18,-5.86 h -3.46 l -0.23,3.51 h -0.08 c -1.02,-1.73 -3.29,-4 -7.11,-4 -3.37,0 -7.41,1.87 -7.41,9.42 v 12.56 h 3.91 V 1901 c 0,-4.08 1.24,-6.84 4.79,-6.84 2.62,0 4.44,1.83 5.15,3.55 l 0.36,2.01 v 13.18 h 3.9 v -15.63" /><path
         id="path80"
         style="fill:#ffffff;fill-opacity:1;fill-rule:nonzero;stroke:none"
         d="m 1352.1,1907.09 c 0,2.22 -0.04,4.04 -0.18,5.81 h 3.43 l 0.17,-3.46 h 0.13 c 1.21,2.04 3.2,3.95 6.76,3.95 2.93,0 5.14,-1.77 6.08,-4.31 h 0.09 c 0.66,1.21 1.51,2.13 2.4,2.8 1.28,0.98 2.7,1.51 4.75,1.51 2.84,0 7.06,-1.87 7.06,-9.32 v -12.66 h -3.82 v 12.17 c 0,4.13 -1.51,6.62 -4.66,6.62 -2.23,0 -3.96,-1.65 -4.62,-3.56 l -0.31,-1.95 v -13.28 h -3.82 v 12.88 c 0,3.42 -1.51,5.91 -4.49,5.91 -2.44,0 -4.21,-1.96 -4.83,-3.91 l -0.32,-1.91 v -12.97 h -3.82 v 15.68" /><path
         id="path82"
         style="fill:#ffffff;fill-opacity:1;fill-rule:nonzero;stroke:none"
         d="m 1414.73,1904.16 -0.18,1.64 c -0.58,2.49 -2.7,4.53 -5.63,4.53 -4.05,0 -6.44,-3.56 -6.44,-8.31 0,-4.35 2.12,-7.94 6.34,-7.94 2.63,0 5.02,1.72 5.73,4.65 l 0.18,1.7 z m 3.91,18.78 v -25.98 c 0,-1.91 0.04,-4.08 0.17,-5.55 h -3.5 l -0.18,3.73 h -0.09 c -1.2,-2.39 -3.82,-4.22 -7.33,-4.22 -5.19,0 -9.18,4.4 -9.18,10.93 -0.05,7.15 4.39,11.54 9.63,11.54 3.29,0 5.51,-1.55 6.48,-3.29 h 0.09 v 12.84 h 3.91" /><path
         id="path84"
         style="fill:#ffffff;fill-opacity:1;fill-rule:nonzero;stroke:none"
         d="m 1427.49,1902.11 c 0,-4.7 2.71,-8.26 6.52,-8.26 3.73,0 6.53,3.51 6.53,8.35 0,3.64 -1.82,8.26 -6.44,8.26 -4.62,0 -6.61,-4.26 -6.61,-8.35 z m 17.05,0.23 c 0,-7.95 -5.51,-11.42 -10.71,-11.42 -5.81,0 -10.29,4.27 -10.29,11.06 0,7.2 4.7,11.41 10.65,11.41 6.17,0 10.35,-4.48 10.35,-11.05" /><path
         id="path86"
         style="fill:#ffffff;fill-opacity:1;fill-rule:nonzero;stroke:none"
         d="m 1449.43,1922.94 h 3.91 v -31.53 h -3.91 v 31.53" /><path
         id="path88"
         style="fill:#ffffff;fill-opacity:1;fill-rule:nonzero;stroke:none"
         d="m 1462.29,1902.11 c 0,-4.7 2.71,-8.26 6.53,-8.26 3.73,0 6.53,3.51 6.53,8.35 0,3.64 -1.82,8.26 -6.44,8.26 -4.62,0 -6.62,-4.26 -6.62,-8.35 z m 17.06,0.23 c 0,-7.95 -5.51,-11.42 -10.71,-11.42 -5.81,0 -10.3,4.27 -10.3,11.06 0,7.2 4.71,11.41 10.66,11.41 6.17,0 10.35,-4.48 10.35,-11.05" /><path
         id="path90"
         style="fill:#ffffff;fill-opacity:1;fill-rule:nonzero;stroke:none"
         d="m 1484.24,1906.2 c 0,2.53 -0.04,4.7 -0.18,6.7 h 3.43 l 0.13,-4.22 h 0.17 c 0.98,2.89 3.33,4.71 5.96,4.71 l 1.1,-0.13 v -3.69 l -1.33,0.14 c -2.75,0 -4.7,-2.09 -5.24,-5.02 l -0.17,-1.82 v -11.46 h -3.87 v 14.79" /><path
         id="path92"
         style="fill:#ffffff;fill-opacity:1;fill-rule:nonzero;stroke:none"
         d="m 1509.2,1895.41 c 1.16,-0.76 3.2,-1.56 5.16,-1.56 2.84,0 4.17,1.42 4.17,3.2 0,1.87 -1.11,2.89 -4,3.95 -3.86,1.38 -5.68,3.51 -5.68,6.09 0,3.46 2.8,6.3 7.41,6.3 2.18,0 4.09,-0.62 5.29,-1.33 l -0.98,-2.84 c -0.84,0.53 -2.4,1.24 -4.4,1.24 -2.3,0 -3.59,-1.33 -3.59,-2.93 0,-1.78 1.29,-2.57 4.08,-3.64 3.73,-1.43 5.64,-3.29 5.64,-6.48 0,-3.78 -2.93,-6.44 -8.04,-6.44 -2.35,0 -4.52,0.57 -6.03,1.46 l 0.97,2.98" /><path
         id="path94"
         style="fill:#ffffff;fill-opacity:1;fill-rule:nonzero;stroke:none"
         d="m 1527.3,1891.41 v 21.49 h 3.91 v -21.49 z m 4.35,27.53 c 0.04,-1.33 -0.93,-2.4 -2.48,-2.4 -1.38,0 -2.36,1.07 -2.36,2.4 0,1.38 1.02,2.44 2.44,2.44 1.47,0 2.4,-1.06 2.4,-2.44" /><path
         id="path96"
         style="fill:#ffffff;fill-opacity:1;fill-rule:nonzero;stroke:none"
         d="m 1542.38,1919.07 v -6.17 h 5.6 v -2.97 h -5.6 v -11.59 c 0,-2.66 0.75,-4.18 2.93,-4.18 1.02,0 1.78,0.14 2.27,0.27 l 0.17,-2.93 c -0.75,-0.31 -1.95,-0.53 -3.46,-0.53 -1.82,0 -3.28,0.57 -4.22,1.64 -1.11,1.16 -1.51,3.07 -1.51,5.59 v 11.73 h -3.33 v 2.97 h 3.33 v 5.15 l 3.82,1.02" /><path
         id="path98"
         style="fill:#ffffff;fill-opacity:1;fill-rule:nonzero;stroke:none"
         d="m 1574.66,1902.38 c -4.26,0.08 -9.1,-0.67 -9.1,-4.84 0,-2.53 1.69,-3.73 3.68,-3.73 2.8,0 4.58,1.78 5.2,3.6 l 0.22,1.24 z m 0.58,-10.97 -0.31,2.71 h -0.14 c -1.2,-1.69 -3.5,-3.2 -6.57,-3.2 -4.35,0 -6.57,3.06 -6.57,6.17 0,5.2 4.62,8.04 12.93,8 v 0.44 c 0,1.78 -0.49,4.97 -4.89,4.97 -2,0 -4.08,-0.62 -5.6,-1.59 l -0.88,2.57 c 1.77,1.16 4.35,1.91 7.05,1.91 6.58,0 8.18,-4.48 8.18,-8.79 v -8.04 c 0,-1.86 0.09,-3.68 0.35,-5.15 h -3.55" /><path
         id="path100"
         style="fill:#ffffff;fill-opacity:1;fill-rule:nonzero;stroke:none"
         d="m 1584.72,1907.09 c 0,2.22 -0.05,4.04 -0.18,5.81 h 3.42 l 0.17,-3.46 h 0.14 c 1.2,2.04 3.19,3.95 6.75,3.95 2.93,0 5.15,-1.77 6.08,-4.31 h 0.09 c 0.67,1.21 1.51,2.13 2.4,2.8 1.28,0.98 2.7,1.51 4.75,1.51 2.84,0 7.06,-1.87 7.06,-9.32 v -12.66 h -3.82 v 12.17 c 0,4.13 -1.51,6.62 -4.66,6.62 -2.22,0 -3.96,-1.65 -4.62,-3.56 l -0.31,-1.95 v -13.28 h -3.82 v 12.88 c 0,3.42 -1.51,5.91 -4.48,5.91 -2.44,0 -4.22,-1.96 -4.84,-3.91 l -0.31,-1.91 v -12.97 h -3.82 v 15.68" /><path
         id="path102"
         style="fill:#ffffff;fill-opacity:1;fill-rule:nonzero;stroke:none"
         d="m 1635.34,1904.24 c 0.04,2.49 -1.03,6.35 -5.42,6.35 -3.95,0 -5.69,-3.64 -5.99,-6.35 z m -11.46,-2.79 c 0.09,-5.29 3.46,-7.47 7.37,-7.47 2.8,0 4.48,0.49 5.95,1.12 l 0.67,-2.8 c -1.38,-0.62 -3.73,-1.33 -7.15,-1.33 -6.62,0 -10.57,4.35 -10.57,10.83 0,6.49 3.82,11.59 10.08,11.59 7.02,0 8.88,-6.17 8.88,-10.12 l -0.14,-1.82 h -15.09" /><path
         id="path104"
         style="fill:#ffffff;fill-opacity:1;fill-rule:nonzero;stroke:none"
         d="m 1648.63,1919.07 v -6.17 h 5.59 v -2.97 h -5.59 v -11.59 c 0,-2.66 0.75,-4.18 2.93,-4.18 1.02,0 1.77,0.14 2.26,0.27 l 0.18,-2.93 c -0.75,-0.31 -1.95,-0.53 -3.46,-0.53 -1.82,0 -3.29,0.57 -4.22,1.64 -1.11,1.16 -1.51,3.07 -1.51,5.59 v 11.73 h -3.33 v 2.97 h 3.33 v 5.15 l 3.82,1.02" /><path
         id="path106"
         style="fill:#ffffff;fill-opacity:1;fill-rule:nonzero;stroke:none"
         d="m 1655.94,1885.95 c 0.97,2.62 2.17,7.37 2.66,10.61 l 4.35,0.45 c -1.02,-3.78 -2.97,-8.71 -4.22,-10.8 l -2.79,-0.26" /><path
         id="path108"
         style="fill:#ffffff;fill-opacity:1;fill-rule:nonzero;stroke:none"
         d="m 1693.96,1892.21 c -1.03,-0.53 -3.3,-1.24 -6.18,-1.24 -6.48,0 -10.7,4.39 -10.7,10.96 0,6.62 4.53,11.41 11.55,11.41 2.31,0 4.35,-0.57 5.41,-1.1 l -0.89,-3.02 c -0.92,0.53 -2.39,1.02 -4.52,1.02 -4.93,0 -7.59,-3.64 -7.59,-8.13 0,-4.97 3.19,-8.03 7.46,-8.03 2.21,0 3.68,0.57 4.79,1.06 l 0.67,-2.93" /><path
         id="path110"
         style="fill:#ffffff;fill-opacity:1;fill-rule:nonzero;stroke:none"
         d="m 1700.64,1902.11 c 0,-4.7 2.71,-8.26 6.53,-8.26 3.73,0 6.52,3.51 6.52,8.35 0,3.64 -1.81,8.26 -6.43,8.26 -4.62,0 -6.62,-4.26 -6.62,-8.35 z m 17.06,0.23 c 0,-7.95 -5.51,-11.42 -10.71,-11.42 -5.82,0 -10.3,4.27 -10.3,11.06 0,7.2 4.71,11.41 10.65,11.41 6.18,0 10.36,-4.48 10.36,-11.05" /><path
         id="path112"
         style="fill:#ffffff;fill-opacity:1;fill-rule:nonzero;stroke:none"
         d="m 1722.59,1907.09 c 0,2.22 -0.05,4.04 -0.19,5.81 h 3.48 l 0.21,-3.55 h 0.09 c 1.07,2.04 3.56,4.04 7.1,4.04 2.99,0 7.6,-1.77 7.6,-9.15 v -12.83 h -3.91 v 12.39 c 0,3.46 -1.29,6.35 -4.97,6.35 -2.58,0 -4.58,-1.82 -5.24,-4 l -0.27,-1.82 v -12.92 h -3.9 v 15.68" /><path
         id="path114"
         style="fill:#ffffff;fill-opacity:1;fill-rule:nonzero;stroke:none"
         d="m 1746.67,1895.41 c 1.15,-0.76 3.19,-1.56 5.15,-1.56 2.85,0 4.18,1.42 4.18,3.2 0,1.87 -1.12,2.89 -4.01,3.95 -3.86,1.38 -5.68,3.51 -5.68,6.09 0,3.46 2.8,6.3 7.42,6.3 2.17,0 4.08,-0.62 5.28,-1.33 l -0.97,-2.84 c -0.85,0.53 -2.4,1.24 -4.41,1.24 -2.3,0 -3.59,-1.33 -3.59,-2.93 0,-1.78 1.29,-2.57 4.08,-3.64 3.73,-1.43 5.65,-3.29 5.65,-6.48 0,-3.78 -2.93,-6.44 -8.04,-6.44 -2.35,0 -4.52,0.57 -6.04,1.46 l 0.98,2.98" /><path
         id="path116"
         style="fill:#ffffff;fill-opacity:1;fill-rule:nonzero;stroke:none"
         d="m 1778.4,1904.24 c 0.04,2.49 -1.03,6.35 -5.42,6.35 -3.96,0 -5.69,-3.64 -5.99,-6.35 z m -11.47,-2.79 c 0.1,-5.29 3.48,-7.47 7.39,-7.47 2.79,0 4.47,0.49 5.94,1.12 l 0.67,-2.8 c -1.38,-0.62 -3.73,-1.33 -7.15,-1.33 -6.61,0 -10.57,4.35 -10.57,10.83 0,6.49 3.82,11.59 10.08,11.59 7.02,0 8.88,-6.17 8.88,-10.12 l -0.14,-1.82 h -15.1" /><path
         id="path118"
         style="fill:#ffffff;fill-opacity:1;fill-rule:nonzero;stroke:none"
         d="m 1802.3,1892.21 c -1.02,-0.53 -3.29,-1.24 -6.17,-1.24 -6.48,0 -10.7,4.39 -10.7,10.96 0,6.62 4.53,11.41 11.54,11.41 2.31,0 4.36,-0.57 5.41,-1.1 l -0.88,-3.02 c -0.93,0.53 -2.4,1.02 -4.53,1.02 -4.92,0 -7.59,-3.64 -7.59,-8.13 0,-4.97 3.2,-8.03 7.46,-8.03 2.22,0 3.69,0.57 4.8,1.06 l 0.66,-2.93" /><path
         id="path120"
         style="fill:#ffffff;fill-opacity:1;fill-rule:nonzero;stroke:none"
         d="m 1812.13,1919.07 v -6.17 h 5.59 v -2.97 h -5.59 v -11.59 c 0,-2.66 0.75,-4.18 2.93,-4.18 1.01,0 1.78,0.14 2.26,0.27 l 0.18,-2.93 c -0.75,-0.31 -1.95,-0.53 -3.46,-0.53 -1.82,0 -3.29,0.57 -4.22,1.64 -1.11,1.16 -1.51,3.07 -1.51,5.59 v 11.73 h -3.33 v 2.97 h 3.33 v 5.15 l 3.82,1.02" /><path
         id="path122"
         style="fill:#ffffff;fill-opacity:1;fill-rule:nonzero;stroke:none"
         d="m 1835.47,1904.24 c 0.04,2.49 -1.03,6.35 -5.42,6.35 -3.96,0 -5.68,-3.64 -5.99,-6.35 z m -11.47,-2.79 c 0.1,-5.29 3.48,-7.47 7.39,-7.47 2.79,0 4.47,0.49 5.94,1.12 l 0.67,-2.8 c -1.38,-0.62 -3.73,-1.33 -7.15,-1.33 -6.61,0 -10.57,4.35 -10.57,10.83 0,6.49 3.82,11.59 10.08,11.59 7.02,0 8.88,-6.17 8.88,-10.12 l -0.14,-1.82 H 1824" /><path
         id="path124"
         style="fill:#ffffff;fill-opacity:1;fill-rule:nonzero;stroke:none"
         d="m 1848.76,1919.07 v -6.17 h 5.6 v -2.97 h -5.6 v -11.59 c 0,-2.66 0.75,-4.18 2.93,-4.18 1.02,0 1.78,0.14 2.27,0.27 l 0.17,-2.93 c -0.75,-0.31 -1.95,-0.53 -3.47,-0.53 -1.81,0 -3.28,0.57 -4.21,1.64 -1.11,1.16 -1.51,3.07 -1.51,5.59 v 11.73 h -3.33 v 2.97 h 3.33 v 5.15 l 3.82,1.02" /><path
         id="path126"
         style="fill:#ffffff;fill-opacity:1;fill-rule:nonzero;stroke:none"
         d="m 1876.72,1897.27 c 0,-2.22 0.04,-4.17 0.17,-5.86 h -3.46 l -0.23,3.51 h -0.08 c -1.03,-1.73 -3.3,-4 -7.1,-4 -3.38,0 -7.43,1.87 -7.43,9.42 v 12.56 h 3.91 V 1901 c 0,-4.08 1.25,-6.84 4.8,-6.84 2.62,0 4.44,1.83 5.15,3.55 l 0.36,2.01 v 13.18 h 3.91 v -15.63" /><path
         id="path128"
         style="fill:#ffffff;fill-opacity:1;fill-rule:nonzero;stroke:none"
         d="m 1883.16,1906.2 c 0,2.53 -0.03,4.7 -0.17,6.7 h 3.42 l 0.13,-4.22 h 0.18 c 0.98,2.89 3.32,4.71 5.95,4.71 l 1.1,-0.13 v -3.69 l -1.33,0.14 c -2.75,0 -4.71,-2.09 -5.23,-5.02 l -0.18,-1.82 v -11.46 h -3.87 v 14.79" /><path
         id="path130"
         style="fill:#ffffff;fill-opacity:1;fill-rule:nonzero;stroke:none"
         d="m 1919.98,1902.38 c -4.26,0.08 -9.1,-0.67 -9.1,-4.84 0,-2.53 1.68,-3.73 3.68,-3.73 2.8,0 4.58,1.78 5.2,3.6 l 0.22,1.24 z m 0.58,-10.97 -0.32,2.71 h -0.12 c -1.2,-1.69 -3.52,-3.2 -6.58,-3.2 -4.35,0 -6.57,3.06 -6.57,6.17 0,5.2 4.61,8.04 12.92,8 v 0.44 c 0,1.78 -0.49,4.97 -4.89,4.97 -1.99,0 -4.08,-0.62 -5.59,-1.59 l -0.88,2.57 c 1.76,1.16 4.34,1.91 7.06,1.91 6.56,0 8.16,-4.48 8.16,-8.79 v -8.04 c 0,-1.86 0.1,-3.68 0.35,-5.15 h -3.54" /><path
         id="path132"
         style="fill:#ffffff;fill-opacity:1;fill-rule:nonzero;stroke:none"
         d="m 1944.69,1904.16 -0.18,1.64 c -0.58,2.49 -2.71,4.53 -5.64,4.53 -4.05,0 -6.44,-3.56 -6.44,-8.31 0,-4.35 2.13,-7.94 6.35,-7.94 2.63,0 5.02,1.72 5.73,4.65 l 0.18,1.7 z m 3.9,18.78 v -25.98 c 0,-1.91 0.04,-4.08 0.18,-5.55 h -3.51 l -0.17,3.73 H 1945 c -1.2,-2.39 -3.83,-4.22 -7.32,-4.22 -5.2,0 -9.2,4.4 -9.2,10.93 -0.04,7.15 4.39,11.54 9.64,11.54 3.29,0 5.5,-1.55 6.48,-3.29 h 0.09 v 12.84 h 3.9" /><path
         id="path134"
         style="fill:#ffffff;fill-opacity:1;fill-rule:nonzero;stroke:none"
         d="m 1955.04,1891.41 v 21.49 h 3.91 v -21.49 z m 4.35,27.53 c 0.04,-1.33 -0.93,-2.4 -2.48,-2.4 -1.38,0 -2.36,1.07 -2.36,2.4 0,1.38 1.03,2.44 2.44,2.44 1.47,0 2.4,-1.06 2.4,-2.44" /><path
         id="path136"
         style="fill:#ffffff;fill-opacity:1;fill-rule:nonzero;stroke:none"
         d="m 1969.28,1900.16 0.17,-1.6 c 0.73,-2.71 3.07,-4.58 5.87,-4.58 4.13,0 6.54,3.38 6.54,8.31 0,4.31 -2.27,8 -6.41,8 -2.66,0 -5.15,-1.91 -5.9,-4.84 l -0.27,-1.61 z m -3.86,5.73 c 0,2.75 -0.09,4.97 -0.19,7.01 h 3.52 l 0.18,-3.68 h 0.08 c 1.61,2.62 4.13,4.17 7.65,4.17 5.2,0 9.1,-4.39 9.1,-10.93 0,-7.72 -4.71,-11.54 -9.77,-11.54 -2.85,0 -5.33,1.25 -6.61,3.38 h -0.1 v -11.68 h -3.86 v 23.27" /><path
         id="path138"
         style="fill:#ffffff;fill-opacity:1;fill-rule:nonzero;stroke:none"
         d="m 1990.65,1891.41 v 21.49 h 3.91 v -21.49 z m 4.35,27.53 c 0.05,-1.33 -0.93,-2.4 -2.48,-2.4 -1.38,0 -2.35,1.07 -2.35,2.4 0,1.38 1.02,2.44 2.44,2.44 1.46,0 2.39,-1.06 2.39,-2.44" /><path
         id="path140"
         style="fill:#ffffff;fill-opacity:1;fill-rule:nonzero;stroke:none"
         d="m 2000.5,1895.41 c 1.15,-0.76 3.19,-1.56 5.14,-1.56 2.86,0 4.18,1.42 4.18,3.2 0,1.87 -1.11,2.89 -4,3.95 -3.86,1.38 -5.68,3.51 -5.68,6.09 0,3.46 2.8,6.3 7.42,6.3 2.17,0 4.08,-0.62 5.28,-1.33 l -0.97,-2.84 c -0.85,0.53 -2.4,1.24 -4.41,1.24 -2.3,0 -3.59,-1.33 -3.59,-2.93 0,-1.78 1.29,-2.57 4.08,-3.64 3.73,-1.43 5.64,-3.29 5.64,-6.48 0,-3.78 -2.93,-6.44 -8.03,-6.44 -2.36,0 -4.52,0.57 -6.04,1.46 l 0.98,2.98" /><path
         id="path142"
         style="fill:#ffffff;fill-opacity:1;fill-rule:nonzero;stroke:none"
         d="m 2033.91,1892.21 c -1.02,-0.53 -3.28,-1.24 -6.18,-1.24 -6.48,0 -10.69,4.39 -10.69,10.96 0,6.62 4.52,11.41 11.54,11.41 2.32,0 4.35,-0.57 5.42,-1.1 l -0.88,-3.02 c -0.93,0.53 -2.41,1.02 -4.54,1.02 -4.93,0 -7.58,-3.64 -7.58,-8.13 0,-4.97 3.19,-8.03 7.46,-8.03 2.2,0 3.67,0.57 4.78,1.06 l 0.67,-2.93" /><path
         id="path144"
         style="fill:#ffffff;fill-opacity:1;fill-rule:nonzero;stroke:none"
         d="m 2038.46,1891.41 v 21.49 h 3.9 v -21.49 z m 4.35,27.53 c 0.04,-1.33 -0.93,-2.4 -2.48,-2.4 -1.38,0 -2.36,1.07 -2.36,2.4 0,1.38 1.02,2.44 2.44,2.44 1.47,0 2.4,-1.06 2.4,-2.44" /><path
         id="path146"
         style="fill:#ffffff;fill-opacity:1;fill-rule:nonzero;stroke:none"
         d="m 2048.84,1907.09 c 0,2.22 -0.05,4.04 -0.19,5.81 h 3.48 l 0.21,-3.55 h 0.09 c 1.07,2.04 3.56,4.04 7.1,4.04 2.99,0 7.6,-1.77 7.6,-9.15 v -12.83 h -3.91 v 12.39 c 0,3.46 -1.29,6.35 -4.97,6.35 -2.58,0 -4.58,-1.82 -5.24,-4 l -0.27,-1.82 v -12.92 h -3.9 v 15.68" /><path
         id="path148"
         style="fill:#ffffff;fill-opacity:1;fill-rule:nonzero;stroke:none"
         d="m 2087.93,1904.42 -0.22,1.78 c -0.72,2.26 -2.63,4.13 -5.46,4.13 -3.73,0 -6.4,-3.16 -6.4,-8.13 0,-4.22 2.13,-7.73 6.35,-7.73 2.39,0 4.58,1.52 5.42,4 l 0.31,2.09 z m 4.04,8.48 c -0.09,-1.55 -0.17,-3.29 -0.17,-5.9 v -12.48 c 0,-4.93 -0.99,-7.95 -3.07,-9.81 -2.09,-1.96 -5.12,-2.58 -7.81,-2.58 -2.58,0 -5.43,0.62 -7.16,1.78 l 0.99,2.97 c 1.41,-0.88 3.63,-1.68 6.29,-1.68 4,0 6.93,2.08 6.93,7.5 v 2.4 h -0.09 c -1.2,-2 -3.5,-3.6 -6.84,-3.6 -5.32,0 -9.15,4.53 -9.15,10.48 0,7.28 4.76,11.41 9.69,11.41 3.73,0 5.76,-1.95 6.7,-3.73 h 0.09 l 0.18,3.24 h 3.42" /><path
         id="path150"
         style="fill:#ffffff;fill-opacity:1;fill-rule:nonzero;stroke:none"
         d="m 2122.86,1904.24 c 0.05,2.49 -1.02,6.35 -5.42,6.35 -3.94,0 -5.68,-3.64 -5.99,-6.35 z m -11.45,-2.79 c 0.08,-5.29 3.45,-7.47 7.36,-7.47 2.8,0 4.49,0.49 5.96,1.12 l 0.66,-2.8 c -1.38,-0.62 -3.73,-1.33 -7.15,-1.33 -6.62,0 -10.56,4.35 -10.56,10.83 0,6.49 3.81,11.59 10.07,11.59 7.02,0 8.89,-6.17 8.89,-10.12 l -0.14,-1.82 h -15.09" /><path
         id="path152"
         style="fill:#ffffff;fill-opacity:1;fill-rule:nonzero;stroke:none"
         d="m 2131.45,1922.94 h 3.9 v -31.53 h -3.9 v 31.53" /><path
         id="path154"
         style="fill:#ffffff;fill-opacity:1;fill-rule:nonzero;stroke:none"
         d="m 2141.91,1891.41 v 21.49 h 3.91 v -21.49 z m 4.35,27.53 c 0.05,-1.33 -0.93,-2.4 -2.49,-2.4 -1.37,0 -2.34,1.07 -2.34,2.4 0,1.38 1.01,2.44 2.44,2.44 1.46,0 2.39,-1.06 2.39,-2.44" /><path
         id="path156"
         style="fill:#ffffff;fill-opacity:1;fill-rule:nonzero;stroke:none"
         d="m 2156.99,1919.07 v -6.17 h 5.6 v -2.97 h -5.6 v -11.59 c 0,-2.66 0.75,-4.18 2.93,-4.18 1.02,0 1.78,0.14 2.27,0.27 l 0.17,-2.93 c -0.75,-0.31 -1.95,-0.53 -3.45,-0.53 -1.83,0 -3.29,0.57 -4.22,1.64 -1.12,1.16 -1.52,3.07 -1.52,5.59 v 11.73 h -3.33 v 2.97 h 3.33 v 5.15 l 3.82,1.02" /><path
         id="path158"
         style="fill:#ffffff;fill-opacity:1;fill-rule:nonzero;stroke:none"
         d="m 2164.3,1885.95 c 0.97,2.62 2.17,7.37 2.66,10.61 l 4.35,0.45 c -1.02,-3.78 -2.97,-8.71 -4.22,-10.8 l -2.79,-0.26" /><path
         id="path160"
         style="fill:#ffffff;fill-opacity:1;fill-rule:nonzero;stroke:none"
         d="m 1145.05,1842.19 c 1.16,-0.75 3.2,-1.55 5.16,-1.55 2.84,0 4.17,1.41 4.17,3.2 0,1.86 -1.11,2.88 -4,3.95 -3.86,1.37 -5.68,3.51 -5.68,6.08 0,3.46 2.8,6.3 7.41,6.3 2.18,0 4.09,-0.62 5.29,-1.33 l -0.98,-2.84 c -0.84,0.54 -2.4,1.24 -4.4,1.24 -2.3,0 -3.59,-1.33 -3.59,-2.93 0,-1.77 1.29,-2.57 4.08,-3.64 3.73,-1.42 5.64,-3.29 5.64,-6.48 0,-3.78 -2.93,-6.44 -8.04,-6.44 -2.35,0 -4.52,0.57 -6.03,1.46 l 0.97,2.98" /><path
         id="path162"
         style="fill:#ffffff;fill-opacity:1;fill-rule:nonzero;stroke:none"
         d="m 1176.78,1851.03 c 0.05,2.48 -1.02,6.35 -5.42,6.35 -3.95,0 -5.68,-3.65 -5.99,-6.35 z m -11.46,-2.8 c 0.1,-5.28 3.47,-7.46 7.38,-7.46 2.79,0 4.48,0.48 5.95,1.11 l 0.66,-2.8 c -1.38,-0.62 -3.73,-1.33 -7.15,-1.33 -6.61,0 -10.56,4.35 -10.56,10.84 0,6.48 3.82,11.58 10.07,11.58 7.02,0 8.89,-6.17 8.89,-10.12 l -0.14,-1.82 h -15.1" /><path
         id="path164"
         style="fill:#ffffff;fill-opacity:1;fill-rule:nonzero;stroke:none"
         d="m 1200.02,1850.94 -0.18,1.64 c -0.58,2.49 -2.71,4.53 -5.64,4.53 -4.04,0 -6.44,-3.56 -6.44,-8.31 0,-4.35 2.13,-7.94 6.35,-7.94 2.62,0 5.02,1.73 5.73,4.66 l 0.18,1.69 z m 3.91,18.78 v -25.97 c 0,-1.91 0.04,-4.09 0.17,-5.55 h -3.5 l -0.18,3.73 h -0.09 c -1.2,-2.4 -3.82,-4.22 -7.33,-4.22 -5.19,0 -9.19,4.39 -9.19,10.92 -0.05,7.15 4.4,11.54 9.64,11.54 3.28,0 5.51,-1.55 6.48,-3.28 h 0.09 v 12.83 h 3.91" /><path
         id="path166"
         style="fill:#ffffff;fill-opacity:1;fill-rule:nonzero;stroke:none"
         d="m 1239.68,1850.94 -0.18,1.64 c -0.58,2.49 -2.71,4.53 -5.64,4.53 -4.04,0 -6.44,-3.56 -6.44,-8.31 0,-4.35 2.13,-7.94 6.35,-7.94 2.62,0 5.02,1.73 5.73,4.66 l 0.18,1.69 z m 3.9,18.78 v -25.97 c 0,-1.91 0.05,-4.09 0.18,-5.55 h -3.51 l -0.17,3.73 h -0.09 c -1.2,-2.4 -3.82,-4.22 -7.33,-4.22 -5.19,0 -9.19,4.39 -9.19,10.92 -0.05,7.15 4.4,11.54 9.64,11.54 3.28,0 5.5,-1.55 6.48,-3.28 h 0.09 v 12.83 h 3.9" /><path
         id="path168"
         style="fill:#ffffff;fill-opacity:1;fill-rule:nonzero;stroke:none"
         d="m 1252.43,1848.9 c 0,-4.71 2.71,-8.26 6.53,-8.26 3.73,0 6.52,3.5 6.52,8.34 0,3.64 -1.81,8.26 -6.43,8.26 -4.62,0 -6.62,-4.26 -6.62,-8.34 z m 17.05,0.22 c 0,-7.95 -5.51,-11.41 -10.7,-11.41 -5.82,0 -10.3,4.26 -10.3,11.05 0,7.19 4.7,11.41 10.66,11.41 6.17,0 10.34,-4.48 10.34,-11.05" /><path
         id="path170"
         style="fill:#ffffff;fill-opacity:1;fill-rule:nonzero;stroke:none"
         d="m 1302.67,1851.03 c 0.04,2.48 -1.03,6.35 -5.42,6.35 -3.95,0 -5.69,-3.65 -6,-6.35 z m -11.46,-2.8 c 0.09,-5.28 3.46,-7.46 7.37,-7.46 2.8,0 4.48,0.48 5.95,1.11 l 0.67,-2.8 c -1.38,-0.62 -3.74,-1.33 -7.15,-1.33 -6.62,0 -10.57,4.35 -10.57,10.84 0,6.48 3.82,11.58 10.08,11.58 7.02,0 8.88,-6.17 8.88,-10.12 l -0.14,-1.82 h -15.09" /><path
         id="path172"
         style="fill:#ffffff;fill-opacity:1;fill-rule:nonzero;stroke:none"
         d="m 1311.25,1838.2 v 21.48 h 3.91 v -21.48 z m 4.35,27.52 c 0.04,-1.33 -0.93,-2.4 -2.48,-2.4 -1.38,0 -2.36,1.07 -2.36,2.4 0,1.38 1.02,2.44 2.44,2.44 1.47,0 2.4,-1.06 2.4,-2.44" /><path
         id="path174"
         style="fill:#ffffff;fill-opacity:1;fill-rule:nonzero;stroke:none"
         d="m 1339.61,1844.05 c 0,-2.21 0.04,-4.17 0.18,-5.85 h -3.47 l -0.22,3.5 h -0.09 c -1.02,-1.73 -3.29,-3.99 -7.1,-3.99 -3.38,0 -7.42,1.86 -7.42,9.41 v 12.56 h 3.91 v -11.89 c 0,-4.09 1.24,-6.84 4.8,-6.84 2.61,0 4.43,1.82 5.15,3.55 l 0.35,2 v 13.18 h 3.91 v -15.63" /><path
         id="path176"
         style="fill:#ffffff;fill-opacity:1;fill-rule:nonzero;stroke:none"
         d="m 1345.53,1842.19 c 1.15,-0.75 3.19,-1.55 5.15,-1.55 2.84,0 4.17,1.41 4.17,3.2 0,1.86 -1.11,2.88 -4,3.95 -3.86,1.37 -5.68,3.51 -5.68,6.08 0,3.46 2.8,6.3 7.42,6.3 2.17,0 4.08,-0.62 5.28,-1.33 l -0.98,-2.84 c -0.84,0.54 -2.39,1.24 -4.39,1.24 -2.31,0 -3.6,-1.33 -3.6,-2.93 0,-1.77 1.29,-2.57 4.08,-3.64 3.73,-1.42 5.64,-3.29 5.64,-6.48 0,-3.78 -2.93,-6.44 -8.03,-6.44 -2.36,0 -4.53,0.57 -6.04,1.46 l 0.98,2.98" /><path
         id="path178"
         style="fill:#ffffff;fill-opacity:1;fill-rule:nonzero;stroke:none"
         d="m 1363.62,1853.87 c 0,2.22 -0.04,4.04 -0.18,5.81 h 3.43 l 0.17,-3.46 h 0.13 c 1.2,2.04 3.2,3.95 6.76,3.95 2.93,0 5.14,-1.77 6.07,-4.31 h 0.1 c 0.66,1.21 1.51,2.14 2.4,2.8 1.28,0.98 2.7,1.51 4.75,1.51 2.84,0 7.06,-1.87 7.06,-9.32 v -12.65 h -3.82 v 12.16 c 0,4.13 -1.52,6.62 -4.66,6.62 -2.23,0 -3.96,-1.65 -4.62,-3.56 l -0.32,-1.95 v -13.27 h -3.81 v 12.87 c 0,3.42 -1.51,5.91 -4.49,5.91 -2.44,0 -4.22,-1.96 -4.84,-3.91 l -0.31,-1.91 v -12.96 h -3.82 v 15.67" /><path
         id="path180"
         style="fill:#ffffff;fill-opacity:1;fill-rule:nonzero;stroke:none"
         d="m 1403.01,1848.9 c 0,-4.71 2.71,-8.26 6.53,-8.26 3.73,0 6.52,3.5 6.52,8.34 0,3.64 -1.82,8.26 -6.44,8.26 -4.62,0 -6.61,-4.26 -6.61,-8.34 z m 17.05,0.22 c 0,-7.95 -5.51,-11.41 -10.7,-11.41 -5.82,0 -10.3,4.26 -10.3,11.05 0,7.19 4.7,11.41 10.65,11.41 6.17,0 10.35,-4.48 10.35,-11.05" /><path
         id="path182"
         style="fill:#ffffff;fill-opacity:1;fill-rule:nonzero;stroke:none"
         d="m 1439.61,1850.94 -0.18,1.64 c -0.58,2.49 -2.71,4.53 -5.64,4.53 -4.04,0 -6.44,-3.56 -6.44,-8.31 0,-4.35 2.13,-7.94 6.35,-7.94 2.62,0 5.02,1.73 5.73,4.66 l 0.18,1.69 z m 3.91,18.78 v -25.97 c 0,-1.91 0.04,-4.09 0.17,-5.55 h -3.5 l -0.18,3.73 h -0.09 c -1.2,-2.4 -3.82,-4.22 -7.33,-4.22 -5.19,0 -9.19,4.39 -9.19,10.92 -0.05,7.15 4.4,11.54 9.64,11.54 3.28,0 5.5,-1.55 6.48,-3.28 h 0.09 v 12.83 h 3.91" /><path
         id="path184"
         style="fill:#ffffff;fill-opacity:1;fill-rule:nonzero;stroke:none"
         d="m 1464.08,1842.19 c 1.15,-0.75 3.2,-1.55 5.15,-1.55 2.85,0 4.17,1.41 4.17,3.2 0,1.86 -1.11,2.88 -3.99,3.95 -3.86,1.37 -5.68,3.51 -5.68,6.08 0,3.46 2.79,6.3 7.41,6.3 2.18,0 4.08,-0.62 5.29,-1.33 l -0.98,-2.84 c -0.85,0.54 -2.4,1.24 -4.4,1.24 -2.3,0 -3.59,-1.33 -3.59,-2.93 0,-1.77 1.29,-2.57 4.08,-3.64 3.73,-1.42 5.64,-3.29 5.64,-6.48 0,-3.78 -2.93,-6.44 -8.04,-6.44 -2.35,0 -4.53,0.57 -6.03,1.46 l 0.97,2.98" /><path
         id="path186"
         style="fill:#ffffff;fill-opacity:1;fill-rule:nonzero;stroke:none"
         d="m 1496.83,1853.87 c 0,2.22 -0.05,4.04 -0.18,5.81 h 3.46 l 0.22,-3.55 h 0.09 c 1.07,2.05 3.55,4.04 7.1,4.04 2.98,0 7.6,-1.77 7.6,-9.14 v -12.83 h -3.91 v 12.38 c 0,3.46 -1.29,6.35 -4.97,6.35 -2.58,0 -4.57,-1.82 -5.24,-4 l -0.27,-1.82 v -12.91 h -3.9 v 15.67" /><path
         id="path188"
         style="fill:#ffffff;fill-opacity:1;fill-rule:nonzero;stroke:none"
         d="m 1523.84,1848.9 c 0,-4.71 2.71,-8.26 6.53,-8.26 3.73,0 6.52,3.5 6.52,8.34 0,3.64 -1.82,8.26 -6.44,8.26 -4.62,0 -6.61,-4.26 -6.61,-8.34 z m 17.05,0.22 c 0,-7.95 -5.51,-11.41 -10.7,-11.41 -5.82,0 -10.3,4.26 -10.3,11.05 0,7.19 4.7,11.41 10.65,11.41 6.17,0 10.35,-4.48 10.35,-11.05" /><path
         id="path190"
         style="fill:#ffffff;fill-opacity:1;fill-rule:nonzero;stroke:none"
         d="m 1545.25,1842.19 c 1.16,-0.75 3.2,-1.55 5.16,-1.55 2.84,0 4.17,1.41 4.17,3.2 0,1.86 -1.11,2.88 -4,3.95 -3.86,1.37 -5.68,3.51 -5.68,6.08 0,3.46 2.8,6.3 7.41,6.3 2.18,0 4.09,-0.62 5.29,-1.33 l -0.98,-2.84 c -0.84,0.54 -2.4,1.24 -4.4,1.24 -2.3,0 -3.59,-1.33 -3.59,-2.93 0,-1.77 1.29,-2.57 4.08,-3.64 3.73,-1.42 5.64,-3.29 5.64,-6.48 0,-3.78 -2.93,-6.44 -8.04,-6.44 -2.35,0 -4.52,0.57 -6.03,1.46 l 0.97,2.98" /><path
         id="path192"
         style="fill:#ffffff;fill-opacity:1;fill-rule:nonzero;stroke:none"
         d="m 1568.06,1865.86 v -6.18 h 5.59 v -2.97 h -5.59 v -11.59 c 0,-2.66 0.75,-4.17 2.93,-4.17 1.02,0 1.77,0.13 2.26,0.26 l 0.18,-2.93 c -0.75,-0.31 -1.96,-0.53 -3.46,-0.53 -1.83,0 -3.29,0.57 -4.22,1.64 -1.11,1.16 -1.51,3.07 -1.51,5.59 v 11.73 h -3.33 v 2.97 h 3.33 v 5.16 l 3.82,1.02" /><path
         id="path194"
         style="fill:#ffffff;fill-opacity:1;fill-rule:nonzero;stroke:none"
         d="m 1578.03,1852.98 c 0,2.53 -0.05,4.71 -0.18,6.7 h 3.42 l 0.13,-4.22 h 0.18 c 0.97,2.9 3.33,4.71 5.95,4.71 l 1.11,-0.13 v -3.69 l -1.34,0.14 c -2.74,0 -4.7,-2.09 -5.23,-5.02 l -0.18,-1.82 v -11.45 h -3.86 v 14.78" /><path
         id="path196"
         style="fill:#ffffff;fill-opacity:1;fill-rule:nonzero;stroke:none"
         d="m 1610.51,1844.05 c 0,-2.21 0.05,-4.17 0.18,-5.85 h -3.46 l -0.23,3.5 h -0.09 c -1.02,-1.73 -3.28,-3.99 -7.1,-3.99 -3.37,0 -7.41,1.86 -7.41,9.41 v 12.56 h 3.9 v -11.89 c 0,-4.09 1.24,-6.84 4.8,-6.84 2.62,0 4.44,1.82 5.15,3.55 l 0.36,2 v 13.18 h 3.9 v -15.63" /><path
         id="path198"
         style="fill:#ffffff;fill-opacity:1;fill-rule:nonzero;stroke:none"
         d="m 1631.62,1850.94 -0.18,1.64 c -0.58,2.49 -2.71,4.53 -5.64,4.53 -4.04,0 -6.44,-3.56 -6.44,-8.31 0,-4.35 2.13,-7.94 6.35,-7.94 2.62,0 5.02,1.73 5.73,4.66 l 0.18,1.69 z m 3.9,18.78 v -25.97 c 0,-1.91 0.05,-4.09 0.18,-5.55 h -3.51 l -0.17,3.73 h -0.1 c -1.19,-2.4 -3.81,-4.22 -7.32,-4.22 -5.2,0 -9.19,4.39 -9.19,10.92 -0.05,7.15 4.39,11.54 9.63,11.54 3.29,0 5.51,-1.55 6.49,-3.28 h 0.09 v 12.83 h 3.9" /><path
         id="path200"
         style="fill:#ffffff;fill-opacity:1;fill-rule:nonzero;stroke:none"
         d="m 1670.26,1851.03 c 0.04,2.48 -1.03,6.35 -5.42,6.35 -3.95,0 -5.68,-3.65 -5.99,-6.35 z m -11.46,-2.8 c 0.09,-5.28 3.47,-7.46 7.37,-7.46 2.8,0 4.48,0.48 5.95,1.11 l 0.67,-2.8 c -1.38,-0.62 -3.73,-1.33 -7.15,-1.33 -6.62,0 -10.57,4.35 -10.57,10.84 0,6.48 3.82,11.58 10.08,11.58 7.02,0 8.88,-6.17 8.88,-10.12 l -0.13,-1.82 h -15.1" /><path
         id="path202"
         style="fill:#ffffff;fill-opacity:1;fill-rule:nonzero;stroke:none"
         d="m 1680.53,1859.68 3.06,-4.61 c 0.8,-1.2 1.47,-2.31 2.18,-3.51 h 0.13 c 0.72,1.29 1.42,2.4 2.14,3.55 l 3.01,4.57 h 4.22 l -7.33,-10.39 7.55,-11.09 h -4.44 l -3.15,4.83 c -0.84,1.25 -1.55,2.44 -2.31,3.73 h -0.09 c -0.71,-1.29 -1.46,-2.44 -2.26,-3.73 l -3.11,-4.83 h -4.3 l 7.63,10.96 -7.28,10.52 h 4.35" /><path
         id="path204"
         style="fill:#ffffff;fill-opacity:1;fill-rule:nonzero;stroke:none"
         d="m 1712.21,1851.03 c 0.05,2.48 -1.02,6.35 -5.41,6.35 -3.96,0 -5.69,-3.65 -6,-6.35 z m -11.46,-2.8 c 0.09,-5.28 3.47,-7.46 7.38,-7.46 2.79,0 4.48,0.48 5.95,1.11 l 0.67,-2.8 c -1.39,-0.62 -3.73,-1.33 -7.15,-1.33 -6.62,0 -10.57,4.35 -10.57,10.84 0,6.48 3.81,11.58 10.08,11.58 7.01,0 8.88,-6.17 8.88,-10.12 l -0.14,-1.82 h -15.1" /><path
         id="path206"
         style="fill:#ffffff;fill-opacity:1;fill-rule:nonzero;stroke:none"
         d="m 1720.8,1852.98 c 0,2.53 -0.05,4.71 -0.18,6.7 h 3.42 l 0.13,-4.22 h 0.18 c 0.97,2.9 3.33,4.71 5.94,4.71 l 1.12,-0.13 v -3.69 l -1.33,0.14 c -2.76,0 -4.71,-2.09 -5.25,-5.02 l -0.17,-1.82 v -11.45 h -3.86 v 14.78" /><path
         id="path208"
         style="fill:#ffffff;fill-opacity:1;fill-rule:nonzero;stroke:none"
         d="m 1750.18,1839 c -1.03,-0.54 -3.3,-1.25 -6.18,-1.25 -6.48,0 -10.7,4.39 -10.7,10.96 0,6.62 4.53,11.42 11.54,11.42 2.31,0 4.36,-0.58 5.41,-1.11 l -0.87,-3.02 c -0.94,0.54 -2.41,1.02 -4.54,1.02 -4.92,0 -7.59,-3.64 -7.59,-8.12 0,-4.98 3.2,-8.04 7.46,-8.04 2.22,0 3.69,0.58 4.8,1.07 l 0.67,-2.93" /><path
         id="path210"
         style="fill:#ffffff;fill-opacity:1;fill-rule:nonzero;stroke:none"
         d="m 1754.73,1838.2 v 21.48 h 3.9 v -21.48 z m 4.34,27.52 c 0.05,-1.33 -0.93,-2.4 -2.49,-2.4 -1.37,0 -2.34,1.07 -2.34,2.4 0,1.38 1.01,2.44 2.44,2.44 1.46,0 2.39,-1.06 2.39,-2.44" /><path
         id="path212"
         style="fill:#ffffff;fill-opacity:1;fill-rule:nonzero;stroke:none"
         d="m 1769.8,1865.86 v -6.18 h 5.6 v -2.97 h -5.6 v -11.59 c 0,-2.66 0.76,-4.17 2.93,-4.17 1.02,0 1.78,0.13 2.27,0.26 l 0.18,-2.93 c -0.76,-0.31 -1.96,-0.53 -3.46,-0.53 -1.83,0 -3.29,0.57 -4.22,1.64 -1.11,1.16 -1.51,3.07 -1.51,5.59 v 11.73 h -3.33 v 2.97 h 3.33 v 5.16 l 3.81,1.02" /><path
         id="path214"
         style="fill:#ffffff;fill-opacity:1;fill-rule:nonzero;stroke:none"
         d="m 1791.09,1849.16 c -4.25,0.09 -9.1,-0.66 -9.1,-4.84 0,-2.53 1.69,-3.73 3.69,-3.73 2.8,0 4.57,1.78 5.2,3.6 l 0.21,1.24 z m 0.59,-10.96 -0.31,2.7 h -0.14 c -1.2,-1.69 -3.51,-3.19 -6.57,-3.19 -4.35,0 -6.57,3.06 -6.57,6.17 0,5.19 4.62,8.03 12.93,7.99 v 0.45 c 0,1.77 -0.49,4.97 -4.9,4.97 -2,0 -4.08,-0.63 -5.59,-1.6 l -0.88,2.57 c 1.77,1.16 4.34,1.91 7.05,1.91 6.57,0 8.17,-4.48 8.17,-8.79 v -8.04 c 0,-1.86 0.09,-3.68 0.35,-5.14 h -3.54" /><path
         id="path216"
         style="fill:#ffffff;fill-opacity:1;fill-rule:nonzero;stroke:none"
         d="m 1805.68,1865.86 v -6.18 h 5.6 v -2.97 h -5.6 v -11.59 c 0,-2.66 0.76,-4.17 2.93,-4.17 1.02,0 1.78,0.13 2.27,0.26 l 0.17,-2.93 c -0.75,-0.31 -1.95,-0.53 -3.45,-0.53 -1.83,0 -3.29,0.57 -4.22,1.64 -1.11,1.16 -1.51,3.07 -1.51,5.59 v 11.73 h -3.33 v 2.97 h 3.33 v 5.16 l 3.81,1.02" /><path
         id="path218"
         style="fill:#ffffff;fill-opacity:1;fill-rule:nonzero;stroke:none"
         d="m 1815.65,1838.2 v 21.48 h 3.91 v -21.48 z m 4.35,27.52 c 0.05,-1.33 -0.93,-2.4 -2.48,-2.4 -1.38,0 -2.35,1.07 -2.35,2.4 0,1.38 1.02,2.44 2.44,2.44 1.46,0 2.39,-1.06 2.39,-2.44" /><path
         id="path220"
         style="fill:#ffffff;fill-opacity:1;fill-rule:nonzero;stroke:none"
         d="m 1828.43,1848.9 c 0,-4.71 2.7,-8.26 6.53,-8.26 3.73,0 6.52,3.5 6.52,8.34 0,3.64 -1.81,8.26 -6.44,8.26 -4.61,0 -6.61,-4.26 -6.61,-8.34 z m 17.05,0.22 c 0,-7.95 -5.51,-11.41 -10.7,-11.41 -5.82,0 -10.31,4.26 -10.31,11.05 0,7.19 4.71,11.41 10.67,11.41 6.17,0 10.34,-4.48 10.34,-11.05" /><path
         id="path222"
         style="fill:#ffffff;fill-opacity:1;fill-rule:nonzero;stroke:none"
         d="m 1850.37,1853.87 c 0,2.22 -0.04,4.04 -0.17,5.81 h 3.46 l 0.23,-3.55 h 0.07 c 1.08,2.05 3.56,4.04 7.11,4.04 2.98,0 7.6,-1.77 7.6,-9.14 v -12.83 h -3.9 v 12.38 c 0,3.46 -1.29,6.35 -4.98,6.35 -2.58,0 -4.58,-1.82 -5.24,-4 l -0.27,-1.82 v -12.91 h -3.91 v 15.67" /><path
         id="path224"
         style="fill:#ffffff;fill-opacity:1;fill-rule:nonzero;stroke:none"
         d="m 1907.62,1844.05 c 0,-2.21 0.05,-4.17 0.17,-5.85 h -3.45 l -0.23,3.5 h -0.09 c -1.01,-1.73 -3.28,-3.99 -7.11,-3.99 -3.37,0 -7.4,1.86 -7.4,9.41 v 12.56 h 3.91 v -11.89 c 0,-4.09 1.23,-6.84 4.78,-6.84 2.62,0 4.45,1.82 5.16,3.55 l 0.35,2 v 13.18 h 3.91 v -15.63" /><path
         id="path226"
         style="fill:#ffffff;fill-opacity:1;fill-rule:nonzero;stroke:none"
         d="m 1914.07,1869.72 h 3.91 v -31.52 h -3.91 v 31.52" /><path
         id="path228"
         style="fill:#ffffff;fill-opacity:1;fill-rule:nonzero;stroke:none"
         d="m 1924.53,1869.72 h 3.91 v -31.52 h -3.91 v 31.52" /><path
         id="path230"
         style="fill:#ffffff;fill-opacity:1;fill-rule:nonzero;stroke:none"
         d="m 1946.33,1849.16 c -4.27,0.09 -9.1,-0.66 -9.1,-4.84 0,-2.53 1.68,-3.73 3.67,-3.73 2.8,0 4.58,1.78 5.19,3.6 l 0.24,1.24 z m 0.56,-10.96 -0.31,2.7 h -0.12 c -1.21,-1.69 -3.51,-3.19 -6.58,-3.19 -4.35,0 -6.57,3.06 -6.57,6.17 0,5.19 4.62,8.03 12.92,7.99 v 0.45 c 0,1.77 -0.49,4.97 -4.88,4.97 -1.99,0 -4.08,-0.63 -5.6,-1.6 l -0.89,2.57 c 1.78,1.16 4.36,1.91 7.06,1.91 6.58,0 8.18,-4.48 8.18,-8.79 v -8.04 c 0,-1.86 0.09,-3.68 0.35,-5.14 h -3.56" /><path
         id="path232"
         style="fill:#ffffff;fill-opacity:1;fill-rule:nonzero;stroke:none"
         d="m 1956.38,1853.87 c 0,2.22 -0.05,4.04 -0.19,5.81 h 3.43 l 0.17,-3.46 h 0.13 c 1.21,2.04 3.21,3.95 6.76,3.95 2.93,0 5.15,-1.77 6.07,-4.31 h 0.1 c 0.67,1.21 1.51,2.14 2.4,2.8 1.28,0.98 2.7,1.51 4.75,1.51 2.84,0 7.06,-1.87 7.06,-9.32 v -12.65 h -3.82 v 12.16 c 0,4.13 -1.51,6.62 -4.67,6.62 -2.21,0 -3.94,-1.65 -4.61,-3.56 l -0.31,-1.95 v -13.27 h -3.83 v 12.87 c 0,3.42 -1.5,5.91 -4.47,5.91 -2.44,0 -4.22,-1.96 -4.84,-3.91 l -0.31,-1.91 v -12.96 h -3.82 v 15.67" /><path
         id="path234"
         style="fill:#ffffff;fill-opacity:1;fill-rule:nonzero;stroke:none"
         d="m 2008.68,1839 c -1.02,-0.54 -3.29,-1.25 -6.17,-1.25 -6.48,0 -10.69,4.39 -10.69,10.96 0,6.62 4.52,11.42 11.54,11.42 2.3,0 4.35,-0.58 5.41,-1.11 l -0.89,-3.02 c -0.93,0.54 -2.39,1.02 -4.52,1.02 -4.93,0 -7.6,-3.64 -7.6,-8.12 0,-4.98 3.2,-8.04 7.46,-8.04 2.22,0 3.68,0.58 4.8,1.07 l 0.66,-2.93" /><path
         id="path236"
         style="fill:#ffffff;fill-opacity:1;fill-rule:nonzero;stroke:none"
         d="m 2015.36,1848.9 c 0,-4.71 2.71,-8.26 6.53,-8.26 3.74,0 6.53,3.5 6.53,8.34 0,3.64 -1.82,8.26 -6.45,8.26 -4.61,0 -6.61,-4.26 -6.61,-8.34 z m 17.05,0.22 c 0,-7.95 -5.51,-11.41 -10.7,-11.41 -5.81,0 -10.3,4.26 -10.3,11.05 0,7.19 4.7,11.41 10.66,11.41 6.17,0 10.34,-4.48 10.34,-11.05" /><path
         id="path238"
         style="fill:#ffffff;fill-opacity:1;fill-rule:nonzero;stroke:none"
         d="m 2051.95,1869.72 h 3.91 v -31.52 h -3.91 v 31.52" /><path
         id="path240"
         style="fill:#ffffff;fill-opacity:1;fill-rule:nonzero;stroke:none"
         d="m 2073.75,1849.16 c -4.27,0.09 -9.1,-0.66 -9.1,-4.84 0,-2.53 1.68,-3.73 3.67,-3.73 2.8,0 4.58,1.78 5.2,3.6 l 0.23,1.24 z m 0.57,-10.96 -0.32,2.7 h -0.12 c -1.2,-1.69 -3.51,-3.19 -6.58,-3.19 -4.35,0 -6.57,3.06 -6.57,6.17 0,5.19 4.62,8.03 12.92,7.99 v 0.45 c 0,1.77 -0.49,4.97 -4.88,4.97 -1.99,0 -4.08,-0.63 -5.6,-1.6 l -0.88,2.57 c 1.77,1.16 4.35,1.91 7.06,1.91 6.57,0 8.17,-4.48 8.17,-8.79 v -8.04 c 0,-1.86 0.09,-3.68 0.35,-5.14 h -3.55" /><path
         id="path242"
         style="fill:#ffffff;fill-opacity:1;fill-rule:nonzero;stroke:none"
         d="m 2087.66,1846.81 0.17,-1.42 c 0.76,-2.71 3.03,-4.57 5.87,-4.57 4.08,0 6.53,3.32 6.53,8.25 0,4.31 -2.22,8 -6.4,8 -2.66,0 -5.15,-1.82 -5.95,-4.8 l -0.22,-1.6 z m -4.05,-8.61 c 0.1,1.46 0.19,3.64 0.19,5.55 v 25.97 h 3.86 v -13.5 h 0.09 c 1.37,2.4 3.86,3.95 7.33,3.95 5.33,0 9.1,-4.44 9.06,-10.97 0,-7.68 -4.84,-11.49 -9.65,-11.49 -3.1,0 -5.58,1.19 -7.19,4.03 h -0.13 l -0.18,-3.54 h -3.38" /><path
         id="path244"
         style="fill:#ffffff;fill-opacity:1;fill-rule:nonzero;stroke:none"
         d="m 2111.43,1848.9 c 0,-4.71 2.71,-8.26 6.53,-8.26 3.73,0 6.52,3.5 6.52,8.34 0,3.64 -1.81,8.26 -6.43,8.26 -4.62,0 -6.62,-4.26 -6.62,-8.34 z m 17.05,0.22 c 0,-7.95 -5.51,-11.41 -10.71,-11.41 -5.81,0 -10.29,4.26 -10.29,11.05 0,7.19 4.71,11.41 10.65,11.41 6.18,0 10.35,-4.48 10.35,-11.05" /><path
         id="path246"
         style="fill:#ffffff;fill-opacity:1;fill-rule:nonzero;stroke:none"
         d="m 2133.38,1852.98 c 0,2.53 -0.04,4.71 -0.18,6.7 h 3.42 l 0.14,-4.22 h 0.17 c 0.98,2.9 3.32,4.71 5.95,4.71 l 1.1,-0.13 v -3.69 l -1.32,0.14 c -2.76,0 -4.71,-2.09 -5.24,-5.02 l -0.17,-1.82 v -11.45 h -3.87 v 14.78" /><path
         id="path248"
         style="fill:#ffffff;fill-opacity:1;fill-rule:nonzero;stroke:none"
         d="m 2148.06,1838.2 v 21.48 h 3.9 v -21.48 z m 4.34,27.52 c 0.05,-1.33 -0.93,-2.4 -2.48,-2.4 -1.38,0 -2.35,1.07 -2.35,2.4 0,1.38 1.02,2.44 2.44,2.44 1.46,0 2.39,-1.06 2.39,-2.44" /><path
         id="path250"
         style="fill:#ffffff;fill-opacity:1;fill-rule:nonzero;stroke:none"
         d="m 2157.9,1842.19 c 1.15,-0.75 3.19,-1.55 5.15,-1.55 2.85,0 4.18,1.41 4.18,3.2 0,1.86 -1.12,2.88 -4.01,3.95 -3.85,1.37 -5.68,3.51 -5.68,6.08 0,3.46 2.8,6.3 7.42,6.3 2.17,0 4.08,-0.62 5.28,-1.33 l -0.97,-2.84 c -0.85,0.54 -2.39,1.24 -4.41,1.24 -2.3,0 -3.59,-1.33 -3.59,-2.93 0,-1.77 1.29,-2.57 4.08,-3.64 3.73,-1.42 5.65,-3.29 5.65,-6.48 0,-3.78 -2.93,-6.44 -8.04,-6.44 -2.35,0 -4.52,0.57 -6.04,1.46 l 0.98,2.98" /><path
         id="path252"
         style="fill:#ffffff;fill-opacity:1;fill-rule:nonzero;stroke:none"
         d="m 1116.11,2062.18 c -2.89,12.93 -3.02,21.75 -3.02,21.75 h -0.7 c 0,0 -0.13,-8.82 -3.16,-21.75 l -10.6,-46.29 c -3.3,-0.59 -9.08,-1.08 -14.59,-1.08 -5.5,0 -10.73,0.49 -13.76,1.08 l -23.53,84.85 c 0,0 3.98,1.08 11.14,1.08 6.89,0 10.46,-1.08 10.46,-1.08 l 13.21,-48.34 c 2.35,-9.44 3.86,-19.34 3.86,-19.34 h 0.55 c 0,0 0.96,9.67 3.16,19.21 l 11.43,48.47 c 0,0 3.99,1.08 12.66,1.08 8.54,0 12.81,-1.08 12.81,-1.08 l 11.27,-48.34 c 2.21,-10.16 2.9,-19.34 2.9,-19.34 h 0.55 c 0,0 1.1,8.7 3.85,19.21 l 13.49,48.47 c 0,0 3.72,1.08 9.91,1.08 6.05,0 10.18,-1.08 10.18,-1.08 l -23.8,-84.85 c 0,0 -4.96,-1.08 -13.49,-1.08 -8.81,0 -14.18,1.08 -14.18,1.08 l -10.6,46.29" /><path
         id="path254"
         style="fill:#ffffff;fill-opacity:1;fill-rule:nonzero;stroke:none"
         d="m 1250.23,2101.82 c 0.69,-1.82 1.37,-4.36 1.37,-7.01 0,-2.9 -0.55,-5.67 -1.37,-7.74 h -38.27 v -21.02 h 31.39 c 0.68,-2.05 1.38,-4.23 1.38,-7.13 0,-3.02 -0.56,-5.32 -1.38,-7.49 h -31.39 v -21.88 h 39.64 c 0.83,-1.93 1.38,-4.59 1.38,-7.25 0,-2.66 -0.41,-5.31 -1.38,-7.49 h -61.66 v 87.01 h 60.29" /><path
         id="path256"
         style="fill:#ffffff;fill-opacity:1;fill-rule:nonzero;stroke:none"
         d="m 1303.54,2028.84 c 8.52,0 12.92,3.86 12.92,11.59 0,8.1 -4.4,11.61 -12.92,11.61 h -14.88 v -23.2 z m -0.7,37.09 c 7.43,0 11.15,4.35 11.15,11 0,6.88 -3.72,11 -11.15,11 h -14.18 v -22 z m 4.41,35.89 c 17.89,0 28.63,-9.18 28.63,-24.28 0,-8.1 -4,-14.15 -10.74,-17.77 8.4,-3.63 13.63,-10.27 13.63,-19.82 0,-16.2 -11.85,-25.14 -30.98,-25.14 h -41.01 v 87.01 h 40.47" /><path
         id="path258"
         style="fill:#ffffff;fill-opacity:1;fill-rule:nonzero;stroke:none"
         d="m 1418.64,2088.17 c -11.28,0 -18.3,-5.8 -18.3,-29.85 0,-23.93 7.02,-29.73 18.3,-29.73 11.43,0 18.31,5.8 18.31,29.73 0,24.05 -6.88,29.85 -18.31,29.85 z m 0,15.1 c 25.33,0 41.57,-13.54 41.57,-44.95 0,-31.42 -15.96,-44.96 -41.57,-44.96 -25.73,0 -41.7,13.54 -41.7,44.96 0,31.05 16.24,44.95 41.7,44.95" /><path
         id="path260"
         style="fill:#ffffff;fill-opacity:1;fill-rule:nonzero;stroke:none"
         d="m 1510.49,2061.34 c 8.12,0 12.8,4.46 12.8,12.69 0,8.34 -4.68,12.68 -12.8,12.68 h -12.94 v -25.37 z m -12.94,-45.45 c 0,0 -3.99,-1.08 -11.01,-1.08 -7.43,0 -11.01,1.08 -11.01,1.08 v 85.93 h 38.12 c 19.96,0 32.35,-10.52 32.35,-27.79 0,-17.17 -12.39,-27.68 -32.35,-27.68 h -16.1 v -30.46" /><path
         id="path262"
         style="fill:#ffffff;fill-opacity:1;fill-rule:nonzero;stroke:none"
         d="m 1623.94,2101.82 c 0,0 1.36,-3.38 1.36,-7.98 0,-4.7 -1.36,-8.21 -1.36,-8.21 h -23.96 v -69.74 c 0,0 -4.4,-1.08 -11.01,-1.08 -7.29,0 -10.87,1.08 -10.87,1.08 v 69.74 h -24.63 c 0,0 -1.38,3.14 -1.38,7.97 0,4.84 1.38,8.22 1.38,8.22 h 70.47" /><path
         id="path264"
         style="fill:#ffffff;fill-opacity:1;fill-rule:nonzero;stroke:none"
         d="m 1637.04,2100.74 c 0,0 4.13,1.08 10.88,1.08 6.87,0 11.14,-1.08 11.14,-1.08 v -84.85 c 0,0 -4.4,-1.08 -11,-1.08 -7.3,0 -11.02,1.08 -11.02,1.08 v 84.85" /><path
         id="path266"
         style="fill:#ffffff;fill-opacity:1;fill-rule:nonzero;stroke:none"
         d="m 1758.73,2101.82 c 5.93,0 12.8,-0.85 14.45,-1.08 v -84.85 c 0,0 -3.71,-1.08 -10.46,-1.08 -6.87,0 -10.73,1.08 -10.73,1.08 v 25.38 c 0,14.15 0.82,31.79 1.79,38.32 h -0.82 c -1.66,-5.2 -7.3,-18.38 -11.98,-28.29 l -8.95,-18.48 c 0,0 -2.75,-0.85 -7.84,-0.85 -5.09,0 -7.3,0.85 -7.3,0.85 -2.89,5.91 -5.91,11.84 -8.67,17.76 -5.22,10.52 -10.87,23.93 -12.38,29.01 h -0.83 c 1.38,-5.69 2.34,-22.36 2.34,-36.38 v -27.32 c 0,0 -3.58,-1.08 -9.77,-1.08 -6.06,0 -9.78,1.08 -9.78,1.08 v 84.85 c 2.35,0.36 7.99,1.08 13.5,1.08 7.57,0 13.07,-1.08 13.07,-1.08 l 10.87,-22.24 c 4.14,-8.58 7.85,-17.29 9.5,-23.33 h 0.69 c 0.82,3.87 2.33,8.47 4.68,13.78 4.81,10.39 10.18,21.27 15.27,31.79 2.34,0.47 7.3,1.08 13.35,1.08" /><path
         id="path268"
         style="fill:#ffffff;fill-opacity:1;fill-rule:nonzero;stroke:none"
         d="m 1791.95,2100.74 c 0,0 4.13,1.08 10.88,1.08 6.88,0 11.14,-1.08 11.14,-1.08 v -84.85 c 0,0 -4.4,-1.08 -11,-1.08 -7.3,0 -11.02,1.08 -11.02,1.08 v 84.85" /><path
         id="path270"
         style="fill:#ffffff;fill-opacity:1;fill-rule:nonzero;stroke:none"
         d="m 1865.33,2103.27 c 17.89,0 28.9,-4.1 28.9,-4.1 0,-5.08 -1.79,-10.64 -5.5,-14.26 0,0 -9.09,2.41 -19.96,2.41 -11.84,0 -17.48,-3.14 -17.48,-9.31 0,-6.64 11.42,-8.21 22.99,-11.84 12.11,-3.87 24.22,-9.9 24.22,-25.74 0,-17.52 -12.25,-27.07 -37.16,-27.07 -20.24,0 -32.9,5.92 -32.9,5.92 0,5.08 2.07,10.88 5.23,14.75 0,0 12.38,-3.75 26.15,-3.75 10.87,0 15.83,3.14 15.83,9.31 0,5.55 -6.2,7.97 -14.18,10.39 -13.76,3.99 -32.48,7.61 -32.48,26.7 0,15.84 11.43,26.59 36.34,26.59" /><path
         id="path272"
         style="fill:#ffffff;fill-opacity:1;fill-rule:nonzero;stroke:none"
         d="m 1946.98,2083.7 c 0,0 -0.96,-6.53 -3.72,-14.15 l -8.11,-21.87 h 24.35 l -7.98,21.87 c -2.89,7.74 -3.99,14.15 -3.99,14.15 z m 0.97,18.12 c 9.08,0 13.9,-1.08 13.9,-1.08 l 31.37,-84.85 c 0,0 -3.84,-1.08 -11.55,-1.08 -7.16,0 -10.61,1.08 -10.61,1.08 l -6.46,17.65 h -34.55 l -6.47,-17.65 c 0,0 -3.99,-1.08 -10.73,-1.08 -6.47,0 -10.18,1.08 -10.18,1.08 l 31.37,84.85 c 0,0 5.24,1.08 13.91,1.08" /><path
         id="path274"
         style="fill:#ffffff;fill-opacity:1;fill-rule:nonzero;stroke:none"
         d="m 2059.75,2101.82 c 0,0 1.36,-3.38 1.36,-7.98 0,-4.7 -1.36,-8.21 -1.36,-8.21 h -23.96 v -69.74 c 0,0 -4.4,-1.08 -11,-1.08 -7.3,0 -10.88,1.08 -10.88,1.08 v 69.74 h -24.63 c 0,0 -1.38,3.14 -1.38,7.97 0,4.84 1.38,8.22 1.38,8.22 h 70.47" /><path
         id="path276"
         style="fill:#ffffff;fill-opacity:1;fill-rule:nonzero;stroke:none"
         d="m 2072.85,2100.74 c 0,0 4.13,1.08 10.88,1.08 6.88,0 11.14,-1.08 11.14,-1.08 v -84.85 c 0,0 -4.4,-1.08 -11,-1.08 -7.3,0 -11.02,1.08 -11.02,1.08 v 84.85" /><path
         id="path278"
         style="fill:#ffffff;fill-opacity:1;fill-rule:nonzero;stroke:none"
         d="m 2151.74,2088.17 c -11.28,0 -18.3,-5.8 -18.3,-29.85 0,-23.93 7.02,-29.73 18.3,-29.73 11.42,0 18.31,5.8 18.31,29.73 0,24.05 -6.89,29.85 -18.31,29.85 z m 0,15.1 c 25.33,0 41.57,-13.54 41.57,-44.95 0,-31.42 -15.97,-44.96 -41.57,-44.96 -25.73,0 -41.7,13.54 -41.7,44.96 0,31.05 16.24,44.95 41.7,44.95" /><path
         id="path280"
         style="fill:#ffffff;fill-opacity:1;fill-rule:nonzero;stroke:none"
         d="m 2235.2,2060 c -5.1,10.28 -8.13,20.31 -8.13,20.31 h -0.68 c 0,0 1.36,-10.03 1.36,-23.08 v -41.34 c 0,0 -3.16,-1.08 -9.76,-1.08 -6.48,0 -9.5,1.08 -9.5,1.08 v 84.85 c 0,0 4.68,1.08 14.04,1.08 9.35,0 13.62,-1.08 13.62,-1.08 l 22.85,-43.75 c 5.09,-10.28 8.54,-21.63 8.54,-21.63 h 0.55 c 0,0 -1.24,11.6 -1.24,24.53 v 40.85 c 0,0 3.58,1.08 9.91,1.08 6.46,0 9.49,-1.08 9.49,-1.08 v -84.85 c 0,0 -4.27,-1.08 -13.76,-1.08 -8.81,0 -13.9,1.08 -13.9,1.08 L 2235.2,2060" /><path
         id="path282"
         style="fill:#dfe3e0;fill-opacity:1;fill-rule:nonzero;stroke:none"
         d="m 2522.8,668.211 c 0,-44.18 -35.82,-80 -80,-80 h -1340 c -44.19,0 -80,35.82 -80,80 v 768.749 c 0,44.18 35.81,80 80,80 h 1340 c 44.18,0 80,-35.82 80,-80 V 668.211" /><path
         id="path284"
         style="fill:#ffffff;fill-opacity:1;fill-rule:nonzero;stroke:none"
         d="m 1063.83,1365.71 c -0.06,-1.31 -0.2,-72.6 -0.2,-73.93 V 703.789 c 0,-44.18 35.82,-80 80,-80 h 1258.33 c 44.18,0 80,35.82 80,80 v 587.991 c 0,1.33 -0.13,72.62 -0.19,73.93 H 1063.83" /><path
         id="path286"
         style="fill:#f56b67;fill-opacity:1;fill-rule:nonzero;stroke:none"
         d="m 1160.49,1441.02 c 0,-18.22 -14.78,-33 -33.01,-33 -18.23,0 -33,14.78 -33,33 0,18.23 14.77,33.01 33,33.01 18.23,0 33.01,-14.78 33.01,-33.01" /><path
         id="path288"
         style="fill:#f7de14;fill-opacity:1;fill-rule:nonzero;stroke:none"
         d="m 1259.61,1441.02 c 0,-18.22 -14.79,-33 -33.01,-33 -18.23,0 -33.01,14.78 -33.01,33 0,18.23 14.78,33.01 33.01,33.01 18.22,0 33.01,-14.78 33.01,-33.01" /><path
         id="path290"
         style="fill:#9ad8d6;fill-opacity:1;fill-rule:nonzero;stroke:none"
         d="m 1358.73,1441.02 c 0,-18.22 -14.78,-33 -33.01,-33 -18.23,0 -33.01,14.78 -33.01,33 0,18.23 14.78,33.01 33.01,33.01 18.23,0 33.01,-14.78 33.01,-33.01" /><path
         id="path292"
         style="fill:#ffffff;fill-opacity:1;fill-rule:nonzero;stroke:none"
         d="m 2432.8,1421.81 c 0,-5.52 -4.48,-10 -10,-10 h -997.71 c -5.52,0 -10,4.48 -10,10 v 42.22 c 0,5.52 4.48,10 10,10 h 997.71 c 5.52,0 10,-4.48 10,-10 v -42.22" /><path
         id="path294"
         style="fill:#ffffff;fill-opacity:1;fill-rule:nonzero;stroke:none"
         d="m 1063.83,1013.66 h 1418.13 v 352.047 H 1063.83 Z" /><path
         id="path296"
         style="fill:#c7cbc8;fill-opacity:1;fill-rule:nonzero;stroke:none"
         d="m 2442.8,588.211 h -1340 c -44.19,0 -80,35.82 -80,80 v 768.749 c 0,44.18 35.81,80 80,80 h 1340 c 44.18,0 80,-35.82 80,-80 V 934.789 691.309 668.211 c 0,-44.18 -35.82,-80 -80,-80 M 1063.63,703.789 v 0 c 0,-44.18 35.82,-80 80,-80 h 1258.33 c 44.18,0 80,35.82 80,80 v 587.991 0 73.93 h -0.19 v 0 H 1063.83 v 0 0 -0.24 c -0.07,-4.67 -0.2,-72.39 -0.2,-73.69 v -587.991 0 m 229.08,737.231 v 0 c 0,-18.22 14.78,-33 33.01,-33 18.23,0 33.01,14.78 33.01,33 v 0 0 c 0,18.23 -14.78,33.01 -33.01,33.01 -18.23,0 -33.01,-14.78 -33.01,-33.01 v 0 m -99.12,0 v 0 c 0,-18.22 14.78,-33 33.01,-33 18.22,0 33.01,14.78 33.01,33 v 0 0 c 0,18.23 -14.79,33.01 -33.01,33.01 -18.23,0 -33.01,-14.78 -33.01,-33.01 v 0 m -99.11,0 v 0 c 0,-18.22 14.77,-33 33,-33 18.23,0 33.01,14.78 33.01,33 v 0 0 c 0,18.23 -14.78,33.01 -33.01,33.01 -18.23,0 -33,-14.78 -33,-33.01 v 0 m 320.61,-19.21 v 0 c 0,-5.52 4.48,-10 10,-10 h 997.71 c 5.52,0 10,4.48 10,10 v 42.22 0 c 0,5.52 -4.48,10 -10,10 h -997.71 c -5.52,0 -10,-4.48 -10,-10 v -42.22 0" /><path
         id="path298"
         style="fill:#e4e4e3;fill-opacity:1;fill-rule:nonzero;stroke:none"
         d="m 2481.96,1291.78 c 0,1.33 -0.13,72.62 -0.19,73.93 H 1063.83 c 0,-0.03 0,-0.11 0,-0.24 v 0 0.24 h 1417.94 0.19 v -73.93" /><path
         id="path300"
         style="fill:#e4e4e3;fill-opacity:1;fill-rule:nonzero;stroke:none"
         d="M 2401.96,623.789 H 1143.63 c -44.18,0 -80,35.82 -80,80 v 587.991 c 0,1.3 0.13,69.02 0.2,73.69 V 1013.66 H 2481.96 V 703.789 c 0,-44.18 -35.82,-80 -80,-80" /><path
         id="path302"
         style="fill:#e4e4e3;fill-opacity:1;fill-rule:nonzero;stroke:none"
         d="m 2481.96,1013.66 v 0 H 1063.83 v 351.81 c 0,0.13 0,0.21 0,0.24 h 1417.94 c 0.06,-1.31 0.19,-72.6 0.19,-73.93 v -278.12" /><path
         id="path304"
         style="fill:#db625e;fill-opacity:1;fill-rule:nonzero;stroke:none"
         d="m 1127.48,1408.02 c -18.23,0 -33,14.78 -33,33 0,18.23 14.77,33.01 33,33.01 18.23,0 33.01,-14.78 33.01,-33.01 0,-18.22 -14.78,-33 -33.01,-33" /><path
         id="path306"
         style="fill:#dcc715;fill-opacity:1;fill-rule:nonzero;stroke:none"
         d="m 1226.6,1408.02 c -18.23,0 -33.01,14.78 -33.01,33 0,18.23 14.78,33.01 33.01,33.01 18.22,0 33.01,-14.78 33.01,-33.01 0,-18.22 -14.79,-33 -33.01,-33" /><path
         id="path308"
         style="fill:#8bc1bf;fill-opacity:1;fill-rule:nonzero;stroke:none"
         d="m 1325.72,1408.02 c -18.23,0 -33.01,14.78 -33.01,33 0,18.23 14.78,33.01 33.01,33.01 18.23,0 33.01,-14.78 33.01,-33.01 0,-18.22 -14.78,-33 -33.01,-33" /><path
         id="path310"
         style="fill:#e4e4e3;fill-opacity:1;fill-rule:nonzero;stroke:none"
         d="m 2422.8,1411.81 h -997.71 c -5.52,0 -10,4.48 -10,10 v 42.22 c 0,5.52 4.48,10 10,10 h 997.71 c 5.52,0 10,-4.48 10,-10 v -42.22 c 0,-5.52 -4.48,-10 -10,-10" /><path
         id="path312"
         style="fill:#dfe3e0;fill-opacity:1;fill-rule:nonzero;stroke:none"
         d="m 2438.92,736.039 c 0,-44.18 -35.82,-80 -80,-80 H 1018.91 c -44.183,0 -80,35.82 -80,80 v 768.751 c 0,44.18 35.817,80 80,80 h 1340.01 c 44.18,0 80,-35.82 80,-80 V 736.039" /><path
         id="path314"
         style="fill:#ffffff;fill-opacity:1;fill-rule:nonzero;stroke:none"
         d="m 979.945,1433.54 c -0.062,-1.31 -0.199,-72.6 -0.199,-73.93 V 771.629 c 0,-44.18 35.814,-80 80.004,-80 h 1258.33 c 44.18,0 80,35.82 80,80 v 587.981 c 0,1.33 -0.14,72.62 -0.2,73.93 H 979.945" /><path
         id="path316"
         style="fill:#f56b67;fill-opacity:1;fill-rule:nonzero;stroke:none"
         d="m 1076.6,1508.85 c 0,-18.22 -14.78,-33.01 -33.01,-33.01 -18.22,0 -33,14.79 -33,33.01 0,18.24 14.78,33.01 33,33.01 18.23,0 33.01,-14.77 33.01,-33.01" /><path
         id="path318"
         style="fill:#f7de14;fill-opacity:1;fill-rule:nonzero;stroke:none"
         d="m 1175.72,1508.85 c 0,-18.22 -14.78,-33.01 -33.01,-33.01 -18.23,0 -33,14.79 -33,33.01 0,18.24 14.77,33.01 33,33.01 18.23,0 33.01,-14.77 33.01,-33.01" /><path
         id="path320"
         style="fill:#9ad8d6;fill-opacity:1;fill-rule:nonzero;stroke:none"
         d="m 1274.84,1508.85 c 0,-18.22 -14.78,-33.01 -33.01,-33.01 -18.23,0 -33,14.79 -33,33.01 0,18.24 14.77,33.01 33,33.01 18.23,0 33.01,-14.77 33.01,-33.01" /><path
         id="path322"
         style="fill:#ffffff;fill-opacity:1;fill-rule:nonzero;stroke:none"
         d="m 2348.92,1489.64 c 0,-5.51 -4.49,-10 -10,-10 h -997.71 c -5.53,0 -10,4.49 -10,10 v 42.22 c 0,5.53 4.47,10 10,10 h 997.71 c 5.51,0 10,-4.47 10,-10 v -42.22" /><path
         id="path324"
         style="fill:#ffffff;fill-opacity:1;fill-rule:nonzero;stroke:none"
         d="M 2398.08,1081.49 H 979.941 v 352.05 H 2398.08 v -352.05" /><path
         id="path326"
         style="fill:#0c546f;fill-opacity:1;fill-rule:nonzero;stroke:none"
         d="m 1523.84,1070.77 c -51.45,0 -93.15,41.72 -93.15,93.04 0,51.45 41.7,93.15 93.15,93.15 51.38,0 93.06,-41.7 93.06,-93.15 0,-51.32 -41.68,-93.04 -93.06,-93.04 z m 132.16,-61.66 22.54,22.52 c 4.58,4.57 4.58,11.99 0,16.5 l -19.62,19.57 c -4.56,4.57 -5.79,12.95 -2.65,18.59 l 15.96,38.7 c 1.81,6.19 8.59,11.27 15.02,11.27 h 27.72 c 6.42,0 11.74,5.23 11.74,11.64 v 31.89 c 0,6.41 -5.32,11.67 -11.74,11.67 h -27.72 c -6.43,0 -13.21,5.03 -15.02,11.18 l -15.96,38.82 c -3.03,5.64 -1.91,13.9 2.65,18.45 l 19.62,19.63 c 4.58,4.57 4.58,11.99 0,16.51 l -22.54,22.54 c -4.55,4.53 -11.93,4.53 -16.49,0 l -19.63,-19.64 c -4.56,-4.55 -12.89,-5.74 -18.5,-2.65 l -38.78,16.03 c -6.14,1.79 -11.18,8.52 -11.18,14.94 v 27.78 c 0,6.39 -5.26,11.68 -11.67,11.68 h -31.89 c -6.4,0 -11.66,-5.29 -11.66,-11.68 v -27.78 c 0,-6.42 -5.04,-13.15 -11.19,-14.94 l -38.83,-16.03 c -5.61,-3.09 -13.94,-1.9 -18.46,2.65 l -19.62,19.64 c -4.56,4.53 -11.99,4.53 -16.49,0 l -22.54,-22.61 c -4.57,-4.45 -4.57,-11.87 0,-16.44 l 19.62,-19.63 c 4.56,-4.55 5.68,-12.81 2.65,-18.45 l -16.02,-38.82 c -1.79,-6.15 -8.53,-11.18 -14.95,-11.18 h -27.79 c -6.42,0 -11.67,-5.26 -11.67,-11.67 v -31.89 c 0,-6.41 5.25,-11.64 11.67,-11.64 h 27.79 c 6.42,0 13.16,-5.08 14.95,-11.27 l 16.02,-38.7 c 3.03,-5.76 1.91,-14.02 -2.65,-18.59 l -19.62,-19.57 c -4.57,-4.51 -4.57,-11.93 0,-16.5 l 22.54,-22.52 c 4.5,-4.57 11.93,-4.57 16.49,0 l 19.62,19.57 c 4.57,4.55 12.85,5.72 18.46,2.65 l 38.83,-15.91 c 6.15,-1.82 11.19,-8.6 11.19,-15.08 v -27.738 c 0,-6.403 5.26,-11.661 11.66,-11.661 h 31.89 c 6.41,0 11.67,5.258 11.67,11.661 v 27.738 c 0,6.48 5.04,13.26 11.18,15.08 l 38.78,15.91 c 5.61,3.07 13.94,1.9 18.5,-2.65 l 19.63,-19.57 c 4.56,-4.57 11.94,-4.57 16.49,0" /><path
         id="path328"
         style="fill:#0c546f;fill-opacity:1;fill-rule:nonzero;stroke:none"
         d="m 1798.95,867.02 c -15.02,-28.11 -50.02,-38.731 -78.09,-23.668 -28.05,15.066 -38.66,50.089 -23.58,78.078 15.04,28.109 50.01,38.73 78.11,23.648 28,-15.066 38.67,-50.058 23.56,-78.058 z m 72.39,54.058 -5.69,18.942 c -1.21,3.832 -5.24,6.019 -9.06,4.871 l -16.43,-5 c -3.83,-1.172 -8.76,0.64 -10.88,4 l -16.56,20.078 c -2.81,2.75 -3.55,7.953 -1.69,11.472 l 8.12,15.149 c 1.91,3.5 0.53,7.969 -2.92,9.75 l -17.45,9.35 c -3.5,1.9 -7.91,0.59 -9.81,-2.99 l -8.12,-15.052 c -1.85,-3.5 -6.62,-5.789 -10.45,-4.976 l -25.93,2.648 c -3.97,-0.058 -8.17,3.071 -9.27,6.879 l -4.99,16.461 c -1.18,3.75 -5.26,5.92 -9.02,4.77 l -18.89,-5.74 c -3.81,-1.1 -5.98,-5.2 -4.83,-9.01 l 4.93,-16.442 c 1.18,-3.808 -0.62,-8.636 -3.91,-10.797 l -20.1,-16.57 c -2.76,-2.851 -7.96,-3.609 -11.51,-1.703 l -15.12,8.051 c -3.5,1.91 -7.9,0.633 -9.76,-2.91 l -9.39,-17.321 c -1.86,-3.617 -0.53,-7.968 2.98,-9.867 l 15.15,-8.16 c 3.51,-1.82 5.73,-6.582 4.94,-10.449 l -2.59,-25.864 c 0,-4 -3.08,-8.257 -6.89,-9.339 l -16.5,-4.957 c -3.83,-1.172 -5.95,-5.211 -4.78,-9.082 l 5.68,-18.829 c 1.17,-3.863 5.19,-6.031 9.01,-4.902 l 16.44,5.02 c 3.82,1.152 8.75,-0.618 10.87,-3.981 l 16.56,-20.098 c 2.81,-2.781 3.55,-7.968 1.71,-11.492 l -8.13,-15.129 c -1.91,-3.5 -0.54,-7.871 2.97,-9.769 l 17.4,-9.32 c 3.5,-1.93 7.89,-0.559 9.75,2.949 l 8.17,15.16 c 1.87,3.519 6.64,5.762 10.51,4.902 l 25.83,-2.652 c 4.03,0.043 8.21,-3.027 9.34,-6.899 l 4.98,-16.351 c 1.16,-3.859 5.25,-6.008 9.01,-4.859 l 18.94,5.718 c 3.76,1.16 5.93,5.184 4.82,9.012 l -4.98,16.441 c -1.16,3.809 0.63,8.707 3.92,10.899 l 20.09,16.488 c 2.82,2.852 8.03,3.594 11.52,1.692 l 15.12,-8.059 c 3.56,-1.922 7.95,-0.551 9.81,2.969 l 9.33,17.359 c 1.92,3.52 0.54,7.852 -2.96,9.77 l -15.17,8.203 c -3.51,1.886 -5.73,6.558 -4.88,10.429 l 2.65,25.918 c -0.11,3.942 3.02,8.18 6.85,9.332 l 16.43,4.957 c 3.82,1.122 5.94,5.204 4.83,8.93" /><path
         id="path330"
         style="fill:#0c546f;fill-opacity:1;fill-rule:nonzero;stroke:none"
         d="m 1974.91,1129.79 c -12.43,-36.11 -51.84,-55.31 -87.93,-42.81 -36.05,12.52 -55.25,51.93 -42.75,87.93 12.48,36.12 51.85,55.34 87.98,42.84 36,-12.55 55.27,-51.92 42.7,-87.96 z m 75.42,77.76 -10.32,21.34 c -2.17,4.32 -7.35,6.12 -11.65,4.03 l -18.51,-9.03 c -4.3,-2.13 -10.48,-0.91 -13.65,2.69 l -23.37,20.59 c -3.87,2.75 -5.73,8.74 -4.21,13.25 l 6.75,19.49 c 1.6,4.51 -0.89,9.52 -5.32,10.99 l -22.42,7.74 c -4.5,1.6 -9.46,-0.78 -11.04,-5.38 l -6.76,-19.37 c -1.52,-4.49 -6.72,-8.09 -11.42,-7.89 l -31.2,-1.78 c -4.69,-0.81 -10.25,2.1 -12.28,6.39 l -9.03,18.52 c -2.1,4.23 -7.35,6.02 -11.57,3.95 l -21.27,-10.39 c -4.3,-2.02 -6.1,-7.26 -4.01,-11.57 l 8.96,-18.54 c 2.12,-4.27 0.89,-10.33 -2.57,-13.52 l -20.66,-23.41 c -2.72,-3.91 -8.74,-5.79 -13.31,-4.2 l -19.41,6.66 c -4.5,1.61 -9.48,-0.75 -11,-5.29 l -7.82,-22.31 c -1.52,-4.61 0.88,-9.51 5.39,-11.09 l 19.5,-6.81 c 4.49,-1.47 8.03,-6.69 7.83,-11.41 l 1.82,-31.08 c 0.77,-4.76 -2.07,-10.41 -6.38,-12.38 l -18.6,-9 c -4.28,-2.11 -6.03,-7.29 -3.91,-11.66 l 10.29,-21.22 c 2.12,-4.35 7.29,-6.15 11.59,-4.06 l 18.52,9.05 c 4.3,2.09 10.49,0.91 13.63,-2.68 l 23.42,-20.63 c 3.83,-2.73 5.7,-8.75 4.17,-13.26 l -6.73,-19.45 c -1.59,-4.53 0.86,-9.41 5.37,-11 l 22.35,-7.75 c 4.53,-1.6 9.47,0.86 10.99,5.33 l 6.8,19.51 c 1.54,4.52 6.75,8.07 11.5,7.78 l 31.08,1.77 c 4.76,0.82 10.29,-2.01 12.35,-6.36 l 8.99,-18.42 c 2.12,-4.36 7.37,-6.13 11.6,-4.06 l 21.33,10.41 c 4.24,2.07 6.05,7.22 4,11.56 l -9.02,18.53 c -2.09,4.28 -0.89,10.41 2.58,13.62 l 20.65,23.34 c 2.8,3.9 8.82,5.78 13.32,4.18 l 19.42,-6.66 c 4.58,-1.6 9.51,0.86 11.04,5.37 l 7.76,22.34 c 1.59,4.49 -0.86,9.38 -5.37,10.98 l -19.51,6.81 c -4.5,1.61 -8.02,6.68 -7.75,11.41 l -1.79,31.21 c -0.88,4.66 2.03,10.27 6.33,12.35 l 18.52,8.98 c 4.31,2.04 6.03,7.29 4.01,11.49" /><path
         id="path332"
         style="fill:#0c546f;fill-opacity:1;fill-rule:nonzero;stroke:none"
         d="m 1575.91,1163.94 c 0,-28.78 -23.32,-52.1 -52.09,-52.1 -28.77,0 -52.09,23.32 -52.09,52.1 0,28.77 23.32,52.09 52.09,52.09 28.77,0 52.09,-23.32 52.09,-52.09" /><path
         id="path334"
         style="fill:#0c546f;fill-opacity:1;fill-rule:nonzero;stroke:none"
         d="m 1942.57,1152.37 c 0,-18.22 -14.77,-32.99 -32.99,-32.99 -18.22,0 -32.99,14.77 -32.99,32.99 0,18.22 14.77,32.99 32.99,32.99 18.22,0 32.99,-14.77 32.99,-32.99" /><path
         id="path336"
         style="fill:#0c546f;fill-opacity:1;fill-rule:nonzero;stroke:none"
         d="m 1777.57,894.219 c 0,-16.27 -13.19,-29.449 -29.45,-29.449 -16.26,0 -29.46,13.179 -29.46,29.449 0,16.269 13.2,29.461 29.46,29.461 16.26,0 29.45,-13.192 29.45,-29.461" /><path
         id="path338"
         style="fill:#f4655f;fill-opacity:1;fill-rule:nonzero;stroke:none"
         d="m 2623.87,1136.02 c 0,-121.8 -98.75,-220.551 -220.55,-220.551 -121.81,0 -220.55,98.751 -220.55,220.551 0,121.8 98.74,220.55 220.55,220.55 121.8,0 220.55,-98.75 220.55,-220.55" /><path
         id="path340"
         style="fill:#06c1b9;fill-opacity:1;fill-rule:nonzero;stroke:none"
         d="m 687.07,1633.8 c 0,-96.69 -78.386,-175.07 -175.078,-175.07 -96.699,0 -175.078,78.38 -175.078,175.07 0,96.69 78.379,175.08 175.078,175.08 96.692,0 175.078,-78.39 175.078,-175.08" /><path
         id="path342"
         style="fill:#06c1b9;fill-opacity:1;fill-rule:nonzero;stroke:none"
         d="m 687.07,482.941 c 0,-96.679 -78.386,-175.082 -175.078,-175.082 -96.699,0 -175.078,78.403 -175.078,175.082 0,96.688 78.379,175.071 175.078,175.071 96.692,0 175.078,-78.383 175.078,-175.071" /><path
         id="path344"
         style="fill:#f4655f;fill-opacity:1;fill-rule:nonzero;stroke:none"
         d="m 562.359,1058.36 c 0,-96.669 -78.39,-175.071 -175.078,-175.071 -96.699,0 -175.078,78.402 -175.078,175.071 0,96.7 78.379,175.09 175.078,175.09 96.688,0 175.078,-78.39 175.078,-175.09" /><path
         id="path346"
         style="fill:#f6c400;fill-opacity:1;fill-rule:nonzero;stroke:none"
         d="m 2675.07,1633.8 c 0,-96.69 78.38,-175.07 175.07,-175.07 96.7,0 175.08,78.38 175.08,175.07 0,96.69 -78.38,175.08 -175.08,175.08 -96.69,0 -175.07,-78.39 -175.07,-175.08" /><path
         id="path348"
         style="fill:#f4655f;fill-opacity:1;fill-rule:nonzero;stroke:none"
         d="m 2675.07,482.941 c 0,-96.679 78.38,-175.082 175.07,-175.082 96.7,0 175.08,78.403 175.08,175.082 0,96.688 -78.38,175.071 -175.08,175.071 -96.69,0 -175.07,-78.383 -175.07,-175.071" /><path
         id="path350"
         style="fill:#06c1b9;fill-opacity:1;fill-rule:nonzero;stroke:none"
         d="m 2799.78,1058.36 c 0,-96.669 78.38,-175.071 175.07,-175.071 96.7,0 175.08,78.402 175.08,175.071 0,96.7 -78.38,175.09 -175.08,175.09 -96.69,0 -175.07,-78.39 -175.07,-175.09" /><path
         id="path352"
         style="fill:#f6c400;fill-opacity:1;fill-rule:nonzero;stroke:none"
         d="m 965.977,1149.4 c -96.692,0 -175.079,-78.38 -175.079,-175.08 0,-53.98 24.469,-102.218 62.887,-134.332 l 27.86,58.16 c -34.161,34.262 -44.942,87.524 -22.852,133.632 18.957,39.59 57.215,63.64 98.086,66.43 l -48.621,-101.538 104.102,-49.871 48.63,101.549 c 23.44,-33.6 28.69,-78.479 9.74,-118.049 -22.09,-46.129 -70.35,-71.11 -118.445,-65.981 l -28.594,-59.711 c 13.567,-3.371 27.676,-5.371 42.286,-5.371 96.693,0 175.073,78.403 175.073,175.082 0,96.7 -78.38,175.08 -175.073,175.08" /><path
         id="path354"
         style="fill:#ffffff;fill-opacity:1;fill-rule:nonzero;stroke:none"
         d="m 1070.73,930.301 c 18.95,39.57 13.7,84.449 -9.74,118.049 l -48.63,-101.549 -104.102,49.871 48.621,101.538 c -40.871,-2.79 -79.129,-26.84 -98.086,-66.43 -22.09,-46.108 -11.309,-99.37 22.852,-133.632 l -27.86,-58.16 c 19.988,-16.718 43.813,-28.886 69.906,-35.379 l 28.594,59.711 c 48.095,-5.129 96.355,19.852 118.445,65.981" /><path
         id="path356"
         style="fill:#ffffff;fill-opacity:1;fill-rule:nonzero;stroke:none"
         d="m 2523.13,1133.6 h -57.18 v 103.6 c 0,3.05 -2.5,5.55 -5.57,5.55 h -63.26 v 7.15 h 126.01 z m -81.01,-57.29 H 2287.9 v 142.34 h 154.22 z m 94.9,193.3 h -153.79 c -3.06,0 -5.56,-2.5 -5.56,-5.57 v -21.29 h -108.03 c -3.07,0 -5.57,-2.5 -5.57,-5.55 v -215.98 c 0,-3.09 2.5,-5.57 5.57,-5.57 h 190.74 c 3.07,0 5.57,2.48 5.57,5.57 v 62.81 h 71.07 c 3.05,0 5.55,2.5 5.55,5.55 v 174.46 c 0,3.07 -2.5,5.57 -5.55,5.57" /><path
         id="path358"
         style="fill:#ffffff;fill-opacity:1;fill-rule:nonzero;stroke:none"
         d="m 2974.85,1090.55 c -15.96,0 -28.9,-12.95 -28.9,-28.9 0,-16 12.94,-28.93 28.9,-28.93 15.97,0 28.89,12.93 28.89,28.93 0,15.95 -12.92,28.9 -28.89,28.9" /><path
         id="path360"
         style="fill:#ffffff;fill-opacity:1;fill-rule:nonzero;stroke:none"
         d="m 2974.85,1012.84 c -26.94,0 -48.77,21.89 -48.77,48.81 0,26.93 21.83,48.77 48.77,48.77 26.93,0 48.78,-21.84 48.78,-48.77 0,-26.92 -21.85,-48.81 -48.78,-48.81 z m 112.72,97.58 v 9.08 c 0,9.53 -7.78,17.34 -17.34,17.34 h -129.99 v 17.72 h -45.53 v -17.72 h -15.24 c -9.54,0 -17.34,-7.81 -17.34,-17.34 v -115.71 c 0,-9.528 7.8,-17.341 17.34,-17.341 h 190.76 c 9.56,0 17.34,7.813 17.34,17.341 v 84.22 22.41" /><path
         id="path362"
         style="fill:#ffffff;fill-opacity:1;fill-rule:nonzero;stroke:none"
         d="m 411.273,1097.92 c -4.125,0 -7.523,3.39 -7.523,7.53 v 39.65 l 0.512,2.46 c 0.371,-1.19 0.933,-2.34 1.886,-3.3 l 46.34,-46.34 z m 38.161,-95.36 c 0,-8.708 -7.149,-15.861 -15.879,-15.861 H 341 c -8.73,0 -15.859,7.153 -15.859,15.861 v 118.01 c 0,8.71 7.129,15.86 15.859,15.86 h 43.648 v -28.61 h -36.699 c -4.363,0 -7.933,-3.56 -7.933,-7.91 v -7.29 c 0,-4.35 3.57,-7.93 7.933,-7.93 h 37.817 c 1.359,-2.4 3.859,-4.12 6.812,-4.12 h 56.856 z m 14.535,106.23 v -0.19 l -44.051,44.02 h 0.121 l -4.824,4.8 h -2.309 -2.652 -81.156 c -13.078,0 -23.793,-10.7 -23.793,-23.8 v -144.1 c 0,-13.11 10.715,-23.79 23.793,-23.79 h 116.363 c 13.094,0 23.809,10.68 23.809,23.79 v 114 l -5.301,5.27" /><path
         id="path364"
         style="fill:#ffffff;fill-opacity:1;fill-rule:nonzero;stroke:none"
         d="m 426.609,1036.43 h -78.66 c -4.363,0 -7.933,-3.55 -7.933,-7.91 v -7.26 c 0,-4.38 3.57,-7.95 7.933,-7.95 h 78.66 c 4.368,0 7.946,3.57 7.946,7.95 v 7.26 c 0,4.36 -3.578,7.91 -7.946,7.91" /><path
         id="path366"
         style="fill:#ffffff;fill-opacity:1;fill-rule:nonzero;stroke:none"
         d="m 340.016,1064.22 v -7.28 c 0,-4.38 3.57,-7.93 7.933,-7.93 h 78.66 c 4.368,0 7.946,3.55 7.946,7.93 v 7.28 c 0,4.34 -3.578,7.93 -7.946,7.93 h -78.66 c -4.363,0 -7.933,-3.59 -7.933,-7.93" /><path
         id="path368"
         style="fill:#e8b900;fill-opacity:1;fill-rule:evenodd;stroke:none"
         d="m 3024.42,559.75 h -165.94 c 0,10.199 -8.26,18.461 -18.44,18.461 h -73.76 c -10.18,0 -18.44,-8.262 -18.44,-18.461 v -55.309 c 0,-10.203 8.26,-18.441 18.44,-18.441 h 258.14 c 10.18,0 18.44,8.238 18.44,18.441 v 36.868 c 0,10.203 -8.26,18.441 -18.44,18.441" /><path
         id="path370"
         style="fill:#ffffff;fill-opacity:1;fill-rule:nonzero;stroke:none"
         d="m 3005.98,541.309 h -221.26 c -10.18,0 -18.44,-8.239 -18.44,-18.43 v -18.438 c 0,-10.203 8.26,-18.441 18.44,-18.441 h 221.26 c 10.18,0 18.44,8.238 18.44,18.441 v 18.438 c 0,10.191 -8.26,18.43 -18.44,18.43" /><path
         id="path372"
         style="fill:#f6c400;fill-opacity:1;fill-rule:nonzero;stroke:none"
         d="m 3024.42,522.879 h -258.14 c -10.18,0 -18.44,-8.25 -18.44,-18.438 V 320.039 c 0,-10.168 8.26,-18.43 18.44,-18.43 h 258.14 c 10.18,0 18.44,8.262 18.44,18.43 v 184.402 c 0,10.188 -8.26,18.438 -18.44,18.438" /><path
         id="path374"
         style="fill:#e6e6e6;fill-opacity:1;fill-rule:nonzero;stroke:none"
         d="m 2758.43,1737.95 v -185.82 c 0,-10.81 8.77,-19.58 19.57,-19.58 h 234.71 c 10.8,0 19.57,8.77 19.57,19.58 v 185.82 h -273.85" /><path
         id="path376"
         style="fill:#cccccc;fill-opacity:1;fill-rule:nonzero;stroke:none"
         d="M 3012.71,1845.51 H 2778 c -10.8,0 -19.57,-8.75 -19.57,-19.55 v -88.01 h 273.85 v 88.01 c 0,10.8 -8.77,19.55 -19.57,19.55" /><path
         id="path378"
         style="fill:#999999;fill-opacity:1;fill-rule:nonzero;stroke:none"
         d="m 2993.15,1816.18 h -195.6 c -5.4,0 -9.79,-4.38 -9.79,-9.79 v -39.12 c 0,-5.4 4.39,-9.77 9.79,-9.77 h 195.6 c 5.39,0 9.77,4.37 9.77,9.77 v 39.12 c 0,5.41 -4.38,9.79 -9.77,9.79" /><path
         id="path380"
         style="fill:#999999;fill-opacity:1;fill-rule:evenodd;stroke:none"
         d="m 2993.15,1718.38 h -19.57 c -5.4,0 -9.76,-4.39 -9.76,-9.79 v -19.54 c 0,-5.41 4.36,-9.8 9.76,-9.8 h 19.57 c 5.39,0 9.77,4.39 9.77,9.8 v 19.54 c 0,5.4 -4.38,9.79 -9.77,9.79 z m -58.69,-117.36 h -19.55 c -5.41,0 -9.78,-4.38 -9.78,-9.79 v -19.55 c 0,-5.41 4.37,-9.78 9.78,-9.78 h 19.55 c 5.41,0 9.79,4.37 9.79,9.78 v 19.55 c 0,5.41 -4.38,9.79 -9.79,9.79 z m 0,58.68 h -19.55 c -5.41,0 -9.78,-4.38 -9.78,-9.77 v -19.56 c 0,-5.41 4.37,-9.8 9.78,-9.8 h 19.55 c 5.41,0 9.79,4.39 9.79,9.8 v 19.56 c 0,5.39 -4.38,9.77 -9.79,9.77 z m 0,58.68 h -19.55 c -5.41,0 -9.78,-4.39 -9.78,-9.79 v -19.54 c 0,-5.41 4.37,-9.8 9.78,-9.8 h 19.55 c 5.41,0 9.79,4.39 9.79,9.8 v 19.54 c 0,5.4 -4.38,9.79 -9.79,9.79 z m -58.67,-117.36 h -19.56 c -5.4,0 -9.77,-4.38 -9.77,-9.79 v -19.55 c 0,-5.41 4.37,-9.78 9.77,-9.78 h 19.56 c 5.39,0 9.78,4.37 9.78,9.78 v 19.55 c 0,5.41 -4.39,9.79 -9.78,9.79 z m 0,58.68 h -19.56 c -5.4,0 -9.77,-4.38 -9.77,-9.77 v -19.56 c 0,-5.41 4.37,-9.8 9.77,-9.8 h 19.56 c 5.39,0 9.78,4.39 9.78,9.8 v 19.56 c 0,5.39 -4.39,9.77 -9.78,9.77 z m 0,58.68 h -19.56 c -5.4,0 -9.77,-4.39 -9.77,-9.79 v -19.54 c 0,-5.41 4.37,-9.8 9.77,-9.8 h 19.56 c 5.39,0 9.78,4.39 9.78,9.8 v 19.54 c 0,5.4 -4.39,9.79 -9.78,9.79 z m -58.67,-117.36 h -19.57 c -5.4,0 -9.79,-4.38 -9.79,-9.79 v -19.55 c 0,-5.41 4.39,-9.78 9.79,-9.78 h 19.57 c 5.39,0 9.76,4.37 9.76,9.78 v 19.55 c 0,5.41 -4.37,9.79 -9.76,9.79 z m 0,58.68 h -19.57 c -5.4,0 -9.79,-4.38 -9.79,-9.77 v -19.56 c 0,-5.41 4.39,-9.8 9.79,-9.8 h 19.57 c 5.39,0 9.76,4.39 9.76,9.8 v 19.56 c 0,5.39 -4.37,9.77 -9.76,9.77 z m 0,58.68 h -19.57 c -5.4,0 -9.79,-4.39 -9.79,-9.79 v -19.54 c 0,-5.41 4.39,-9.8 9.79,-9.8 h 19.57 c 5.39,0 9.76,4.39 9.76,9.8 v 19.54 c 0,5.4 -4.37,9.79 -9.76,9.79" /><path
         id="path382"
         style="fill:#f4655f;fill-opacity:1;fill-rule:nonzero;stroke:none"
         d="m 2993.15,1659.7 h -19.57 c -5.4,0 -9.76,-4.38 -9.76,-9.77 v -78.25 c 0,-5.41 4.36,-9.78 9.76,-9.78 h 19.57 c 5.39,0 9.77,4.37 9.77,9.78 v 78.25 c 0,5.39 -4.38,9.77 -9.77,9.77" /><path
         id="path384"
         style="fill:#f6c400;fill-opacity:1;fill-rule:nonzero;stroke:none"
         d="M 585.613,564.77 H 288.477 c -11.719,0 -21.227,-9.508 -21.227,-21.211 v -148.59 c 0,-11.699 9.508,-21.207 21.227,-21.207 h 297.136 c 11.723,0 21.227,9.508 21.227,21.207 v 148.59 c 0,11.703 -9.504,21.211 -21.227,21.211" /><path
         id="path386"
         style="fill:#ffffff;fill-opacity:1;fill-rule:evenodd;stroke:none"
         d="m 569.973,520.98 c -5.012,2.95 -11.489,1.329 -14.453,-3.628 l -22.965,-38.161 -22.953,38.161 c -2.985,4.957 -9.45,6.578 -14.457,3.628 -5.008,-2.949 -6.653,-9.332 -3.68,-14.289 L 521.953,456 v -29.199 c 0,-5.84 4.75,-10.602 10.606,-10.602 5.871,0 10.605,4.762 10.605,10.602 v 29.219 l 30.484,50.671 c 2.977,4.957 1.332,11.34 -3.675,14.289 z m -101.086,1.348 c -5.86,0 -10.617,-4.75 -10.617,-10.609 v -53.078 c -0.012,-11.719 -9.508,-21.211 -21.223,-21.211 -11.727,0 -21.211,9.492 -21.227,21.211 v 53.078 c 0,5.859 -4.746,10.609 -10.617,10.609 -5.851,0 -10.609,-4.75 -10.609,-10.609 v -53.078 c 0,-23.442 19.004,-42.442 42.453,-42.442 23.441,0 42.445,19 42.445,42.442 v 53.078 c 0,5.859 -4.742,10.609 -10.605,10.609 z M 352.141,437.43 h -31.828 v 21.211 h 31.828 c 5.855,0 10.625,-4.75 10.625,-10.61 0,-5.863 -4.77,-10.601 -10.625,-10.601 z m -31.828,63.691 h 21.218 c 5.864,0 10.61,-4.769 10.61,-10.633 0,-5.859 -4.746,-10.617 -10.61,-10.617 h -21.218 z m 48.808,-26.23 c 2.625,4.629 4.246,9.898 4.246,15.597 0,17.582 -14.246,31.84 -31.836,31.84 h -31.836 c -5.851,0 -10.601,-4.75 -10.601,-10.609 v -84.918 c 0,-5.84 4.75,-10.602 10.601,-10.602 h 31.836 v 1.949 c 3.332,-1.187 6.867,-1.949 10.61,-1.949 17.586,0 31.843,14.27 31.843,31.832 0,11.328 -5.957,21.207 -14.863,26.86" /><path
         id="path388"
         style="fill:#ffffff;fill-opacity:1;fill-rule:evenodd;stroke:none"
         d="M 602.336,1530.06 H 330.508 v 266.14 h 271.828 v -266.14" /><path
         id="path390"
         style="fill:#cccccc;fill-opacity:1;fill-rule:nonzero;stroke:none"
         d="m 317.188,1739.18 v -190.1 c 0,-10.51 8.503,-19.02 19.007,-19.02 h 266.141 c 10.496,0 19.012,8.51 19.012,19.02 v 190.1 h -304.16" /><path
         id="path392"
         style="fill:#ffffff;fill-opacity:1;fill-rule:nonzero;stroke:none"
         d="m 336.195,1739.16 v -180.58 c 0,-5.26 4.254,-9.51 9.508,-9.51 h 247.129 c 5.254,0 9.504,4.25 9.504,9.51 v 180.58 H 336.195" /><path
         id="path394"
         style="fill:#ed7261;fill-opacity:1;fill-rule:evenodd;stroke:none"
         d="m 507.285,1777.19 c -5.254,0 -9.504,4.26 -9.504,9.51 0,5.24 4.25,9.5 9.504,9.5 5.254,0 9.5,-4.26 9.5,-9.5 0,-5.25 -4.246,-9.51 -9.5,-9.51 z m -76.035,0 c -5.254,0 -9.508,4.26 -9.508,9.51 0,5.24 4.254,9.5 9.508,9.5 5.25,0 9.504,-4.26 9.504,-9.5 0,-5.25 -4.254,-9.51 -9.504,-9.51 z m 171.086,57.03 H 336.195 c -10.504,0 -19.007,-8.51 -19.007,-19.02 v -76.02 h 304.16 v 76.02 c 0,10.51 -8.516,19.02 -19.012,19.02" /><path
         id="path396"
         style="fill:#000000;fill-opacity:1;fill-rule:nonzero;stroke:none"
         d="m 390.906,1591.45 -2.051,0.88 -0.875,2.05 v 11.14 l 0.875,1.91 2.051,0.73 h 19.653 v 72.13 l -19.211,-5.86 -1.758,-0.29 c -1.074,0 -1.61,0.58 -1.61,1.75 v 13.78 l 1.024,1.62 25.984,8.5 1.477,0.44 1.918,0.15 h 9.742 c 1.875,0 2.813,-0.93 2.813,-2.79 v -89.43 h 19.636 l 2.059,-0.73 0.879,-1.91 v -11.14 l -0.879,-2.05 -2.059,-0.88 h -59.668" /><path
         id="path398"
         style="fill:#000000;fill-opacity:1;fill-rule:nonzero;stroke:none"
         d="m 544.844,1683.88 c -0.489,-1.02 -1.121,-2.37 -1.906,-4.03 l -39.583,-85.62 c -0.496,-1.07 -1.027,-1.8 -1.613,-2.19 -0.59,-0.4 -1.371,-0.59 -2.347,-0.59 h -15.247 l -1.543,0.66 -0.503,1.54 0.293,1.31 42.07,87.68 v 0.29 l -0.735,0.74 h -45.152 l -2.055,0.73 -0.878,1.9 v 11.29 l 0.878,1.98 2.055,0.81 h 61.133 c 1.66,0 3.055,-0.57 4.18,-1.69 1.121,-1.13 1.683,-2.51 1.683,-4.17 v -7.92 c 0,-0.78 -0.242,-1.69 -0.73,-2.72" /></g></g></svg>