<svg id="SvgjsSvg1031" width="288" height="288" xmlns="http://www.w3.org/2000/svg" version="1.1" xmlns:xlink="http://www.w3.org/1999/xlink" xmlns:svgjs="http://svgjs.com/svgjs"><defs id="SvgjsDefs1032"></defs><g id="SvgjsG1033"><svg xmlns="http://www.w3.org/2000/svg" width="288" height="288" enable-background="new 0 0 512 512" viewBox="0 0 512 512"><path d="M116.795 26.115c-16.458 0-29.848 13.389-29.848 29.847s13.39 29.847 29.848 29.847 29.847-13.389 29.847-29.847-13.389-29.847-29.847-29.847zm0 39.694c-5.43 0-9.848-4.417-9.848-9.847s4.418-9.847 9.848-9.847 9.847 4.417 9.847 9.847-4.417 9.847-9.847 9.847zM182.604 26.115c-16.458 0-29.847 13.389-29.847 29.847s13.389 29.847 29.847 29.847 29.848-13.389 29.848-29.847-13.39-29.847-29.848-29.847zm0 39.694c-5.43 0-9.847-4.417-9.847-9.847s4.417-9.847 9.847-9.847 9.848 4.417 9.848 9.847-4.419 9.847-9.848 9.847zM248.413 26.115c-16.458 0-29.848 13.389-29.848 29.847s13.39 29.847 29.848 29.847 29.847-13.389 29.847-29.847-13.389-29.847-29.847-29.847zm0 39.694c-5.43 0-9.848-4.417-9.848-9.847s4.418-9.847 9.848-9.847 9.847 4.417 9.847 9.847-4.417 9.847-9.847 9.847zM329.672 111.923h.024c5.522 0 9.987-4.477 9.987-10s-4.489-10-10.012-10-10 4.477-10 10 4.479 10 10.001 10z" fill="#2f89fc" class="color000 svgShape"></path><path d="m450.009 159.086c-8.088-19.77-28.541-18.033-28.641-18.067 0-21.137 0-78.317 0-99.207 0-23.055-18.757-41.812-41.812-41.812h-.037-276.738c-27.162 0-49.26 22.098-49.26 49.26v240.078c0 27.162 22.099 49.26 49.261 49.26h209.797v31.185h-5.497c-12.809 0-23.229 10.42-23.229 23.229v80.262c0 21.354 17.372 38.726 38.726 38.726s38.727-17.373 38.727-38.726v-80.262c0-12.809-10.421-23.229-23.229-23.229h-5.497v-31.185h39.529c27.162 0 49.261-22.098 49.261-49.26v-25.95c.14-.041 20.607 1.613 28.678-18.156 11.073-27.133 11.423-58.135-.039-86.146zm-108.704 233.926v80.262c0 10.326-8.4 18.726-18.727 18.726-10.325 0-18.726-8.4-18.726-18.726v-80.262c0-1.78 1.448-3.229 3.229-3.229h30.994c1.781 0 3.23 1.449 3.23 3.229zm30.814-175.504v48.416c0 5.807-5.032 10.389-10.852 9.796-4.959-.505-8.841-4.705-8.841-9.796v-44.828c0-19.795-15.098-36.13-34.384-38.095-22.309-2.273-41.54 15.237-41.696 37.323l-.196 27.838c-.03 4.841-4.039 8.807-8.868 8.807-4.884 0-8.868-4.02-8.868-8.869-.096-75.661 1.213-77.066-3.799-87.081h168.411c3.745 0 7.071 2.214 8.474 5.641 2.274 5.561 4.005 11.311 5.174 17.187-30.646.204-31.974-.483-37.668.685-15.325 3.144-26.887 16.735-26.887 32.976zm-75.773 2.956c.068-9.739 8.047-17.662 17.786-17.662 10.058 0 18.293 8.177 18.293 18.293v22.293h-36.241zm-74.215 22.925c-3.749 0-7.086-2.243-8.503-5.714-9.488-23.246-9.133-48.566-.001-70.942 4.605-11.28 24.786-4.881 24.786 10.401v66.255zm-119.35 75.21c-16.135 0-29.261-13.126-29.261-29.26v-177.416h216.151c5.522 0 10-4.477 10-10s-4.478-10-10-10h-216.15v-42.663c0-16.134 13.126-29.26 29.261-29.26h276.737c12.048 0 21.85 9.802 21.85 21.85v50.074h-31.696c-5.522 0-10 4.477-10 10s4.478 10 10 10h31.696v29.096c-10.821 0-168.98 0-179.237 0-11.912 0-22.518 7.126-27.021 18.156-4.231 10.366-6.88 21.125-7.949 31.984h-10.808c-18.771 0-34.042 15.271-34.042 34.042v42.234c0 20.232 16.46 36.692 36.692 36.692h122.739c5.975 0 10.836 4.861 10.836 10.835v3.636zm298.587-29.261c0 16.134-13.126 29.26-29.261 29.26h-39.529v-3.636c0-17.003-13.833-30.835-30.836-30.835h-122.739c-9.204 0-16.692-7.488-16.692-16.692v-42.234c0-7.743 6.299-14.042 14.042-14.042h10.627c.923 11.567 3.629 23.043 8.131 34.074 4.502 11.029 15.107 18.155 27.02 18.155h20.68c11.339 18.083 37.555 18.092 48.932 0h40.683v2.535c0 16.458 13.39 29.847 29.848 29.847 16.389 0 29.848-13.321 29.848-29.847v-2.535h9.248v25.95zm30.161-51.663c-1.417 3.471-4.755 5.714-8.504 5.714-10.262 0-19.671 0-30.905 0v-25.881c0-7.533 6.128-13.661 13.66-13.661h32.683c-.211 11.58-2.563 23.12-6.934 33.828z" fill="#2f89fc" class="color000 svgShape"></path></svg></g></svg>